<?xml version="1.0" standalone="no"?>
<!DOCTYPE svg PUBLIC "-//W3C//DTD SVG 1.1//EN" "http://www.w3.org/Graphics/SVG/1.1/DTD/svg11.dtd" >
<svg xmlns="http://www.w3.org/2000/svg">
<metadata></metadata>
<defs>
<font id="annie_use_your_telescopeRg" horiz-adv-x="518" >
<font-face units-per-em="1024" ascent="819" descent="-205" />
<missing-glyph horiz-adv-x="384" />
<glyph unicode="&#xd;" horiz-adv-x="384" />
<glyph unicode=" "  horiz-adv-x="384" />
<glyph unicode="&#x09;" horiz-adv-x="384" />
<glyph unicode="&#xa0;" horiz-adv-x="384" />
<glyph unicode="!" horiz-adv-x="158" d="M101 -2q-24 15 -33 32t-7.5 32.5t11.5 26.5t23.5 13t28.5 -7.5t27 -36.5q0 -10 -3.5 -20.5t-10 -19t-16 -14.5t-20.5 -6zM110 58q-4 0 -6 -3t-2 -7.5t2 -7.5t6 -2q9 2 9 9.5t-9 10.5zM13 650q0 9 1.5 12.5t6 4t12.5 1t20 4.5l57 -461q-2 -1 -9 -3t-10 -2q-12 0 -19 4.5 t-10.5 13t-5 20t-3.5 24.5q-1 5 -3 26t-6 52t-8 68.5t-8 74.5t-8 70t-6 55l-0.5 5.5t-0.5 12v12v6.5z" />
<glyph unicode="&#x22;" horiz-adv-x="216" d="M133 633v19t3.5 20.5t10.5 16.5t20 7q0 -6 1 -20.5t1.5 -30.5t1.5 -30t1 -20q0 -2 3.5 -10.5t7 -18t6.5 -18t3 -10.5q0 -3 -2.5 -6t-5.5 -6t-6 -5.5t-6 -2.5q-13 17 -21 30.5t-12 26.5t-5 26.5t-1 31.5zM19 604q0 13 1.5 32t8 36.5t18 30t29.5 12.5v-170q-27 0 -42 16.5 t-15 42.5z" />
<glyph unicode="#" horiz-adv-x="552" d="M217 167q-9 -26 -10.5 -48t0 -40t3.5 -30t-2 -18t-16 -4.5t-38 11.5v116h-125q6 12 24.5 22.5t38.5 18t36 12t17 4.5q4 21 3.5 42t-0.5 39.5t0.5 32.5t6.5 21h-145v18l183 39v179q6 -2 11 -2q4 -2 8.5 -2.5t8.5 -1.5q2 -1 5.5 -3.5t6.5 -6t5.5 -6.5t2.5 -4v-134h86v154 h28l18 -130l156 -4q-1 -2 -4 -7t-6.5 -10.5t-7 -9.5t-4.5 -5q-8 -2 -26.5 -6t-39.5 -8t-40 -7.5t-26 -4.5v-116h154v-18l-31.5 -7t-46.5 -11.5t-46 -12t-30 -8.5q-4 -1 -9 -3.5t-9.5 -5.5t-7.5 -6t-3 -4v-173h-38v153h-8t-20 -0.5t-25.5 -1.5t-23.5 -1.5t-15 -1t1 -0.5z M317 379q-40 0 -61.5 -10.5t-30.5 -31t-10 -49t-1 -63.5q3 0 12.5 0.5t20 1.5t19.5 1.5t13 1.5t10.5 3.5t12.5 6t10.5 6t4.5 4.5v129z" />
<glyph unicode="$" horiz-adv-x="480" d="M266 25q-28 2 -66 4t-75 8.5t-69.5 21.5t-48.5 43l19 19q27 -26 53.5 -33.5t53.5 -5.5t56.5 7.5t64.5 5.5q0 3 0.5 9.5l1 13t0.5 13v9.5q0 10 -3 34.5t-6 52t-6 52.5t-4 34q-2 16 -17 20.5t-36.5 5.5t-46 1.5t-45 7t-34.5 22.5t-14 48q0 41 16 68.5t38.5 48.5t48 39 t44 39.5t27 49.5t-2.5 70q19 12 24 12t6.5 -12t4.5 -37.5t16 -63.5q12 -6 33.5 -14t42.5 -16.5t36 -18t15 -19.5q0 -13 -3 -23.5t-18 -16.5q-10 14 -21 21.5t-22.5 10.5t-25 2.5t-27.5 -0.5v-168q38 1 73 -8t61.5 -28.5t42.5 -51t16 -75.5q0 -26 -16 -57t-40.5 -58t-53 -46 t-54.5 -22v-134h-39v115zM290 345q0 -63 4 -122.5t20 -120.5q2 -1 5 -1.5t5 -0.5q15 0 32.5 17t33.5 39.5t26.5 45t12.5 34.5q4 30 -9.5 50.5t-35 34t-47.5 19t-47 5.5zM83 418q0 -11 5.5 -20t13 -15.5t18 -9.5t19.5 -3q18 0 32.5 1t25.5 6t17 16t6 30t-1.5 35.5t-3.5 33 t-6 34t-10 37.5q-4 -3 -14 -11.5t-23 -20t-27 -25.5t-25.5 -29t-19 -30t-7.5 -29z" />
<glyph unicode="%" horiz-adv-x="350" d="M283 595h37l-271 -588l-35 12zM245 154q0 3 7.5 10t11.5 8q21 6 31.5 -3t12.5 -22.5t-3 -26.5t-14 -16.5t-21.5 6.5t-24.5 44zM52 509q0 8 0.5 16.5t3.5 15.5t9 11.5t17 4.5q18 0 24.5 -12.5t6.5 -27.5q0 -21 -8 -32.5t-33 -24.5q-9 3 -13 8.5t-5.5 12t-1.5 14v14.5z" />
<glyph unicode="&#x26;" horiz-adv-x="509" d="M418 117q-39 -57 -95 -87t-124 -30q-36 0 -66 7.5t-52.5 24.5t-35 45t-12.5 69q0 25 9 57t23.5 64t34 59t41.5 41q-28 96 -28 162.5t17 109.5t46 64.5t59 28.5q26 0 49 -10t40.5 -28t27 -40.5t9.5 -47.5q0 -38 -14.5 -75t-37.5 -70t-50 -62t-53 -52q-1 -2 -1 -9.5v-9.5 q0 -27 15 -60t38 -62t51 -48t54 -19q0 31 -1 59t-12 48.5t-35 32t-70 10.5v20q0 5 19.5 9t46 6t52 3t39.5 1q4 0 13 0.5t17.5 -0.5t15 -5t8.5 -14l58 -461l-32 -32zM91 78q21 -26 55 -36.5t70.5 -6.5t70.5 20t54 42q-27 12 -57 38.5t-56.5 56.5t-47.5 57.5t-31 39.5 q-27 -20 -39.5 -44t-17 -51t-3.5 -56t2 -60zM418 232v57h-39zM166 519v-30.5t2 -28t6 -27.5t13 -28q18 14 42 35t44.5 46.5t35 53.5t14.5 56q0 12 -5 29t-14.5 32t-22 26t-25.5 11q-33 0 -51.5 -19t-27 -46t-10 -57.5t-1.5 -52.5z" />
<glyph unicode="'" horiz-adv-x="91" d="M14 691q0 5 8 12t12 7q25 -16 32 -42.5t7 -54.5q0 -6 0.5 -14.5t-0.5 -17t-5.5 -15.5t-14.5 -10q-8 3 -15 22t-12.5 42t-8.5 44t-3 27z" />
<glyph unicode="(" horiz-adv-x="226" d="M4 241q0 30 3.5 71.5t11.5 88.5t21.5 95.5t32.5 93t45 81t60 59.5q2 1 9 3.5t9 2.5v-26q-27 -46 -48 -85t-36 -75t-25 -69.5t-16 -70t-8 -77.5t-2 -92q0 -38 6 -74.5t13.5 -72t14 -71.5t6.5 -73q0 -9 -3.5 -15t-15.5 -12q-15 35 -29 74.5t-25 80.5t-17.5 82.5t-6.5 80.5z " />
<glyph unicode=")" horiz-adv-x="230" d="M81 -86q0 10 4 16t15 12q21 50 33.5 88t18.5 72.5t7.5 70t1.5 82.5q0 67 -6 130.5t-23 123t-47.5 115t-80.5 106.5q0 4 8 11t12 7q2 0 7.5 -2t12 -4.5t12 -6t6.5 -5.5q45 -51 72 -105.5t41.5 -112.5t19 -119.5t4.5 -125.5v-58.5t-1.5 -71t-6.5 -75.5t-16 -72t-29 -62 t-46 -44q-11 6 -15 12.5t-4 17.5z" />
<glyph unicode="*" horiz-adv-x="235" d="M125 288q-3 -6 -9.5 -14t-15.5 -15.5t-19.5 -12.5t-19.5 -5q0 13 -1.5 32t-6 37t-15 33t-28.5 21q21 4 34 10.5t21 13.5t12.5 15.5t10.5 18t14 19.5t23 19q14 -4 19.5 -12t6.5 -17.5t1 -18.5t4 -16.5t14.5 -12.5t34.5 -5q0 -2 -1.5 -6.5t-1.5 -7.5q-1 -1 -4 -6.5 t-6.5 -12t-6 -12t-2.5 -7.5t3 -10.5t6.5 -18t6.5 -18t3 -11.5v-7.5v-10.5v-10.5v-9.5z" />
<glyph unicode="+" horiz-adv-x="317" d="M7 319l118 7v120q19 6 31.5 3.5t19.5 -11t9.5 -22t3 -28t-1.5 -28.5t-4 -23h115v-30q-34 -3 -60.5 -7.5t-44.5 -18t-25.5 -39t-4.5 -70.5l-9 -0.5t-19.5 -1t-19 -1l-8.5 -0.5q-1 21 3.5 36.5t8.5 27.5t4.5 20.5t-9.5 13.5t-33 7.5t-66 2.5z" />
<glyph unicode="," horiz-adv-x="120" d="M55 1q-1 3 -6 9.5t-11 12.5t-12.5 11t-9.5 6q6 12 12 16t16 4q28 0 40 -12t12 -37q0 -31 -13 -50t-48 -36q-1 2 -1 9v10v10.5t1 8.5q0 2 3.5 7.5t7 12t6.5 12t3 6.5z" />
<glyph unicode="-" horiz-adv-x="389" d="M34 230q0 1 22.5 4.5t57.5 7.5t79 8t89 8q4 0 16 0.5t24.5 1t24 1t16.5 0.5q0 -13 -5.5 -24t-17.5 -17q-24 -3 -60 -6.5t-74 -7.5t-74 -8t-60 -6q-2 0 -9.5 -0.5t-11.5 -0.5q-13 0 -22 2t-15 18z" />
<glyph unicode="." horiz-adv-x="148" d="M32 38q-4 15 0.5 23.5t12.5 12.5t18 4.5t18 0.5q7 0 17 -0.5t18 -4.5t12 -12.5t0 -23.5q-1 -7 -6 -13.5t-11.5 -12.5t-14.5 -10t-15 -4q-8 0 -16 4t-15 10t-11.5 12.5t-6.5 13.5z" />
<glyph unicode="/" horiz-adv-x="216" d="M158 538q2 6 5 13.5t7.5 10t10.5 -2t15 -21.5l-162 -549l-30 30z" />
<glyph unicode="0" horiz-adv-x="413" d="M35 249q0 19 1.5 45t6 54t13 55t22.5 49t34 35.5t48 13.5q57 0 100 -21.5t71 -58t42 -84.5t14 -101q0 -22 -4 -48t-13 -52.5t-22.5 -51t-31.5 -43.5t-42 -30.5t-53 -11.5q-54 0 -89.5 23.5t-57 59.5t-30.5 80.5t-9 86.5zM75 269q0 -39 2 -77t14.5 -68t38 -49t72.5 -19 q40 0 68 14.5t45.5 39t25 58t7.5 71.5q-5 70 -29 117t-57 71t-69 26t-65 -18t-45 -61.5t-8 -104.5z" />
<glyph unicode="1" horiz-adv-x="388" d="M28 37q19 4 29 5.5t16.5 2.5t11.5 1t13 1t21.5 3t38.5 8q9 27 14 62.5t8 76t4.5 83.5t2.5 85t3 81.5t6 71.5q-1 0 -4.5 0.5t-4.5 0.5q-21 0 -40.5 -9t-38.5 -19.5t-38.5 -19.5t-41.5 -9l-4 37q1 0 13 6t30.5 13.5t42 17t46.5 18t43.5 15.5t35.5 10v-503q9 -9 26.5 -10.5 t37 -0.5l39 2t33.5 -2l-1 -41q-41 0 -81 -4t-79.5 -8.5t-79 -8.5t-78.5 -4q-11 0 -14 12t-10 26z" />
<glyph unicode="2" horiz-adv-x="484" d="M187 58q-27 -15 -49 -18t-50 -3q-11 0 -24.5 1.5t-25 7t-19 15t-7.5 26.5q0 10 20 14t50.5 9.5t66 16.5t66 35.5t51 67.5t20.5 111q0 29 -5 60.5t-18 57.5t-36.5 43.5t-60.5 17.5q-15 0 -27 -7t-22 -16.5t-19 -21.5t-19.5 -22t-23 -16.5t-30.5 -6.5q0 27 12.5 50.5t33 41 t46 27.5t51.5 10q40 0 72.5 -20t55 -51t34.5 -68.5t12 -73.5q0 -35 -10 -69t-26.5 -66t-37 -61t-42.5 -54q22 -19 51.5 -30t60.5 -17t61.5 -8.5t56.5 -2.5q1 -1 1.5 -4.5t0.5 -4.5q0 -11 -8 -17.5t-19 -9.5t-23 -3.5t-20 -0.5q-27 0 -51 5t-48 13.5t-49 19t-53 22.5zM130 76 q2 5 -4.5 7t-14.5 2t-15 -2t-5 -7q3 -4 8.5 -6t11.5 -2t11 2t8 6z" />
<glyph unicode="3" horiz-adv-x="413" d="M49 60q17 0 33.5 -3.5t33 -8t33.5 -8t35 -3.5q33 0 64.5 10.5t55.5 30.5t38 49t14 66q0 26 -12 47.5t-31.5 36.5t-43.5 23.5t-47 8.5h-10.5t-12.5 -0.5t-10.5 -1t-5.5 -0.5q-2 0 -10.5 -3t-18 -6.5t-18.5 -6.5t-11 -3t-5 2t-6.5 5t-5.5 6.5t-2 5.5q6 6 23 22.5t35.5 34.5 t34.5 34.5t22 23.5q4 5 10.5 14t12.5 18t10.5 16.5t4.5 9.5q-6 32 -22.5 42t-39 7t-48 -16.5t-49.5 -29t-44.5 -29t-32.5 -18.5q0 33 20.5 59t50.5 44.5t65 28t64 9.5q14 0 27 -8.5t24 -21.5t17.5 -28.5t6.5 -28.5q0 -16 -5.5 -33.5t-13.5 -34t-18.5 -31.5t-19.5 -27 q26 -8 53.5 -22.5t49.5 -35t36 -47t14 -57.5q0 -43 -14.5 -80.5t-40.5 -65t-62 -43t-78 -15.5q-11 0 -35.5 0.5t-50 4.5t-45 12t-19.5 23v22z" />
<glyph unicode="4" horiz-adv-x="442" d="M235 384q-3 0 -12 0.5t-12 0.5q-24 0 -49 -4t-49.5 -8l-49 -8t-50.5 -4q0 40 4 79t9 78.5t8.5 79t3.5 78.5q4 0 10 -2t11 -5.5t9 -8t4 -8.5v-225q1 0 13 -1.5t29 -2.5t36.5 -1.5t36 1.5t28 6t11.5 13v215q3 0 11.5 -2t16.5 -5.5t14 -7.5t6 -8v-183h150q-3 -11 -5 -21 q-1 -8 -3 -16t-4 -11q-20 -6 -44.5 -7.5t-45.5 -2t-35.5 0t-15.5 0.5l3 -375h-39v365z" />
<glyph unicode="5" horiz-adv-x="422" d="M58 76q36 -12 74.5 -25.5t78.5 -13.5q24 0 51 10t49.5 27t38 40t15.5 49q0 30 -15 54t-38 40.5t-51.5 25.5t-55.5 9q-22 0 -42.5 -8.5t-40.5 -17t-40.5 -14.5t-43.5 -2q-5 27 -9 48.5t-6 42t-3 40t-1 43.5q0 45 16.5 68.5t43.5 34.5t61.5 12.5t70.5 1.5q6 0 18.5 -0.5 l25 -1t22 -1t11.5 -0.5l12 -34q-26 -1 -57.5 -1t-62 -2t-58.5 -6.5t-46 -14.5v-173q31 18 62 19.5t64 1.5q35 0 71 -10.5t65 -31.5t48 -51.5t19 -71.5q0 -30 -16 -59t-41.5 -52.5t-56.5 -38t-60 -14.5q-23 0 -52.5 0.5t-58.5 5.5t-51.5 17t-30.5 36z" />
<glyph unicode="6" horiz-adv-x="437" d="M13 203q3 31 12 79t23.5 99t34.5 97.5t45 74.5l40 -35q-18 -17 -34 -43t-29 -56t-22.5 -61.5t-16.5 -61t-10.5 -54.5t-3.5 -40q0 -5 3 -25t9 -43t15 -41t22 -18q1 0 4.5 0.5t4.5 0.5q11 32 25 63.5t33.5 56t46 40.5t63.5 16q24 0 49 -4t45 -14.5t33 -30t13 -49.5 q0 -48 -20.5 -79t-54 -49t-77 -24t-89.5 -3q-40 0 -70.5 19t-51 48t-31.5 65.5t-11 71.5zM289 214q-36 0 -59 -15t-36 -38.5t-18.5 -54t-5.5 -61.5q14 0 35.5 2t45 7t46 13.5t41 20.5t30 28.5t11.5 37.5q0 20 -9 32t-22.5 18.5t-29.5 8t-29 1.5z" />
<glyph unicode="7" horiz-adv-x="567" d="M340 190q-33 0 -59.5 -5t-59.5 -13l-12 39l128 39l2 13.5t5.5 34.5t7.5 48.5l8 55t8 53.5t7 44q1 3 -0.5 7t-1.5 5q-12 0 -41.5 1.5t-63 3t-63.5 2.5t-42 0q-21 -1 -46 -3.5t-43 -12.5t-23.5 -31.5t10.5 -61.5l-3.5 -1.5t-7.5 -3t-7.5 -3l-3.5 -1.5q-13 0 -19.5 12.5 t-9 29.5t-2.5 34v25q0 3 -0.5 12t1 18.5t6 17t14.5 7.5h406q0 -39 -5.5 -76.5t-11.5 -75t-11 -76.5t-5 -78h145v-20l-172 -38v-192q-25 -8 -34.5 10t-9.5 49t3.5 67t5.5 64z" />
<glyph unicode="8" horiz-adv-x="388" d="M94 118q0 22 6.5 42.5t14 39.5t14 38t6.5 41q0 1 -0.5 4t-0.5 5q-5 4 -24 19.5t-39 36.5t-36 44.5t-16 42.5q0 33 13.5 57t36 40t50 23.5t56.5 7.5q9 0 24 -3.5t32 -10.5t33.5 -16.5t28.5 -20.5t16.5 -23.5t-2.5 -24.5l-77 -134l10 -8t25 -20.5t33 -28t33 -31t25.5 -30 t10.5 -23.5q0 -37 -17.5 -71t-45 -60t-62 -41t-70.5 -15q-27 0 -42.5 10t-23.5 26.5t-10 38t-2 45.5zM133 118v-36t4.5 -25t15 -15t31.5 -5t46.5 12t46.5 32t36 44t15 47q0 22 -9 40t-24 31t-34.5 20t-40.5 7q-27 0 -44 -15.5t-26.5 -38.5t-13 -49.5t-3.5 -48.5zM57 430 q0 -12 11.5 -27t28 -27.5t35 -21.5t31.5 -9q16 0 32 16t28 37.5t20 42.5t8 30q0 18 -9.5 28t-23 15t-28.5 6t-27 1q-18 0 -37.5 -5.5t-34.5 -17t-24.5 -28.5t-9.5 -40z" />
<glyph unicode="9" horiz-adv-x="360" d="M245 326q-19 -19 -35.5 -31t-33 -18.5t-34.5 -9t-41 -2.5q-18 0 -33.5 3t-28 10.5t-19.5 21t-7 33.5q0 34 11 64t31.5 53.5t49 37t63.5 13.5q13 0 36 -2.5t45 -9.5t38.5 -18t14.5 -29q7 -96 13.5 -195.5t6.5 -197.5v-10.5v-15v-14.5v-9q-24 -8 -34.5 7.5t-13 44.5 t-0.5 67.5t1 77t-6.5 73t-23.5 56.5zM52 335q0 -10 5 -16t12.5 -9t16 -3.5t16.5 -0.5q19 0 34 3t28.5 9.5t28.5 18t33 27.5v7t0.5 8.5t1 8.5t0.5 6q0 33 -19 51t-51 18q-23 0 -42.5 -12t-33.5 -30.5t-22 -41.5t-8 -44z" />
<glyph unicode=":" horiz-adv-x="157" d="M65 115q0 15 7 27t24 12t24 -12.5t7 -27.5q0 -17 -7.5 -27.5t-33.5 -10.5q-8 0 -12 4.5t-6 10.5t-2.5 13t-0.5 11zM27 355q0 9 4 15t13 8t24 -1t37 -13q-10 -15 -20.5 -27t-26.5 -12q-13 0 -22 9t-9 21z" />
<glyph unicode=";" horiz-adv-x="133" d="M82 -77q0 3 -3 14.5t-6.5 24t-6.5 24t-4 14.5q-1 2 -1 12v12q15 0 27 -9.5t19 -23.5t10.5 -30t3.5 -29q0 -12 -5 -24t-13.5 -22.5t-19.5 -17.5t-24 -7q0 2 1 11.5t2 11.5t4 7.5t6.5 12t6.5 12t3 7.5zM22 231q0 21 8 32.5t32 24.5q9 -2 13.5 -8t6.5 -13.5t2 -15v-13.5 q0 -10 -0.5 -18.5t-4.5 -14.5t-12.5 -9.5t-23.5 -3.5q-8 0 -12 4.5t-6 11t-2.5 12.5t-0.5 11z" />
<glyph unicode="&#x3c;" horiz-adv-x="360" d="M32 163q0 2 0.5 5.5t1.5 3.5l211 288h23q0 -24 -10.5 -51t-27 -53.5t-37.5 -51.5t-40.5 -46.5t-36 -38.5t-25.5 -27v-38q9 -3 25.5 -10.5t37.5 -17t43.5 -19.5t43.5 -20t37.5 -18t23.5 -11q3 -2 9 -7t12 -11t11.5 -12t6.5 -9q-6 -12 -12 -16t-16 -4q-8 0 -32 11t-55 27.5 t-65 36t-62.5 38t-47.5 32.5t-19 19z" />
<glyph unicode="=" horiz-adv-x="350" d="M55 130q10 3 33.5 6t52 6t60 4.5t58 2t45 -1.5t22.5 -8v-24l-15 -0.5t-39 -1t-54.5 -1.5t-60 -2t-56 -3.5t-43.5 -4.5q-1 0 -1 4.5v9.5t-0.5 9.5t-1.5 4.5zM51 235q25 3 57.5 7.5t67 7.5t69.5 5t68 2v-40l-262 -11v29z" />
<glyph unicode="&#x3e;" horiz-adv-x="326" d="M259 268l-230 192v58q8 -7 24.5 -20.5t37.5 -30.5t43.5 -36t43.5 -35.5t37.5 -30t25.5 -19.5q9 -7 22 -12.5t25.5 -13t21.5 -17t9 -24.5q0 -2 -0.5 -5.5t-1.5 -5.5q-7 -9 -20 -28.5t-30 -44t-36 -52t-36 -52t-30.5 -44t-19.5 -28.5q-9 -11 -17 -17.5t-22 -6.5v43z" />
<glyph unicode="?" horiz-adv-x="322" d="M153 29q0 11 4 17t15 12q12 -6 16.5 -12t4.5 -17t-4.5 -17t-16.5 -12q-11 6 -15 12t-4 17zM114 298q0 22 11.5 37t29 26.5t38 21.5t37.5 21.5t29 27.5t12 39q0 16 -11 26t-26.5 15t-32.5 6.5t-28 1.5q-21 0 -40 -9t-37 -21t-34.5 -21t-32.5 -9q-11 0 -17 4.5t-12 15.5 q13 20 31 34.5t39 24.5t44 15t46 5q18 0 43 -4.5t48.5 -15t40 -27t16.5 -41.5q0 -26 -17 -54t-39.5 -53t-47.5 -45t-41 -31v-90q-18 0 -28 11t-14.5 26.5t-5.5 33t-1 29.5z" />
<glyph unicode="@" horiz-adv-x="706" d="M19 256q0 52 14.5 101t40.5 93.5t62.5 81.5t80 64t93 42t102.5 15q33 0 67.5 -8t66 -23t58.5 -37t45 -49.5t25.5 -61t1.5 -71.5q0 -42 -12.5 -73.5t-29.5 -60t-33.5 -55.5t-24.5 -60q-1 -3 1 -9t5 -12t6.5 -11.5t6.5 -6.5q-28 -34 -56 -56.5t-58.5 -36t-65.5 -19 t-78 -5.5q-59 0 -116 14.5t-102 45.5t-72.5 80t-27.5 118zM73 268q-3 -62 18.5 -106t60 -70t89 -35t102.5 -2h51.5t54.5 5.5t50.5 18t38.5 36.5q-7 -2 -23 -3t-34.5 -1t-35 1t-23.5 3q-4 1 -14.5 10t-23 19.5t-24 19t-14.5 8.5q-5 0 -22 -5t-36.5 -12t-36 -13.5t-21.5 -7.5 q-16 -4 -29.5 6t-24 26t-16.5 34.5t-6 29.5q0 32 13.5 72t36.5 75t54.5 59.5t67.5 24.5q24 0 42 -9.5t30.5 -25.5t18.5 -36.5t6 -43.5q0 -18 -3 -34.5t-7 -33.5t-7 -34.5t-3 -34.5q0 -10 3 -20t9 -18t15 -13t20 -5q51 0 86 24t57.5 60.5t32 81t9.5 85.5q0 50 -16 89 t-45.5 66.5t-70.5 42t-92 14.5q-73 0 -135 -29t-107 -77.5t-70.5 -111t-25.5 -130.5zM372 409q-50 0 -83 -17.5t-52.5 -47.5t-28 -71t-8.5 -86q54 0 88 16.5t52.5 46t25 70.5t6.5 89z" />
<glyph unicode="A" horiz-adv-x="398" d="M180 623q37 0 64.5 -21.5t48 -57.5t34.5 -83t23 -98.5t14 -104t7 -98.5t2.5 -83t0.5 -58h-24l-38 211q-5 5 -22.5 6t-41 -1t-51 -5.5t-52 -5t-44.5 -1t-29 6.5v-211h-51q0 3 0.5 11.5t0.5 17.5t1 17t1 11q6 58 9.5 117.5t8.5 115.5t13.5 107t24.5 92.5t40 71t60 43.5z M196 577q-26 0 -43.5 -18.5t-28.5 -48t-17 -65.5t-8 -70.5t-2.5 -64t-0.5 -45.5q49 0 100 7.5t96 15.5q1 4 1.5 13t1 20t1 21t0.5 13q0 33 -3.5 63t-14 58.5t-30 53.5t-52.5 47z" />
<glyph unicode="B" horiz-adv-x="490" d="M49 499q-4 1 -9.5 6t-10 11t-7.5 12t-3 10q3 33 24.5 49.5t49.5 22.5t58 6h51q35 0 64.5 -3.5t51.5 -16t35 -35.5t13 -63q0 -20 -1.5 -35.5t-5.5 -30t-12 -31t-21 -37.5q41 -13 68 -24.5t42 -28t20.5 -40t5.5 -60.5q0 -44 -19 -83t-50.5 -68t-73.5 -45.5t-89 -16.5 q-10 0 -27 3.5t-37 9t-41 13t-38 16.5t-27.5 18t-10.5 18v423zM115 268q2 -24 -2 -50t-7 -50t-2 -45.5t12 -38.5t36 -29.5t69 -17.5q37 0 73.5 13.5t65 37t46.5 56t18 71.5q0 26 -9 44t-24 29.5t-35.5 16.5t-43.5 5q-29 0 -52 -1.5t-45.5 -6t-46 -13t-53.5 -21.5zM95 372 q0 -8 1 -16.5t3.5 -15t8.5 -11t16 -4.5q34 0 70 13t65.5 36t49 54.5t19.5 70.5q0 4 -2 11.5t-9 15.5t-21 15.5t-37.5 12.5t-58.5 6t-85 -4q-2 -2 -4.5 -13t-5 -27.5t-4 -36l-3 -39t-2.5 -37.5t-1 -31z" />
<glyph unicode="C" horiz-adv-x="436" d="M13 259q0 31 6.5 69.5t19.5 78t32.5 77t45 67t58 47.5t71.5 18q28 0 47.5 -11t31.5 -29t17.5 -40.5t5.5 -45.5q-22 0 -33 13.5t-20.5 30t-22 30t-37.5 13.5q-33 0 -58.5 -18t-44.5 -46.5t-31.5 -64.5t-20 -72t-10.5 -69.5t-3 -56.5q-4 -34 -0.5 -70.5t16.5 -67t38 -51 t66 -23.5q26 0 58 8.5t63.5 20t60.5 25t49 23.5v-39q-1 0 -12.5 -4.5t-30 -11.5t-42 -15t-46.5 -16.5t-44.5 -16t-36.5 -12.5q-1 0 -4 -0.5t-5 -0.5q-55 0 -90.5 23.5t-56.5 61t-29 84t-8 91.5z" />
<glyph unicode="D" horiz-adv-x="538" d="M38 499q-2 2 -5 7t-6 11.5t-5.5 12t-2.5 8.5q0 9 8 14t18 6t19.5 1h11.5q3 0 8.5 -0.5t12 -1t11.5 -1t7 -0.5q33 -12 75.5 -28t87.5 -37t88 -47.5t77 -60t55 -73.5t21 -89q0 -42 -16 -75.5t-42.5 -58t-61.5 -42t-71.5 -28t-73.5 -15.5t-69 -5q-7 0 -24 0.5t-35 1.5 t-32.5 1.5t-15.5 0.5l-2 37zM95 504v-8t0.5 -13.5t0.5 -13.5v-9q1 -15 2.5 -48t3 -75t4 -87.5t4.5 -87t3.5 -75t1.5 -49.5q6 0 19.5 -0.5t28.5 -1t28.5 -1t19.5 -0.5q46 0 91 11.5t80.5 35t58 61t22.5 90.5q0 39 -18 74.5t-47.5 65.5t-67.5 54t-78.5 41.5t-81 26.5t-75.5 9z " />
<glyph unicode="E" horiz-adv-x="504" d="M14 538q16 23 42.5 39.5t59 27.5t70 17t73.5 9t70 4t60 1q2 0 9 -0.5t15 -1t14.5 -0.5h9.5q4 -22 -4.5 -30.5t-22 -10t-28.5 1t-22 0.5q-10 -1 -31.5 -5.5t-47.5 -10t-55.5 -12t-56 -12t-47.5 -10.5t-31 -7q-16 -6 -18 -15t-2 -21q0 -21 2.5 -47t6 -51.5t7 -46.5t4.5 -31 q4 -1 15 -1h15q23 0 45 4t44 9t45 8.5t47 3.5v-37q-10 0 -28 -1.5t-39.5 -5.5t-43.5 -8.5t-40 -9.5t-29.5 -10t-11.5 -10v-208q47 0 93.5 3t93.5 6.5t94 6.5t94 3q0 -12 -8 -19.5t-18.5 -12t-22.5 -6.5l-18 -3q-4 -1 -25 -3t-52 -6t-69 -8t-75 -8t-70 -7.5t-55 -5.5 q-3 -1 -9 -1q0 134 -8.5 270.5t-40.5 268.5z" />
<glyph unicode="F" horiz-adv-x="412" d="M34 518q-3 1 -7 6t-7 11t-5 12t-1 9q1 4 6 10t11 12.5t12 11.5t10 5q12 3 37.5 9.5t57.5 14.5t67.5 16t68 15.5t58 13.5t37.5 8q5 1 16.5 2t24.5 2t24.5 2t15.5 1q0 -19 -4.5 -27.5t-13 -11.5t-19.5 -3t-25 -3q-10 -3 -33 -9t-51 -13.5t-59.5 -15.5t-60 -16t-51 -14.5 t-33.5 -9.5q-15 -17 -17 -31t-2 -33q0 -43 5.5 -81.5t13.5 -84.5q2 0 5.5 -0.5t5.5 -0.5q27 0 52.5 6.5t51 14.5t52 14.5t54.5 6.5q4 0 13.5 -0.5t18.5 -3t14 -6.5t2 -11l-258 -78v-274q-18 0 -28 4.5t-14 13t-5 20t-2 26.5q-2 17 -5 53t-6.5 81.5t-7.5 95.5t-8 95.5 t-7 81.5t-4 53z" />
<glyph unicode="G" horiz-adv-x="562" d="M480 66q-39 -20 -69 -32t-58 -18.5t-56.5 -8.5t-65.5 -2q-49 0 -88 11.5t-66.5 35t-42.5 60t-15 88.5q0 47 9.5 99t28 103.5t46 99t64.5 83.5t83 57.5t102 21.5q21 0 50 -4.5t55.5 -15t44.5 -30t18 -49.5q0 -11 -10.5 -10.5t-26 7.5t-35 18t-37.5 21t-33 17t-23 5 q-48 0 -87 -18.5t-70.5 -49.5t-55 -71.5t-39 -84.5t-23 -87.5t-7.5 -82.5q-7 -47 5.5 -81.5t37.5 -57t60 -33.5t72.5 -12.5t74.5 7t67.5 25.5t50 42t22.5 56q0 32 -12.5 54t-33 37t-47 24t-54 14t-55 7t-50.5 5v18q0 2 26.5 7t63 11t75.5 12t66 9l5 0.5t11 0.5h12h10h7.5 h11.5t11.5 -0.5t7.5 -0.5q1 -14 2.5 -44.5t3.5 -68t4 -79.5t4 -79.5t3.5 -67.5t2.5 -45v-15t0.5 -23.5t0.5 -23v-15.5h-21zM480 277v61q-15 0 -31 -7.5t-27 -14.5z" />
<glyph unicode="H" horiz-adv-x="386" d="M22 201q0 72 0.5 136t3 126.5t6.5 127t11 139.5h29v-384h218q-1 36 -1 77.5t-1 84t-1.5 83t-0.5 76.5v63v42q3 0 10.5 -1.5t15 -4t13.5 -7t6 -11.5v-749l-31 6q-2 0 -3 13t-1.5 32.5t-1 45t-1 50t-1 46.5t-0.5 37v38t-1 55l-219 -39l-2 -285h-48v14v32.5v43v45.5v40v28z " />
<glyph unicode="I" horiz-adv-x="100" d="M14 703q0 12 8.5 19.5t20.5 7.5h5h5q5 -84 9 -159.5t6.5 -148.5t3.5 -145.5t1 -151.5q0 -11 1.5 -30t3 -37t3 -32.5t1.5 -15.5l-43 -8q-2 41 -4 94.5t-3.5 114t-3 125t-4 127.5t-5 121.5t-5.5 106.5v12z" />
<glyph unicode="J" horiz-adv-x="451" d="M19 154q0 13 1.5 23t17.5 15q17 -7 25 -21.5t13.5 -32.5t10 -37t13.5 -34t26 -23.5t46 -5.5q52 5 88 18.5t59.5 33.5t37 47t20 60t8 71.5t1.5 82.5q0 45 -6.5 89t-14 87.5t-14 87t-6.5 87.5q0 5 0.5 8.5t5 5t12 0.5t21.5 -6q1 -1 4.5 -13.5t7.5 -31.5t8 -42t7.5 -46 t6.5 -43.5t4 -34.5q4 -60 10 -122t5 -120t-12.5 -107.5t-41.5 -85t-83 -54t-136 -12.5q-30 0 -56.5 13.5t-46 35.5t-31 50t-11.5 57z" />
<glyph unicode="K" horiz-adv-x="475" d="M33 582v28.5v43.5t0.5 43.5t0.5 28.5h27l1 -20.5t2.5 -55t3.5 -81t4.5 -99t5 -108t5 -108t4.5 -99.5t4 -82v-6.5t-0.5 -13t-1 -13.5t-0.5 -9q0 -9 -0.5 -14.5t-4 -9.5t-12 -6.5t-22.5 -4.5q-1 13 -3 52.5t-4.5 93.5t-4.5 117t-3.5 123t-2.5 113t1 87zM302 288 q-29 49 -60 67.5t-59.5 17.5t-52.5 -17t-39 -34v42l269 366h38l-211 -308q17 -4 41 -16.5t47 -28.5t41.5 -34.5t24.5 -35.5l96 -293q-6 0 -11.5 -2t-11 -3.5t-10 -0.5t-6.5 6z" />
<glyph unicode="L" horiz-adv-x="490" d="M62 672l38 -634q89 0 178.5 11.5t183.5 21.5l4 -33q-1 0 -18.5 -2.5t-46 -6t-64.5 -7.5l-72 -8t-69 -8t-57 -6q-1 0 -5 -0.5t-9 -0.5h-10h-8q-22 0 -36 23.5t-23 64t-13 93t-6 109.5t-1.5 115t0.5 109.5t-0.5 93.5t-3.5 65h38z" />
<glyph unicode="M" horiz-adv-x="480" d="M230 268h-38l-96 192v-441l-44 -6q-2 35 -3.5 88t-3 114.5t-2.5 126.5t-2 125t-2.5 110t-3.5 81q7 0 13.5 1t11.5 1.5t9 -1.5t7 -9l135 -304l115 288q2 5 7.5 8.5t12 6.5t13.5 4.5t12 1.5q1 0 1 -3t2 -21t6.5 -56.5t14.5 -109t25.5 -179t39.5 -267.5q-4 -9 -10.5 -12 t-12 -2t-10 4.5t-5.5 9.5l-76 537z" />
<glyph unicode="N" horiz-adv-x="533" d="M72 595q0 -3 -0.5 -13t-0.5 -20.5v-20v-12.5q0 -65 3 -130t7 -130.5t7 -131.5t3 -132l-36 2q-1 19 -3.5 53t-6 78.5t-7.5 95.5t-8.5 103.5t-7.5 103.5t-5.5 94.5t-3.5 77t0 51.5q0 12 9 20t21 8t27.5 -5.5t20.5 -14.5l360 -581q0 46 -2.5 99t-4.5 109t-2.5 112.5t2 110 t10 101.5t21.5 87q14 5 22 5.5t12 -0.5t4.5 -5t0.5 -8v-6v-5q-2 -6 -4.5 -22t-6.5 -47.5t-7 -81.5t-6 -124t-4.5 -176t-0.5 -238l-29 -2z" />
<glyph unicode="O" horiz-adv-x="442" d="M18 332q0 33 4.5 70t15 72.5t27 68t40 57t55 39t71.5 14.5q35 0 62 -19.5t47 -51t33 -71.5t21.5 -80.5t11.5 -78t3 -64.5q-4 -59 -17 -108.5t-35.5 -87t-55.5 -61.5t-80 -32q-45 0 -77 16t-55 42t-37 60t-21.5 71t-10 74.5t-2.5 69.5zM56 332q0 -24 1 -54t5.5 -60.5 t13.5 -60t24.5 -52t39 -36.5t56.5 -14q48 -3 79 12t50 46t29 75t16 100q0 22 -2 55t-7.5 69t-15 72.5t-25 66t-37 47.5t-51.5 18q-31 0 -56 -14.5t-44.5 -38t-34 -53.5t-23.5 -61.5t-13.5 -62t-4.5 -54.5z" />
<glyph unicode="P" horiz-adv-x="388" d="M19 550q0 32 24.5 55.5t59.5 38t73 22t65 7.5t54.5 -9t48.5 -25.5t32.5 -42t7.5 -58.5q-5 -51 -33.5 -90t-70 -65.5t-90 -40t-93.5 -13.5q0 -37 3 -73.5t6.5 -73.5t6.5 -73.5t3 -73.5q0 -11 -2 -20.5t-18 -14.5l-20 19q0 1 -3 28t-8.5 70t-12 97.5t-12.5 109.5t-11.5 106 t-9.5 88v5v9v10v8zM75 514q0 -21 0.5 -39t3 -35t6.5 -35t11 -41q31 5 74 19t82.5 38t66.5 55.5t27 70.5q0 21 -10 37.5t-25.5 27.5t-34.5 17t-37 6q-29 0 -58.5 -7t-53 -22t-38 -38t-14.5 -54z" />
<glyph unicode="Q" horiz-adv-x="538" d="M391 1q-45 -4 -89.5 -3.5t-85.5 8t-75.5 24t-60.5 43.5t-40.5 67.5t-14.5 97.5q0 35 8.5 79t25 90.5t40.5 91t55.5 79t69 55.5t81.5 21q30 0 58.5 -23t53 -58.5t44.5 -78.5t34.5 -85t22.5 -76t8 -51q0 -37 -5.5 -69t-17.5 -61.5t-30.5 -57t-43.5 -55.5q4 -6 12.5 -22.5 t17.5 -35t17 -34.5t11 -23q1 -2 2 -9.5t1 -9.5h-42zM64 238q0 -45 15.5 -82.5t43 -63.5t64.5 -40.5t80 -14.5h21t28.5 2t26 8.5t11.5 19.5q0 29 -14.5 52t-32 44.5t-32 42t-14.5 44.5h34l115 -153q21 15 35.5 36.5t24 46t13.5 50.5t4 50q0 42 -10.5 82.5t-27.5 76.5 t-37.5 66.5t-40 54t-35 37.5t-22.5 18q-61 -15 -107.5 -53.5t-78.5 -90t-48 -112.5t-16 -121z" />
<glyph unicode="R" d="M425 -2q-4 18 -10 47.5t-15.5 64t-23 69.5t-32.5 63.5t-43.5 46.5t-57.5 18q-13 0 -34 -2t-41 -6.5t-35 -12.5t-15 -19v-254q-4 0 -12 2t-16 5.5t-14 7.5t-6 9v499q-12 -2 -21 -10.5t-14.5 -20.5t-8.5 -24t-4 -22q-4 0 -11 4.5t-13 10.5t-10.5 12.5t-4.5 11.5 q0 25 15 48.5t39 43t53.5 35t59.5 26.5t57 17t46 6q28 0 53 -2t43.5 -11.5t29.5 -29.5t11 -54q0 -31 -11 -60.5t-28 -56.5t-38 -51.5t-42 -45.5q47 -29 76 -58.5t47 -59t27.5 -59t15 -60.5t11 -63t15.5 -65h-38zM257 634q-7 0 -19.5 -0.5t-28.5 -2.5t-31.5 -6t-29 -11 t-22 -16.5t-8.5 -23.5v-254q24 0 50 12t51.5 32.5t49.5 46t42 52.5t29 54t11 48q0 23 -7.5 36.5t-20.5 21t-30 9.5t-36 2z" />
<glyph unicode="S" horiz-adv-x="490" d="M53 76q5 12 15.5 15t22.5 -15q0 -2 9.5 -5.5t24 -8t34 -9t38.5 -8t37 -6t31 -2.5q34 0 62.5 14.5t49 37.5t31.5 52.5t11 60.5q0 9 -3 31.5t-10 45t-18.5 40.5t-27.5 18q-104 -12 -170.5 -9.5t-105.5 15.5t-54.5 35.5t-16.5 51.5q0 36 18 69.5t46 59.5t62.5 41.5 t68.5 15.5q28 0 58.5 -7t56.5 -21.5t42.5 -38t16.5 -56.5q-24 0 -44 13.5t-40 28.5t-42 28.5t-51 13.5q-24 0 -48.5 -12t-44 -31t-32 -42.5t-12.5 -48.5q0 -10 0.5 -21.5t4.5 -22t12.5 -17.5t24.5 -7h269q17 0 29.5 -10.5t21 -26.5t14 -36t9 -39t4.5 -35.5t1 -25.5 q0 -39 -11 -73.5t-33 -62t-55 -45t-76 -21.5q-21 -2 -54.5 1t-67.5 11.5t-64 24t-44 39.5z" />
<glyph unicode="T" horiz-adv-x="384" d="M3 543l16 52q1 1 15.5 2.5t38.5 4t54 5.5t61.5 6t62 6t56.5 6h9h20h21h13q24 0 33 -9t9 -39l-182 -21q-2 -63 2 -132t10 -139.5t11.5 -139.5t5.5 -132q0 -9 -5.5 -12.5t-13 -4.5t-15.5 0.5t-14 3.5q-3 13 -6 45t-6 75t-6 93l-6 100t-6 95.5t-5 80t-3.5 53.5t-2.5 14z" />
<glyph unicode="U" d="M398 250q-40 -101 -79 -156t-76 -73.5t-70 -4.5t-60.5 51.5t-47 94.5t-31 125t-12 142.5t11.5 146.5l39 -4q-11 -128 -2.5 -222.5t27.5 -157.5t44 -96t48 -38q34 0 60.5 18t47 47t35 66t23.5 75t13 73.5t4 61.5q0 34 -2 60.5t-6.5 52.5t-10 53.5t-12.5 63.5l49 36 q23 -145 39.5 -248.5t28.5 -173t19 -111t11.5 -65t6 -33t1.5 -15.5h-41z" />
<glyph unicode="V" horiz-adv-x="529" d="M14 652l30 30l321 -567l110 595h32l-109 -691l-24 -25z" />
<glyph unicode="W" horiz-adv-x="614" d="M293 360q-3 -11 -9.5 -35t-15 -54t-18 -63t-18.5 -63t-16 -53.5t-10 -33.5q-2 -10 -6 -21.5t-9 -17.5t-11 -3t-12 22l-154 692q3 0 10 1.5t10 1.5q20 0 26.5 -8.5t11.5 -33.5l115 -519l77 250q4 12 11.5 16t17.5 4q8 -8 23 -29.5t32.5 -50t36.5 -61t36.5 -61.5 t31.5 -52.5t22 -33.5q3 -5 10.5 -13.5t16.5 -17.5t18 -17t13 -10q-1 33 -3 78.5t-4 98.5t-2.5 110.5t2 114t8.5 109t16 96.5q2 7 5.5 10.5t8 4.5t12 0.5t16.5 -0.5q0 -11 -1 -26.5t-3 -44t-4 -76.5t-4.5 -124t-4.5 -185.5t-4 -261.5q-43 34 -80 76t-70 89.5t-64.5 97 t-63.5 97.5z" />
<glyph unicode="X" horiz-adv-x="490" d="M210 345l-192 307q16 6 31 1t26 -20q6 -8 18 -26t27.5 -40.5t32 -48t31.5 -48l27 -40.5l18 -27l115 249q28 7 38.5 2t9 -18.5t-12.5 -34t-26.5 -46t-32 -53t-30 -56t-20.5 -54t-3 -47.5q19 -34 47.5 -72t58.5 -77.5t58 -79.5t47 -79q1 -1 1 -3.5t-3.5 -5.5t-11.5 -6 t-24 -3l-202 281l-134 -426l-29 29z" />
<glyph unicode="Y" horiz-adv-x="454" d="M292 326q-15 22 -40.5 54t-54.5 69.5t-60 77.5t-57.5 77.5t-46.5 70t-29 55.5l20 18q37 -40 64.5 -73.5t49.5 -63t40 -56.5t37.5 -54.5t42.5 -56t54 -60.5q6 28 11.5 62.5t11.5 71.5t13 75.5t16 74t19.5 66.5t24.5 53q1 1 4.5 1h5.5q3 0 8.5 -1t10.5 -3.5t8 -6.5t1 -9 q-11 -23 -22.5 -62t-22 -87.5t-19.5 -105t-16.5 -114.5t-13.5 -115.5t-9 -107.5t-2.5 -91t4.5 -66q-2 -11 -3.5 -16.5t-6.5 -8.5t-15 -3.5t-28 -0.5v336z" />
<glyph unicode="Z" horiz-adv-x="658" d="M148 28v5t1 5l104 320l-159 -11l15 47l171 24l138 234h-11.5t-17.5 0.5t-17.5 0.5h-11.5q-39 0 -77.5 -3t-77.5 -7t-77.5 -7t-77.5 -3q-12 0 -21 2t-15 17l20 20l20.5 2t53.5 5.5t75 7.5t84.5 8.5t82 8t68.5 6.5q1 0 9.5 0.5t11.5 0.5h10t14 -2t11.5 -6t0.5 -12 l-123 -269h132q7 -16 2 -26t-17 -16t-30.5 -8.5t-38.5 -4.5t-39 -4t-33 -5q-19 -33 -38 -70t-35.5 -75t-29 -77.5t-19.5 -77.5q2 0 8 -0.5l12 -1t11.5 -0.5h7.5q49 0 96 8t94.5 17t95 17t98.5 8v-39q-56 0 -110 -10.5t-107.5 -23.5t-107 -23.5t-108.5 -10.5q-6 0 -15 1.5 t-16 5t-12 8.5t-5 14z" />
<glyph unicode="[" horiz-adv-x="298" d="M51 -72q-2 17 -3 55t-2 89t-2.5 111t-3 122t-3 122t-2.5 111t-2.5 89t-2.5 55v12q0 33 11.5 50.5t30.5 25.5t43.5 9t50.5 1q9 0 17 0.5t15.5 -1t13.5 -6t10 -13.5q1 -4 1.5 -9t2.5 -9q0 -6 2 -11h-134q-1 -19 -3.5 -54.5t-5.5 -83.5t-6 -104t-5.5 -116t-3.5 -119 t0.5 -113t6 -99t12.5 -76h154q11 0 15 -10t4 -18v-5.5v-4.5q-10 -2 -31 -5t-46 -6.5t-51.5 -6t-46.5 -2.5q-13 0 -22 1.5t-14 18.5z" />
<glyph unicode="\" horiz-adv-x="451" d="M43 652q4 -6 28.5 -39.5t71.5 -105.5t117.5 -187t166.5 -282l-19 -38l-416 652h51z" />
<glyph unicode="]" horiz-adv-x="346" d="M172 -24q7 -3 21 -2.5t29.5 3.5t28.5 7.5t17 10.5l0.5 4.5t1 11l1 13t0.5 10.5q0 5 -0.5 13.5t-1 17.5t-1 16.5t-0.5 9.5q-2 24 -5.5 61.5t-6.5 83.5t-7.5 96.5t-8 100t-7 95t-6 80.5t-5 57.5t-2.5 24.5l-20 57q-3 0 -15.5 0.5t-30 2t-39 3.5t-42 6.5t-37.5 11t-28 15.5 q18 16 35.5 17.5t40.5 1.5q21 0 38.5 -1t35 -3t37 -6t43.5 -9q3 -16 7 -50.5t9 -81.5t10 -102.5t10.5 -112.5t10.5 -113t9.5 -103t8 -81.5t4.5 -50.5q0 -1 0.5 -8.5t1 -17t0.5 -19v-14.5q0 -35 -5.5 -53.5t-21 -26.5t-42 -10t-68.5 -4v38z" />
<glyph unicode="^" horiz-adv-x="298" d="M154 676q-13 -17 -26 -31t-25 -27.5t-24.5 -27.5t-26.5 -31l-29 15l134 182q18 -18 31.5 -39t25.5 -44t24 -47t27 -48q0 -7 -3 -9.5t-8.5 -4t-12 -3t-14.5 -5.5q-13 22 -20.5 35t-13.5 24.5t-14.5 24.5t-24.5 36z" />
<glyph unicode="_" horiz-adv-x="451" d="M43 55l360 3v-39q-10 3 -36.5 2t-61.5 -2t-75 -3t-78 -1.5t-70 2.5t-51 9z" />
<glyph unicode="`" horiz-adv-x="253" d="M116 654q18 -18 27.5 -32.5t16.5 -29t15 -31.5t23 -41q0 -7 -3 -9.5t-8.5 -4t-12 -3t-14.5 -5.5q-13 22 -20 35t-13.5 24t-15 24.5t-23.5 36.5z" />
<glyph unicode="a" horiz-adv-x="346" d="M19 86q0 57 31.5 83t82.5 26q20 0 37.5 -1t33.5 -5t31.5 -12t32.5 -23q0 3 0.5 12.5t0.5 20.5v20.5v13.5q-1 18 -1 46.5t-4.5 58.5t-18 57t-43.5 41q-21 0 -39 -7t-36 -15t-36 -14.5t-39 -6.5q0 25 15.5 41.5t37.5 25.5t46 12t42 3q18 -3 33.5 -7t29 -16t25 -36.5 t20 -68.5t15 -111.5t10.5 -165.5q2 -13 -8.5 -22.5t-28.5 -16t-40.5 -11t-45.5 -6.5t-44 -3t-35 -1q-18 0 -36.5 6t-34 17.5t-25 28t-9.5 36.5zM149 156q-50 -14 -70 -33.5t-17.5 -37.5t23.5 -32.5t51 -19t65 5t67 37.5q-12 29 -24 44.5t-26 23.5t-31 10t-38 2z" />
<glyph unicode="b" horiz-adv-x="375" d="M53 652q4 -36 8.5 -79.5t7.5 -89t4 -91t-1 -85.5q16 14 29.5 24.5t27 18.5t27 12t31.5 4q36 0 66 -17.5t51 -46t32.5 -63t11.5 -67.5q-2 -56 -23 -89.5t-55.5 -51.5t-81 -21t-97.5 1v47q18 -16 33 -18.5t36 -2.5q33 0 60 10t46.5 28.5t30 44.5t10.5 57q0 27 -3 48 t-13.5 38t-30.5 32.5t-54 30.5q-2 1 -9 1.5t-10 0.5q-16 0 -32 -9.5t-29 -24t-22 -32t-13 -32.5q-2 -12 -5.5 -42.5t-8 -65.5t-7.5 -66t-5 -43l-31 6l-20 633h39z" />
<glyph unicode="c" horiz-adv-x="375" d="M19 171q0 37 12 82t35 83.5t57 64.5t79 26q23 3 37 -4.5t21.5 -23.5t10 -36.5t3 -42t0 -40t1.5 -30.5h-25q-1 6 -3.5 28.5t-8.5 46.5t-16.5 43t-29.5 19q-28 0 -52.5 -22t-42.5 -53t-29 -64t-11 -55q1 -25 7 -54.5t19.5 -53.5t35.5 -39t54 -9q24 0 46 10t43 21t42.5 21 t45.5 10q0 -26 -19 -45.5t-46.5 -31.5t-58 -18t-51.5 -6q-34 0 -62.5 14t-49.5 37.5t-32.5 55t-11.5 66.5z" />
<glyph unicode="d" horiz-adv-x="334" d="M3 145q0 27 9 59.5t26 60t41 45.5t56 18q24 0 42.5 -4.5t35 -15t31 -25t30.5 -33.5l-6 513q27 10 33.5 8t6.5 -17q0 -2 -0.5 -6t-0.5 -5q-1 -19 -1.5 -54t0 -81t1.5 -99.5t2 -108t2.5 -108t2 -99.5t0 -81.5t-1.5 -53.5q-11 -23 -30.5 -35t-42 -17.5t-46.5 -6.5t-45 -1 q-67 0 -106 39.5t-39 107.5zM43 172q0 -25 4 -49.5t14 -43.5t28 -30.5t46 -11.5h41t46 5.5t37 17.5t15 34q0 26 -7.5 59.5t-23 64t-39 52t-55.5 21.5q-21 0 -40 -11t-33.5 -28t-23.5 -38t-9 -42z" />
<glyph unicode="e" horiz-adv-x="337" d="M26 235q0 30 13 66.5t35.5 68t51 53t59.5 21.5q17 0 33.5 -7t32 -18.5t28 -26t19.5 -30.5t7.5 -31t-8.5 -26l-211 -39q-4 -1 -7 -9.5t-5 -21.5t-3.5 -28.5t-2.5 -30t-1 -26v-17.5q0 -28 13.5 -45.5t34.5 -26.5t47.5 -12t52.5 -3t49 2t38 2q0 -4 -3 -9t-7 -9.5t-8 -8 t-5 -4.5q-8 -2 -24.5 -5.5t-35 -6.5t-34.5 -5t-22 -2q-31 -6 -54 1t-39 24t-26 41.5t-15 52.5t-5.5 58t2.5 58zM171 406q-9 0 -23.5 -9.5t-27 -24t-21 -31t-5.5 -28.5q26 -3 54 1t51 12.5t38 20t14.5 23.5t-19 21.5t-61.5 14.5z" />
<glyph unicode="f" horiz-adv-x="373" d="M130 5q9 64 12 106t2.5 72.5t-1.5 54t0 49.5q-13 0 -28 -6t-31 -13.5t-31.5 -13.5t-28.5 -6q-5 0 -6.5 4t-2.5 10t-1.5 12.5t-3.5 13.5l135 58q-19 150 -13.5 250.5t29 162t62 90t85.5 35.5q37 0 70.5 -14.5t59 -39.5t41 -58t15.5 -70q-16 0 -29.5 10.5t-25.5 26.5 t-24 34.5t-26.5 34.5t-31.5 26.5t-40 10.5q-20 -4 -39.5 -16.5t-36 -35.5t-29.5 -58.5t-20 -87.5t-7.5 -122.5t8.5 -161.5l124 1q3 -13 3.5 -22.5t-14.5 -15.5q-11 -4 -28 -7.5t-34.5 -6t-32.5 -4t-21 -2.5q-1 -47 1 -89.5t3 -81t-0.5 -72t-10.5 -64.5h-5.5h-9.5h-9.5h-4.5 q-4 0 -8.5 -1t-8 -1.5t-5.5 1t-2 7.5z" />
<glyph unicode="g" horiz-adv-x="355" d="M-122 -237q0 27 9 41t42 14q-3 -14 -7.5 -28t-8 -26t-3 -19t7.5 -5q32 -21 70 -30t75 -9q56 1 96.5 23t67 57t41 80.5t18 94t-2.5 97.5t-19 90q-17 -19 -34.5 -40t-37.5 -37.5t-42.5 -27.5t-50.5 -11q-29 0 -43.5 10t-19.5 27.5t-4.5 40.5t0.5 49q0 24 1.5 54t7 60.5 t15 60t25.5 53t40 37.5t57 14q21 0 40.5 -3.5t36 -12.5t28.5 -24t19 -38q4 -45 10 -97.5t10 -109t4 -113.5t-7.5 -110t-25 -99.5t-49 -82t-78.5 -57t-113 -23.5q-28 0 -59 3.5t-57 14t-42.5 30t-16.5 52.5zM70 154q0 -11 -1 -25t1 -28t8.5 -24t21.5 -11q24 0 44.5 11t37 30 t29 42.5t21 48.5t13 48.5t4.5 41.5q3 19 0.5 38t-11.5 34t-24 24.5t-36 9.5q-24 0 -42 -13.5t-30 -34.5t-19 -47.5t-10.5 -53t-5 -51t-1.5 -40.5z" />
<glyph unicode="h" horiz-adv-x="345" d="M60 686l26 -328q7 6 18 18t26 22.5t33 18t39 6.5q41 -4 65.5 -33t37 -71t16.5 -91.5t2.5 -94.5t-5 -80t-5.5 -48l-36 5q0 9 0.5 28.5t1.5 46t1 55.5t0.5 54.5t0 45.5t-1.5 28q1 28 -11 54t-32 39.5t-48 9t-60 -39.5q-28 -42 -41 -82.5t-17 -80t-3 -81t0 -87.5l-39 6 q3 11 4.5 40.5t2.5 71t1.5 92.5t0 105.5t-1.5 109.5t-2.5 105t-3 92t-2.5 69z" />
<glyph unicode="i" horiz-adv-x="145" d="M67 388q12 0 20.5 1t14.5 -10q3 -45 7 -91.5t8 -93.5t5.5 -94.5t0.5 -92.5q0 -6 -3 -7.5t-8.5 -1t-13 1t-16.5 -1.5zM9 567q0 7 1 15.5t4.5 15.5t9 12t13.5 5q12 0 24 -1t23 -4.5t18 -11t7 -21.5q0 -24 -18 -42.5t-44 -18.5q-20 0 -29 15.5t-9 35.5zM67 562q-3 0 -3 -5 t3 -5q4 0 4 5t-4 5z" />
<glyph unicode="j" horiz-adv-x="211" d="M-224 -315q0 10 1.5 17t6 8t12.5 -4.5t20 -21.5q0 -13 18.5 -21t42.5 -12.5t48.5 -5.5t35.5 -1q49 0 83.5 17.5t57 47t33 69t10.5 82.5q0 62 -8.5 119.5t-22.5 115t-32 117t-36 125.5q-7 30 -4 45t10.5 19.5t17 1.5t15.5 -9q17 -63 34 -129.5t32 -135.5t24 -139t9 -138 q0 -47 -12 -91.5t-37.5 -78.5t-63.5 -55t-91 -21q-24 0 -59 1t-67.5 8.5t-55 23t-22.5 46.5zM1 647q13 0 28 -3.5t28 -11t21.5 -19t8.5 -27.5q0 -39 -41 -39q-19 0 -29 10t-13.5 25t-3 32.5t0.5 32.5zM46 591q-3 0 -3 -4.5t3 -4.5q4 0 4 4.5t-4 4.5z" />
<glyph unicode="k" horiz-adv-x="387" d="M56 27q-1 21 -4.5 64.5t-7.5 98t-8 115.5t-7.5 115.5t-6.5 98t-4 64.5q-1 9 -1.5 31.5t-1.5 48t-1.5 48t-0.5 31.5q14 0 25 -5.5t18 -18.5q2 -21 4.5 -59.5t5.5 -88.5t6.5 -107t6.5 -113q3 5 6 9t4 5q11 12 26 28t31.5 33t33 33.5l30 30t22.5 21.5t11 8l38 -19 q-17 -15 -39 -35t-43 -42.5t-40.5 -47t-31.5 -48.5q0 -1 -0.5 -4.5t-0.5 -5.5q0 -1 0.5 -4.5t0.5 -4.5l231 -269q0 -1 0.5 -4t0.5 -5q0 -19 -20 -29l-250 288q-1 1 -2.5 3.5t-3.5 5.5l11 -194q0 -5 0.5 -19t1 -30.5t1 -31t0.5 -19.5q-13 0 -24 5.5t-17 18.5z" />
<glyph unicode="l" horiz-adv-x="145" d="M44 777q14 -2 24.5 -7.5t16.5 -19.5q0 -19 1.5 -52.5t3 -77.5t3.5 -95t4 -103t3.5 -103t3 -95t2.5 -78t2 -52q0 -2 -0.5 -7t-1 -12t-1 -13.5t-0.5 -9.5q-1 -6 -1 -14.5t-2 -16.5t-6.5 -14.5t-14.5 -7.5l-17 21q-1 1 -2.5 37.5t-4 95t-4.5 132t-4.5 148.5t-4.5 144t-3 119 q0 4 0.5 16t1 24.5t1 24t0.5 16.5z" />
<glyph unicode="m" horiz-adv-x="562" d="M19 390q12 0 26 -6t20 -24q8 34 24.5 55t38 29t45 5.5t44 -14.5t36 -31t21.5 -44q11 31 29.5 57.5t41 44.5t47 25t46 -0.5t38 -32t23.5 -70.5q2 -13 5 -38.5t6.5 -57.5t8 -67.5t8 -67.5t6.5 -57.5t5 -37.5q0 -10 -1 -22t-4.5 -20.5t-11 -11t-22.5 8.5q0 12 -3 39t-6 62.5 t-7.5 75t-9 74.5t-7.5 62t-6 38q-15 46 -31.5 64t-33 16t-31.5 -21t-27 -48t-22.5 -64.5t-16 -70.5t-7 -66t3.5 -51l-39 -8q3 96 -6.5 157.5t-26 94.5t-37.5 39.5t-41.5 -8.5t-37.5 -50t-25.5 -84.5t-6.5 -111.5t21 -133h-38l-2.5 19t-6 48.5t-7.5 67t-8 76t-8 74t-7 60.5 v13.5v12.5z" />
<glyph unicode="n" horiz-adv-x="405" d="M34 5q-2 16 -3.5 46.5t-3 69t-2.5 80.5t-2 80t-2.5 68.5t-4.5 46.5q0 1 -0.5 5t-1 9t-0.5 8.5v5.5q15 12 25.5 8t17.5 -17.5t10 -33.5t4.5 -40t1.5 -36.5v-23.5q2 17 6 40t12 47t19.5 47.5t28.5 41.5t38.5 28t49.5 8q44 -2 72.5 -24t45 -59t24 -85t10 -102t1.5 -109.5 t-1 -106.5q-9 -2 -18 -6.5t-15 -4t-8.5 9t1.5 33.5q1 18 3.5 55.5t2 83.5t-5.5 95t-18.5 89.5t-38.5 66t-65 25.5q-41 -17 -68.5 -64t-44 -110t-24 -136.5t-8.5 -143.5q-2 1 -7.5 1t-12 0.5t-12 1.5t-6.5 2z" />
<glyph unicode="o" horiz-adv-x="371" d="M24 183q0 23 4 53.5t13 61.5t22.5 61t32.5 53.5t44 38t56 14.5q32 0 59.5 -22t47 -57t29.5 -78t8 -84q0 -60 -23 -107t-58.5 -76t-76 -39t-76 5.5t-59 58.5t-23.5 117zM61 179q3 -61 21 -94t43.5 -43.5t55.5 -0.5t56 35.5t44.5 64t20.5 86.5q2 36 -5.5 70t-21 60.5 t-33 42t-44.5 15.5q-24 0 -43 -12t-34.5 -32.5t-26.5 -46.5t-18.5 -52t-11 -50.5t-3.5 -42.5z" />
<glyph unicode="p" horiz-adv-x="454" d="M53 259q-4 -3 -11 -2t-13 3.5t-10.5 7t-4.5 10.5q0 34 21 62.5t52 49t66 32t64 11.5q46 0 83.5 -15.5t64 -42.5t41 -63t14.5 -77q1 -52 -23.5 -95t-64 -73.5t-88 -46t-95.5 -11.5q2 -36 -1 -82.5t-8 -101.5t-12.5 -116.5t-15.5 -126.5q0 -1 -6 -1t-12.5 1.5l-13 3 t-7.5 0.5q7 83 11 168t3 170.5t-9 169.5t-25 165zM205 377q-19 -1 -41 -5.5t-39 -13.5t-27 -24t-7 -37q2 -10 5.5 -29t8 -43t9 -50t9 -50t8 -43.5t5.5 -29.5q12 2 34 4t47 8t51.5 16.5t49.5 29.5t40.5 47.5t23.5 70.5q0 39 -14 67t-38 46.5t-56.5 27t-68.5 8.5z" />
<glyph unicode="q" horiz-adv-x="346" d="M245 96q-17 -15 -31.5 -26.5t-29.5 -19t-30.5 -11.5t-34.5 -4q-28 0 -47.5 14.5t-33 37t-19.5 48t-6 49.5t4.5 51.5t14.5 55t24.5 53t33.5 44.5t43 30.5t52 11.5t51 -9t39.5 -25.5t26 -41t9.5 -54.5q0 -50 -4.5 -99.5t-9.5 -99t-9.5 -99.5t-4.5 -100q-6 -36 7 -66 t34.5 -52.5t47 -36t46.5 -16.5q-4 -3 -12.5 -6t-17.5 -6t-17.5 -5t-10.5 -2q-20 2 -40 12t-36.5 26t-27.5 36t-11 41v269zM52 193q0 -13 4 -33t12 -38.5t21 -32t31 -13.5q34 0 61.5 19t46 48t28 62.5t9.5 62.5q0 17 -3 38.5t-12.5 41t-25.5 33t-41 13.5q-20 0 -37.5 -12 t-32 -31t-26 -42t-19 -45.5t-12 -41.5t-4.5 -29z" />
<glyph unicode="r" horiz-adv-x="306" d="M13 390q12 5 21 2t15 -11t9 -18.5t5 -20.5q13 22 37.5 35.5t52.5 18t56 2t47.5 -12t27.5 -26t-4 -38.5q-26 15 -54.5 24t-55.5 6t-50 -20.5t-38 -55.5t-18.5 -100.5t8.5 -155.5h-38l-1.5 16.5t-3 43.5t-4 60t-4.5 67t-3.5 65.5t-3.5 54.5q0 3 -0.5 12t-0.5 19.5v19.5v13z " />
<glyph unicode="s" horiz-adv-x="394" d="M72 81q18 0 33.5 -7t30.5 -15.5t30.5 -15t33.5 -6.5q21 0 43.5 7.5t41.5 21t31 33t12 42.5q1 7 0.5 17t-6.5 20.5t-20 20t-40.5 14.5t-66.5 5.5t-99 -7.5q-15 0 -29 8.5t-25 21t-18 27t-7 27.5q0 39 16.5 63.5t42.5 39t58 20.5t65 6q15 0 34.5 -1.5t36 -8t28 -20.5 t11.5 -39q-2 -17 -5.5 -20.5t-10 2t-15.5 15.5t-21.5 19.5t-30 14.5t-39.5 0q-23 0 -46 -4.5t-41.5 -15.5t-30 -30t-11.5 -48q0 -15 13.5 -20.5t36 -5.5t51 1.5t58.5 1.5t58 -4.5t49.5 -18t33.5 -38.5t9 -65q0 -29 -16.5 -55t-42 -45.5t-56.5 -30.5t-60 -8q-12 1 -32.5 6.5 t-40 15.5t-33.5 24.5t-14 34.5z" />
<glyph unicode="t" horiz-adv-x="380" d="M142 363q-9 3 -24.5 2.5t-33 -2t-33.5 -3.5t-27 -2q-5 0 -6.5 14.5t-4.5 39.5l141 10q3 35 4 50t0.5 25.5t-1 24t-0.5 42.5q26 4 39.5 2.5t18.5 -7.5t4.5 -17.5t-3 -28.5t-4 -41t1.5 -54l120 4v-49q-8 0 -25 -1t-36.5 -2t-36 -2t-24.5 -4q-8 -36 -17 -77t-12 -81t2 -74.5 t25 -57t57 -31t98 5.5q-2 -15 -11.5 -24.5t-22 -15t-26.5 -8t-25 -2.5q-51 0 -81 18.5t-45 48.5t-19 68.5t-2.5 78.5t5.5 79t4 71z" />
<glyph unicode="u" horiz-adv-x="458" d="M19 388q0 5 6.5 10t16 8t18.5 4t13 -3q6 -124 23.5 -197.5t40 -107.5t48.5 -34.5t51 22t46.5 61.5t35 84t16.5 90t-8 80l60 7q1 -15 5.5 -49.5t10 -78t12.5 -90.5t12 -87.5t9 -69t4 -35.5h-43l-47 173q-14 -35 -34 -67t-43.5 -56t-49.5 -37.5t-51.5 -11t-49.5 23.5 t-44.5 66.5t-35.5 117.5t-22 177z" />
<glyph unicode="v" horiz-adv-x="398" d="M10 442l31 31l220 -400l94 387q7 -3 15 -4.5t14.5 -3t10.5 -3.5t4 -7q-13 -64 -24.5 -120t-24.5 -109t-28 -106.5t-35 -111.5h-39z" />
<glyph unicode="w" horiz-adv-x="567" d="M209 13l-195 447l26 27l166 -372l76 245l193 -264q9 49 11.5 98.5t2 99t-1 100.5t2.5 102l43 -16v-127v-87.5t-0.5 -57.5t-1 -38t-2.5 -29.5t-5 -30t-7 -40.5t-10 -63q-31 24 -60 60t-54.5 72t-48.5 66.5t-42 44.5z" />
<glyph unicode="x" horiz-adv-x="394" d="M10 460l19 20l154 -173l96 192l39 -28l-98 -212v-4.5t1 -4.5q13 -18 37.5 -50.5t50.5 -67.5t47.5 -68t27.5 -51l-38 -19l-144 198q-12 -8 -25.5 -32.5t-27 -54t-24.5 -56.5t-18 -41l-40 11l79 219z" />
<glyph unicode="y" horiz-adv-x="384" d="M214 -410q0 50 9 103t18.5 106t16 106t1.5 104l-249 422q22 20 35 22.5t15 0.5q7 -10 23.5 -37t38 -63t45.5 -76t45.5 -76t37 -64t21.5 -39l46 371l50 -25l-108 -858z" />
<glyph unicode="z" horiz-adv-x="480" d="M110 211l-4 45l95 5l82 161l-264 -17l-5 37q1 0 20.5 2.5t50 6.5t68 9t74.5 9t70 7.5t55 4.5l-89 -220l95 7l2 -47l-140 -10l-58 -165q73 -3 144.5 -1.5t144.5 1.5v-33q-3 0 -24 -1t-54 -3t-72 -4t-78 -3.5t-73.5 -1.5t-55.5 2l71 209h-55z" />
<glyph unicode="{" horiz-adv-x="298" d="M10 230q11 32 27.5 57.5t32 51t26 54t10.5 67.5q0 21 -3 40.5t-7 39t-7.5 39.5t-3.5 40q0 27 13.5 51t34.5 41.5t47 28t52 10.5q7 0 16.5 -1t17 -5t12.5 -10.5t5 -17.5q-20 0 -47.5 -5t-52 -17t-42 -31t-17.5 -47q0 -21 3.5 -42t8 -42t8 -42t3.5 -43q0 -26 -7 -48 t-14.5 -43.5t-14.5 -42.5t-7 -45q0 -4 0.5 -11t1.5 -7q18 -46 27.5 -77.5t16.5 -55t12.5 -42t16.5 -37.5t29.5 -41.5t50.5 -54.5q3 -4 3 -10t-3 -12t-8 -10.5t-10 -5.5q-36 0 -58 12.5t-34.5 33.5t-18.5 48.5t-10.5 57t-10 58t-16.5 52.5t-30.5 41t-52.5 23z" />
<glyph unicode="|" horiz-adv-x="145" d="M32 823v14t4 22t13 16.5t27 -1.5l0.5 -26.5t1.5 -72t1.5 -107t1.5 -130.5t2.5 -142.5t2 -143.5t1.5 -133t1 -112q0 -9 -1.5 -15.5t-6 -10.5t-12 -6.5t-21.5 -2.5q-1 1 -1.5 25.5t-1.5 66.5t-2.5 98t-3 119t-3 130t-3 130t-2 120.5t-1.5 101.5q0 1 0.5 9t1 17.5l1 19 t0.5 14.5z" />
<glyph unicode="}" horiz-adv-x="346" d="M206 -87q27 7 43 15t24.5 19.5t10.5 25.5t2 32q0 14 -3.5 41t-9.5 61t-14.5 70.5t-17.5 68t-18 56t-17 33.5q8 86 8.5 144.5t-4 96t-13 58t-18.5 30.5t-20.5 12.5t-18.5 5.5q-18 0 -34 -3t-32 -7.5t-32 -8t-34 -3.5q0 22 14.5 37t35.5 24.5t43.5 13.5t37.5 4q33 0 57 -13 t39 -34.5t22.5 -49t7.5 -56.5q0 -36 -4.5 -70.5t-9 -64.5t-7.5 -54.5t1 -41.5q32 -33 48.5 -74t24 -85.5t9.5 -91t4 -91.5q0 -27 -7.5 -49.5t-23 -39t-39 -25.5t-55.5 -9v23z" />
<glyph unicode="~" horiz-adv-x="311" d="M109 550q-11 8 -17.5 2.5t-11.5 -17t-9 -25t-8 -21.5t-9 -6.5t-11 19.5q0 47 15 66t49 19q19 -9 31.5 -21.5l23 -23t19 -16.5t18.5 -2t23 20.5t31 51.5q6 0 13.5 -5t7.5 -15q-16 -41 -31.5 -61.5t-29.5 -26t-28 0.5t-27 17t-25 23t-24 21z" />
<glyph unicode="&#xa1;" horiz-adv-x="158" d="M111.482 594.865q-21.7383 -13.9922 -29.8906 -29.8516q-8.15234 -15.8584 -6.79297 -30.3174q1.3584 -14.46 10.416 -24.7207q9.05762 -10.2617 21.2852 -12.1279q12.2285 -1.86523 25.8145 6.99707t24.4551 34.0498q0 9.32812 -3.16992 19.123t-9.05762 17.7246 t-14.4922 13.5264t-18.5674 5.59668zM119.634 538.895q-3.62305 0 -5.43457 2.79785q-1.81152 2.79883 -1.81152 6.99707q0 4.19727 1.81152 6.99609t5.43457 1.86523q8.15137 -1.86523 8.15137 -8.86133q0 -6.99707 -8.15137 -9.79492zM31.7754 -13.3594 q0 -8.39648 1.3584 -11.6611t5.43457 -3.73145t11.3223 -0.932617q7.24609 -0.466797 18.1152 -4.19824l51.6279 430.049q-1.81152 0.933594 -8.15137 2.79883q-6.34082 1.86523 -9.05859 1.86523q-10.8691 0 -17.209 -4.19727q-6.33984 -4.19824 -9.51074 -12.127 q-3.16992 -7.92969 -4.52832 -18.6572q-1.35938 -10.7285 -3.16992 -22.8555q-0.90625 -4.66406 -2.71777 -24.2549q-1.81152 -19.5898 -5.43457 -48.5078q-3.62305 -28.9189 -7.24609 -63.9014t-7.24609 -69.498q-3.62305 -34.5166 -7.24609 -65.3008t-5.43457 -51.3076 l-0.453125 -5.12988q-0.452148 -5.13086 -0.452148 -11.1943v-11.1943v-6.06348z" />
<glyph unicode="&#xa2;" horiz-adv-x="375" d="M172 466v13.5t4 21.5t13 16.5t28 -0.5v-24.5v-65.5q18 0 29.5 -10.5t17 -26.5t7.5 -35.5t2.5 -39.5t0 -37t1.5 -28h-25q-1 5 -2.5 20.5t-5 34t-9 37.5t-15.5 31q1 -66 1.5 -150.5t1.5 -175.5q16 7 31.5 16t31 17t32 13.5t34.5 5.5q0 -20 -12 -36.5t-30.5 -28.5t-41 -19.5 t-45.5 -12.5q0 -6 0.5 -12.5t0.5 -13.5q-1 -9 -3 -10.5t-7 0t-13.5 4t-20.5 2.5q-3 2 -3 26q-34 0 -62.5 14t-49.5 37.5t-32.5 55t-11.5 66.5q0 34 9.5 74t28.5 76.5t47.5 64.5t65.5 37zM57 193q1 -25 7 -54.5t19.5 -53.5t35.5 -39t54 -9h1q-1 27 -1.5 64.5t-0.5 82t-1 95 t-2 104.5q-24 -8 -44.5 -31.5t-35.5 -52t-23.5 -57.5t-8.5 -49z" />
<glyph unicode="&#xa3;" horiz-adv-x="490" d="M17 302q1 1 5 2t17 2q7 1 19 1q-5 75 0 125q8 64 28.5 94.5t46.5 38.5t54 -2t50 -25.5t34 -33t7 -25t-31.5 0t-81.5 40.5q-21 12 -33.5 -3t-18 -49t-6.5 -83q0 -35 2 -74q17 2 40 4q9 1 21.5 2.5t24.5 1t21.5 -2.5t13 -7t-1.5 -12.5t-22 -19.5q-24 -3 -39 -4.5t-28.5 -2 t-27.5 -1.5q3 -48 7 -97q6 -56 12 -105q45 20 86.5 26.5t79.5 3.5t73 -13.5t67 -26.5l-6 -36q-11 6 -35.5 10.5t-56 7t-66.5 3t-67.5 -2.5t-58.5 -9.5t-40 -16.5q-34 150 -45 252h-8q-6 -1 -12 -1.5t-7 -0.5q-6 0 -11.5 0.5t-8 4t-2 11.5t4.5 23z" />
<glyph unicode="&#xa4;" horiz-adv-x="444" d="M73 183q0 18 2.5 40.5t7.5 47t14 48.5t20 47l-58 94l19 20l64 -72q19 25 44.5 41t58.5 16q23 0 43 -11.5t37 -31.5l39 49l40 -29l-49 -66q18 -33 26.5 -73t6.5 -79q0 -57 -21 -104q23 -33 41.5 -61.5t24.5 -45.5l-39 -19l-56 78q-24 -29 -54 -47.5t-61 -24t-60 4 t-50 35.5q-19 -22 -32.5 -39.5t-17.5 -27.5l-40 10l66 99q-8 19 -12 44t-4 57zM107 186q2 -61 20.5 -94t44.5 -43.5t56 -0.5t56 35.5t44 64t21 86.5q0 36 -6.5 70t-20.5 60.5t-33.5 42t-44.5 15.5q-24 0 -43.5 -12.5t-34.5 -32.5t-26 -46t-18.5 -52t-11 -50.5t-3.5 -42.5z " />
<glyph unicode="&#xa5;" horiz-adv-x="349" d="M71 274q24 3 53.5 6t62.5 7v39q-16 22 -34.5 55t-37.5 71t-38 79t-36 79.5t-30.5 71.5t-21.5 56l18 19l198 -373q9 41 24 92t33 103t38.5 98.5t40.5 80.5q2 1 5 1h5q3 0 8.5 -1t11 -3.5t8.5 -6t0 -9.5q-12 -26 -33 -69t-42 -97.5t-38.5 -117t-24.5 -127.5v-36q23 1 47 2 t46 1v-40l-95 -4v-65q41 1 71.5 0t36.5 -8v-24l-8.5 -0.5t-23.5 -1t-34.5 -1t-41.5 -0.5l-1 -132q-1 -11 -2.5 -16.5t-7 -8.5t-15 -3.5t-26.5 -0.5v158q-33 -1 -61.5 -3.5t-47.5 -4.5q-1 0 -1 4v9.5t-0.5 10t-1.5 5.5q13 3 43.5 7t68.5 7v66l-116 -4v29z" />
<glyph unicode="&#xa6;" horiz-adv-x="145" d="M98 388q2 -48 3.5 -93.5t3 -84.5t2 -69.5t1.5 -46.5q0 -2 -0.5 -7t-1 -12t-1 -13.5t-0.5 -9.5q-1 -6 -1 -14.5t-2 -16.5t-6.5 -14.5t-14.5 -7.5l-17 21q-1 1 -2 32t-3 82t-4.5 116.5t-4.5 135.5zM44 418q-1 43 -1 75.5t0.5 61t1 54t-0.5 54.5q0 4 0.5 16t1 24.5t1 24 t0.5 16.5q14 -2 24.5 -7.5t16.5 -19.5q1 -40 4.5 -114.5t7.5 -187.5z" />
<glyph unicode="&#xa7;" horiz-adv-x="397" d="M35 117q18 0 39.5 -12.5t43 -28t43 -27.5t39.5 -12q21 0 45.5 3t46 10.5t35.5 22.5t14 37q-1 6 -1 13.5t-4 16.5t-13.5 20t-30.5 24q-21 -10 -43 -12.5t-43 -5.5q-28 -3 -55.5 4.5t-49.5 23.5t-35.5 38t-13.5 47t15.5 50.5t52.5 49.5q-2 0 -4.5 -0.5t-5.5 -0.5 q-15 0 -29 8t-25 20.5t-18 27t-7 28.5q0 38 16.5 63t42.5 40t58.5 20.5t65.5 5.5q15 0 34 -1.5t36 -8.5t28 -20.5t11 -38.5q-1 -17 -5 -20.5t-10 1.5t-15.5 15.5t-22 19.5t-30 14t-38.5 1q-24 0 -49.5 -4.5t-45 -16t-30.5 -30.5t-5 -48q4 -18 20 -25.5t40 -9.5t53 0t58 2 t56 -3t46.5 -15t30 -35t6.5 -62q0 -11 -5.5 -25t-13.5 -27.5t-17.5 -26.5t-18.5 -22q13 -6 23 -13t16.5 -18t9.5 -27t2 -38q0 -29 -18.5 -51.5t-46 -37t-60.5 -20.5t-61 0q-13 2 -30 8.5t-35.5 15.5t-36.5 20t-31 23.5t-20 25t-4 24.5zM300 233q19 14 31 33t12 42 q-1 38 -33 56.5t-81 14.5q-24 0 -49.5 -7.5t-46.5 -22.5t-34.5 -37.5t-13.5 -51.5q0 -9 13.5 -23t40.5 -23t67.5 -7t93.5 26z" />
<glyph unicode="&#xa8;" horiz-adv-x="347" d="M46 544q-3 15 1 23t12 12t18 5t18 1t17.5 -1t17.5 -5t12 -12t0 -23q-3 -14 -17 -27t-30 -13q-8 0 -16 3.5t-14.5 9.5t-11 13t-7.5 14zM194 544q-4 15 0.5 23t12.5 12t18 5t18 1q7 0 17 -1t18 -5t12 -12t0 -23q-1 -7 -6 -14t-11.5 -13t-14.5 -9.5t-15 -3.5q-17 0 -31 13 t-18 27z" />
<glyph unicode="&#xa9;" horiz-adv-x="520" d="M127 226q0 30 11 69t30 73.5t46 58t57 23.5q17 3 28 -4.5t17.5 -22t10.5 -33t6 -37t3 -34.5t2 -26l-31 -8q0 5 -1.5 23t-6 37.5t-12 34.5t-20.5 15q-20 0 -36.5 -17.5t-30 -42.5t-21 -52t-7.5 -45q1 -19 5.5 -42.5t14 -43t25 -31t37.5 -6.5q17 0 32 7.5t30 16.5t30 16.5 t32 7.5q0 -21 -13.5 -38t-33 -29t-41 -19t-36.5 -7q-24 0 -47 14t-40.5 36t-28.5 50t-11 56zM23 274q-1 45 10 93.5t36 90t67 70.5t102 34q43 -1 79.5 -17.5t65.5 -43.5t51.5 -62.5t36 -74.5t19.5 -80.5t3 -79.5q-6 -70 -31.5 -120t-62.5 -81.5t-82 -46.5t-91 -16 q-45 0 -77 15.5t-55 42t-37 60.5t-21.5 71t-10 74.5t-2.5 70.5zM61 274q0 -25 1.5 -55t6 -61t13 -60t24 -51.5t39 -36.5t57.5 -14q47 -7 89.5 1t76.5 33t56.5 68.5t28.5 105.5q4 25 -0.5 58t-17.5 68.5t-33 70t-45.5 62t-55.5 44t-62 16.5q-45 -5 -78.5 -33t-55.5 -65.5 t-33 -78.5t-11 -72z" />
<glyph unicode="&#xaa;" horiz-adv-x="224" d="M11.2109 176.464q0 32.1221 20.2451 46.7744q20.2451 14.6514 53.0234 14.6514q12.8535 0 24.1006 -0.563477q11.248 -0.563477 21.5312 -2.81738t20.2441 -6.7627q9.96191 -4.50781 20.8887 -12.9609q0 1.69043 0.321289 7.04395t0.321289 11.5527v11.5518v7.6084 q-0.642578 10.1436 -0.642578 26.2041t-2.89258 32.9668t-11.5684 32.1221q-8.67676 15.2158 -27.958 23.1045q-13.4961 0 -25.0654 -3.94434q-11.5684 -3.94434 -23.1367 -8.45312q-11.5684 -4.50781 -23.1377 -8.1709q-11.5684 -3.66309 -25.0654 -3.66309 q0 14.0879 9.96191 23.3867q9.96191 9.29785 24.1016 14.3701t29.5645 6.7627t26.9932 1.69043q11.5684 -1.69043 21.5303 -3.94531q9.96191 -2.25391 18.6387 -9.01562q8.67676 -6.7627 16.0674 -20.5693t12.8545 -38.6025q5.46289 -24.7959 9.63965 -62.835 q4.17773 -38.0381 6.74902 -93.2646q1.28516 -7.32617 -5.46289 -12.6797q-6.74902 -5.35352 -18.3174 -9.0166t-26.0293 -6.19922t-29.2432 -3.66309t-28.2783 -1.69043q-13.4971 -0.563477 -22.4941 -0.563477q-11.5693 0 -23.459 3.38086 q-11.8896 3.38184 -21.8516 9.8623t-16.0674 15.7793q-6.10645 9.29785 -6.10645 20.5684zM94.7627 215.912q-32.1357 -7.88965 -44.9893 -18.8789q-12.8545 -10.9893 -11.2471 -21.1328q1.60645 -10.1436 15.1035 -18.3145q13.4961 -8.17188 32.7773 -10.707 q19.2812 -2.53613 41.7754 2.81738q22.4951 5.35352 43.0615 21.1328q-7.71289 16.3428 -15.4258 25.0771q-7.71191 8.73438 -16.71 13.2432q-8.99707 4.50879 -19.9238 5.63574q-10.9258 1.12695 -24.4219 1.12695z" />
<glyph unicode="&#xab;" horiz-adv-x="476" d="M32 163q0 2 0.5 5.5t1.5 3.5l211 288h23q0 -24 -10.5 -51t-27 -53.5t-37.5 -51.5t-40.5 -46.5t-36 -38.5t-25.5 -27v-38q9 -3 25.5 -10.5t37.5 -17t43.5 -19.5t43.5 -20t37.5 -18t23.5 -11q3 -2 9 -7t12 -11t11.5 -12t6.5 -9q-6 -12 -12 -16t-16 -4q-8 0 -32 11t-55 27.5 t-65 36t-62.5 38t-47.5 32.5t-19 19zM154 194q0 2 0.5 5t1.5 4l211 288h24q0 -25 -11 -52t-27.5 -53t-37 -51t-40.5 -46.5t-36.5 -39t-24.5 -26.5v-39q8 -3 24.5 -10.5t37.5 -16.5t44 -19.5t43.5 -20t37 -17.5t23.5 -12q3 -1 9 -6t12 -11.5t11 -12t7 -8.5q-6 -12 -12 -16 t-16 -4q-8 0 -32 11t-55 27.5t-65 36t-62.5 37.5t-47.5 32.5t-19 19.5z" />
<glyph unicode="&#xac;" horiz-adv-x="388" d="M304 268l-270 -19l-2 50q32 -9 72 -5t81.5 11t83 11.5t78.5 -4.5q-3 -29 -3.5 -43.5t0.5 -28.5t3 -34t3 -60q-8 -11 -20 -9t-26 2v44v85z" />
<glyph unicode="&#xad;" horiz-adv-x="389" d="M34 230q0 1 22.5 4.5t57.5 7.5t79 8t89 8q4 0 16 0.5t24.5 1t24 1t16.5 0.5q0 -13 -5.5 -24t-17.5 -17q-24 -3 -60 -6.5t-74 -7.5t-74 -8t-60 -6q-2 0 -9.5 -0.5t-11.5 -0.5q-13 0 -22 2t-15 18z" />
<glyph unicode="&#xae;" d="M376 97q-4 12 -9.5 36.5t-16 48.5t-27.5 41.5t-43 17.5q-7 0 -19 -1.5t-23.5 -4.5t-20 -7.5t-8.5 -9.5v-114q-2 0 -8 -0.5t-12.5 -1.5t-11 -0.5t-4.5 2.5l4 257q-14 -3 -17 -14.5t-3 -21.5q-3 0 -8 3.5t-10 8.5t-9 9.5t-4 6.5q0 19 18.5 36t43 30t50.5 20.5t42 7.5 q15 0 30 -4t27 -12.5t20 -21t8 -30.5q0 -15 -5 -29.5t-14 -28t-19.5 -25.5t-20.5 -22q37 -22 55 -42.5t26 -41t11.5 -42t11.5 -45.5zM284 412q-6 0 -18.5 -1t-24.5 -4t-22 -9t-10 -16v-126q19 0 40.5 13t40.5 31.5t31.5 39.5t12.5 38q0 22 -14.5 28t-35.5 6zM26 280 q0 33 4.5 69.5t15 72t27 68t40 57t55 39.5t71.5 15q41 10 78.5 -4t68.5 -44t55 -72t39 -89t19.5 -94.5t-3.5 -86.5q-6 -71 -31.5 -121t-62.5 -81.5t-82 -46.5t-91 -16q-44 0 -76.5 15.5t-55 42t-36.5 60.5t-22 71t-10.5 74.5t-2.5 70.5zM64 280q0 -24 1.5 -54.5t6 -61.5 t13 -60t24 -51.5t39 -36.5t57.5 -14q47 -7 89.5 1t76.5 33t56.5 68.5t28.5 106.5q7 27 3 66t-16.5 79.5t-32 80t-45.5 69.5t-57.5 46t-66.5 11q-31 0 -56 -14t-44.5 -38t-34 -54t-24 -61.5t-14 -61.5t-4.5 -54z" />
<glyph unicode="&#xaf;" horiz-adv-x="451" d="M43 514l360 3v-38q-10 2 -36.5 1.5t-61.5 -1.5t-75 -3t-78 -1.5t-70 2.5t-51 9z" />
<glyph unicode="&#xb0;" horiz-adv-x="230" d="M9.13379 259.461q0 13.7568 2.68848 32q2.68945 18.2441 8.73926 36.7861q6.05078 18.542 15.126 36.4873q9.0752 17.9434 21.8477 32t29.5781 22.7295q16.8066 8.67285 37.6465 8.67285q21.5117 0 39.998 -13.1582q18.4863 -13.1602 31.5947 -34.0947 q13.1094 -20.9346 19.8311 -46.6553q6.72266 -25.7207 5.37891 -50.2441q0 -35.8887 -15.4619 -64.002q-15.4619 -28.1123 -39.3262 -45.459q-23.8643 -17.3457 -51.0908 -23.3271q-27.2256 -5.98145 -51.0898 3.29004t-39.6621 34.9912t-15.7979 69.9834zM34.0068 257.068 q2.0166 -36.4873 14.1172 -56.2266q12.1006 -19.7383 29.2422 -26.0186q17.1426 -6.28027 37.3096 -0.299805q20.167 5.98242 37.6455 21.2344q17.4785 15.2529 29.915 38.2812q12.4355 23.0293 13.7803 51.7402q1.34473 21.5332 -3.69727 41.8691 q-5.04199 20.3379 -14.1172 36.1885t-22.1836 25.1221t-29.915 9.27148q-16.1338 0 -28.9062 -7.17773t-23.1924 -19.4404q-10.4199 -12.2617 -17.8145 -27.8135t-12.4365 -31.1035q-5.04102 -15.5518 -7.39453 -30.2061q-2.35254 -14.6553 -2.35254 -25.4209z" />
<glyph unicode="&#xb1;" horiz-adv-x="327" d="M43 133q1 2 21 3t65 5q-1 16 -1.5 27t-0.5 21v21t-1 26h-103l-8 43l118 7v120q17 6 32 6t22 -6l3 -110h116v-44q-35 -3 -65 -5.5t-51 -2.5l-4 -98q5 0 10 0.5t11 1.5q4 0 16 0.5t25 1t24.5 1t16.5 0.5q0 -14 -6 -25t-18 -17q-48 -5 -91.5 -7.5t-91.5 -6.5q-2 0 -10 -0.5 t-12 -0.5q-13 0 -22 2t-14 19z" />
<glyph unicode="&#xb2;" horiz-adv-x="322" d="M126.598 168.276q-17.8457 -9.12305 -32.3867 -10.9482q-14.541 -1.82422 -33.0469 -1.82422q-7.27051 0 -16.1934 0.912109t-16.5244 4.25781q-7.60059 3.34473 -12.5576 9.12305t-4.95703 16.1182q0 6.08203 13.2188 8.51465t33.3779 5.77832 q20.1592 3.34473 43.623 10.0352t43.6221 21.5918q20.1592 14.9014 33.709 41.0547q13.5488 26.1533 13.5488 67.5117q0 17.6387 -3.30469 36.7969q-3.30469 19.1592 -11.8965 34.9727q-8.59277 15.8135 -24.125 26.457t-39.9873 10.6436q-9.91406 0 -17.8457 -4.25684 q-7.93164 -4.25781 -14.541 -10.0361q-6.60938 -5.77734 -12.5576 -13.0762q-5.94922 -7.29883 -12.8887 -13.3809q-6.94043 -6.08203 -15.2021 -10.0352q-8.26172 -3.9541 -20.1592 -3.9541q0 16.4219 8.26172 30.7148q8.2627 14.2939 21.8115 24.9375 q13.5498 10.6436 30.4043 16.7256q16.8535 6.08203 34.0381 6.08203q26.4385 0 47.9189 -12.1641q21.4814 -12.1641 36.3525 -31.0195q14.8711 -18.8545 22.8027 -41.6621q7.93164 -22.8086 7.93164 -44.7041q0 -21.2871 -6.60938 -41.9668t-17.5156 -40.1426 q-10.9053 -19.4629 -24.4551 -37.1006q-13.5488 -17.6387 -28.0898 -32.8438q14.541 -11.5557 34.0381 -18.2461q19.498 -6.69043 39.9883 -10.3398q20.4893 -3.64941 40.6484 -5.16992q20.1582 -1.52051 37.3428 -1.52051q0.661133 -0.608398 0.992188 -2.7373 q0.330078 -2.12891 0.330078 -2.73633q0 -6.69043 -5.28711 -10.6445q-5.28809 -3.95312 -12.5586 -5.77734q-7.27051 -1.8252 -15.2012 -2.12891q-7.93164 -0.304688 -13.2197 -0.304688q-17.8457 0 -33.708 3.04102q-15.8633 3.04102 -31.7256 8.21094 q-15.8633 5.16992 -32.3867 11.5566q-16.5234 6.38574 -35.0303 13.6846zM88.9238 179.225q1.32129 3.04102 -2.97461 4.25684q-4.2959 1.2168 -9.58398 1.2168q-5.28711 0 -9.91406 -1.2168q-4.62695 -1.21582 -3.30469 -4.25684q1.98242 -2.43359 5.61816 -3.64941 q3.63477 -1.2168 7.60059 -1.2168t7.27051 1.2168q3.30469 1.21582 5.28809 3.64941z" />
<glyph unicode="&#xb3;" horiz-adv-x="261" d="M34.3604 179.555q10.1855 0 20.0723 -2.19043t19.7725 -5.00781q9.88672 -2.81641 20.0732 -5.00684q10.1855 -2.19043 20.9717 -2.19043q19.7725 0 38.6465 6.57227q18.875 6.57129 33.2549 19.0898t22.7686 30.6699t8.38867 41.3105q0 16.2734 -7.18945 29.7305 q-7.19043 13.458 -18.875 22.8467q-11.6836 9.38867 -26.0645 14.709q-14.3799 5.32031 -28.1611 5.32031h-6.29199q-3.89453 0 -7.48926 -0.313477q-3.59473 -0.3125 -6.29102 -0.625977q-2.69629 -0.3125 -3.2959 -0.3125q-1.19824 0 -6.29102 -1.87793 q-5.09375 -1.87793 -10.7861 -4.06836q-5.69141 -2.19043 -11.085 -4.06836q-5.39258 -1.87793 -6.59082 -1.87793t-2.99512 1.25195q-1.79785 1.25195 -3.89551 3.12988q-2.09668 1.87695 -3.29492 4.06836q-1.19824 2.19043 -1.19824 3.44238 q3.59473 3.75488 13.7812 14.083q10.1855 10.3271 21.2705 21.5938t20.6719 21.5947q9.58691 10.3271 13.1816 14.709q2.39746 3.12891 6.29199 8.7627q3.89453 5.63281 7.48926 11.2666q3.5957 5.63281 6.29199 10.3271t2.69629 5.94629q-3.5957 20.0293 -13.4814 26.2881 q-9.88672 6.25977 -23.3682 4.38184q-13.4824 -1.87793 -28.7607 -10.3281q-15.2793 -8.44922 -29.6602 -18.1514q-14.3799 -9.70117 -26.6631 -18.1514t-19.4736 -11.5791q0 20.6553 12.2832 36.9287t30.2588 27.8535q17.9756 11.5791 38.9463 17.5254 q20.9717 5.94629 38.3477 5.94629q8.38867 0 16.1787 -5.32031q7.78906 -5.32031 14.3799 -13.457t10.4854 -17.8389q3.89551 -9.70117 3.89551 -17.8389q0 -10.0146 -3.2959 -20.9678t-8.08887 -21.2812q-4.79395 -10.3271 -11.085 -19.7158 q-6.29102 -9.38965 -11.6836 -16.9004q15.5781 -5.00684 32.0557 -14.083q16.4775 -9.0752 29.6602 -21.9072q13.1816 -12.8311 21.5703 -29.418t8.38867 -35.9902q0 -26.9141 -8.68848 -50.3857t-24.2666 -40.6846q-15.5791 -17.2129 -37.1494 -26.9141 q-21.5703 -9.70215 -46.7363 -9.70215q-6.59082 0 -21.2715 0.313477q-14.6797 0.3125 -29.959 2.81641q-15.2783 2.50391 -26.9629 7.51074q-11.6836 5.00781 -11.6836 14.3965v13.7695z" />
<glyph unicode="&#xb4;" horiz-adv-x="181" d="M152 619q-13 -18 -26 -31.5t-25.5 -27t-24.5 -28t-26 -30.5l-29 15q35 45 54 73l28.5 42t12.5 16.5t5.5 -1.5t8.5 -12.5t22 -15.5z" />
<glyph unicode="&#xb5;" horiz-adv-x="458" d="M19 388q0 5 6.5 10t16 8t18.5 4t13 -3q6 -124 23.5 -197.5t40 -107.5t48.5 -34.5t51 22t46.5 61.5t35 84t16.5 90t-8 80l60 7q1 -15 5.5 -49.5t10 -78t12.5 -90.5t12 -87.5t9 -69t4 -35.5h-43l-47 173q-13 -33 -33.5 -63t-44.5 -52t-51 -34t-53.5 -11t-51.5 18.5 t-45 54.5l-6 -116l-12.5 -2.5t-14 -2t-11.5 2t-4 11.5q0 16 1.5 45.5t3 66.5t1.5 79v82t-2.5 75t-6.5 59z" />
<glyph unicode="&#xb6;" horiz-adv-x="372" d="M223 277q-20 -21 -35.5 -33t-30.5 -18t-31.5 -8.5t-39.5 -2.5q-18 0 -32 8t-23.5 21.5t-15 31.5t-5.5 39q0 136 136 136h45t49 -1t51.5 -4.5t51.5 -11.5q3 -55 6 -84.5t4.5 -45t2 -24t1 -22.5t0.5 -41v-80q0 -11 1 -30t2.5 -37t2.5 -32t1 -15l-42 -9q-2 41 -3 71.5t-2 57 t-2 50.5t-2 53t-3 64.5t-5 84.5q-4 0 -8 1t-8.5 1t-8.5 2v-4v-4q3 -47 6 -85t5.5 -74.5t3.5 -75.5t1 -88v-9.5t-0.5 -14.5t-0.5 -15v-9q-24 -7 -34 3t-12 31.5t0.5 50.5t2.5 60t-5.5 60.5t-23.5 51.5z" />
<glyph unicode="&#xb7;" horiz-adv-x="172" d="M99 166q-24 14 -33 31t-7.5 32.5t11 27t23 13t29 -8t27.5 -35.5q0 -11 -3.5 -21.5t-10 -19t-16 -14t-20.5 -5.5zM108 225q-5 1 -6.5 -2t-1.5 -7.5t1.5 -8t6.5 -2.5q9 3 9 10.5t-9 9.5z" />
<glyph unicode="&#xb8;" horiz-adv-x="324" d="M95 -158q12 0 22.5 -5t21 -12t21 -12t22.5 -5q14 -2 31 5.5t30.5 20t19.5 27t-2.5 24.5t-35.5 14t-80 -3q-9 0 -19 6t-17.5 16.5t-12 22t-4.5 21.5q-5 30 3.5 48.5t18.5 20t14.5 -15.5t-9.5 -59q0 -15 12.5 -18.5t31 -2.5t40.5 2.5t40.5 -4t31 -22t12.5 -51.5 q0 -22 -10 -38.5t-26 -27t-35.5 -14.5t-38.5 -1q-8 0 -22 4.5t-27 12t-23 19.5t-10 27z" />
<glyph unicode="&#xb9;" horiz-adv-x="258" d="M19.0264 149.092q12.2324 2.17285 18.6699 2.9873q6.43848 0.814453 10.623 1.35742t7.40332 0.542969t8.36914 0.542969t13.8418 1.62891t24.7871 4.34473q5.79395 14.6611 9.0127 33.9395q3.21875 19.2773 5.15039 41.2695q1.93164 21.9932 2.89746 45.3438 q0.964844 23.3496 1.60938 46.1572q0.643555 22.8066 1.93164 44.2568q1.28711 21.4492 3.8623 38.8262q-0.643555 0 -2.89746 0.271484q-2.25293 0.271484 -2.89648 0.271484q-13.5195 0 -26.0742 -4.88672q-12.5537 -4.8877 -24.7861 -10.5889 q-12.2324 -5.70215 -24.7861 -10.5898q-12.5547 -4.88672 -26.7178 -4.88672l-2.5752 20.0918q0.643555 0 8.36914 3.25879q7.72559 3.25781 19.6357 7.33008q11.9111 4.07324 27.04 9.23145q15.1289 5.15918 29.9365 9.77539q14.8076 4.61523 28.0049 8.41699 q13.1982 3.80078 22.8555 5.42969v-273.144q5.79395 -4.8877 17.0605 -5.70215t23.8203 -0.271484q12.5547 0.542969 25.1084 1.08594t21.5674 -1.08594l-0.644531 -22.2637q-26.3955 0 -52.1475 -2.17285q-25.752 -2.17188 -51.1816 -4.61523 q-25.4307 -2.44434 -50.8604 -4.61621t-50.5381 -2.17188q-7.08203 0 -9.0127 6.5166q-1.93164 6.51562 -6.43848 14.1182z" />
<glyph unicode="&#xba;" horiz-adv-x="230" d="M9.13379 259.461q0 13.7568 2.68848 32q2.68945 18.2441 8.73926 36.7861q6.05078 18.542 15.126 36.4873q9.0752 17.9434 21.8477 32t29.5781 22.7295q16.8066 8.67285 37.6465 8.67285q21.5117 0 39.998 -13.1582q18.4863 -13.1602 31.5947 -34.0947 q13.1094 -20.9346 19.8311 -46.6553q6.72266 -25.7207 5.37891 -50.2441q0 -35.8887 -15.4619 -64.002q-15.4619 -28.1123 -39.3262 -45.459q-23.8643 -17.3457 -51.0908 -23.3271q-27.2256 -5.98145 -51.0898 3.29004t-39.6621 34.9912t-15.7979 69.9834zM34.0068 257.068 q2.0166 -36.4873 14.1172 -56.2266q12.1006 -19.7383 29.2422 -26.0186q17.1426 -6.28027 37.3096 -0.299805q20.167 5.98242 37.6455 21.2344q17.4785 15.2529 29.915 38.2812q12.4355 23.0293 13.7803 51.7402q1.34473 21.5332 -3.69727 41.8691 q-5.04199 20.3379 -14.1172 36.1885t-22.1836 25.1221t-29.915 9.27148q-16.1338 0 -28.9062 -7.17773t-23.1924 -19.4404q-10.4199 -12.2617 -17.8145 -27.8135t-12.4365 -31.1035q-5.04102 -15.5518 -7.39453 -30.2061q-2.35254 -14.6553 -2.35254 -25.4209z" />
<glyph unicode="&#xbb;" horiz-adv-x="482" d="M259 268l-230 192v58q8 -7 24.5 -20.5t37.5 -30.5t43.5 -36t43.5 -35.5t37.5 -30t25.5 -19.5q9 -7 22 -12.5t25.5 -13t21.5 -17t9 -24.5q0 -2 -0.5 -5.5t-1.5 -5.5q-7 -9 -20 -28.5t-30 -44t-36 -52t-36 -52t-30.5 -44t-19.5 -28.5q-9 -11 -17 -17.5t-22 -6.5v43z M395 287l-230 192v58q7 -7 23.5 -21t37.5 -30.5t44 -35.5t44 -36t37.5 -30.5t24.5 -19.5q9 -7 22.5 -12.5t25.5 -12.5t21 -16.5t9 -25.5v-5t-1 -5q-7 -9 -20 -29t-30.5 -44.5t-36 -51.5t-35.5 -52t-30.5 -44.5t-20.5 -28.5q-8 -10 -16 -17t-22 -7v44z" />
<glyph unicode="&#xbc;" horiz-adv-x="630" d="M23.4082 163.722q11.8115 2.02344 18.0293 2.78223q6.2168 0.759766 10.2578 1.26562t7.14941 0.505859t8.08203 0.505859t13.3672 1.51758q8.39258 1.01172 23.9355 4.04785q5.59473 13.6621 8.7041 31.624q3.1084 17.9629 4.97266 38.4551 q1.86523 20.4922 2.79785 42.249t1.55469 43.0088q0.62207 21.251 1.86523 41.2373t3.72949 36.1777q-0.621094 0 -2.79688 0.25293t-2.79785 0.25293q-13.0557 0 -25.1787 -4.55371q-12.124 -4.55371 -23.9355 -9.86719q-11.8125 -5.3125 -23.9365 -9.86621 q-12.123 -4.55371 -25.7998 -4.55371l-2.4873 18.7207q0.62207 0 8.08203 3.03613q7.46094 3.03613 18.9619 6.83105q11.502 3.79492 26.1113 8.60156q14.6104 4.80664 28.9102 9.10742q14.2988 4.30078 27.0439 7.84277t22.0703 5.05957v-254.508 q5.59473 -4.55469 16.4746 -5.31348t23.0039 -0.25293l24.2461 1.01172t20.8271 -1.01172l-0.62207 -20.7451q-25.4893 0 -50.3574 -2.02441q-24.8682 -2.02344 -49.4258 -4.30078q-24.5576 -2.27637 -49.1143 -4.30078q-24.5576 -2.02344 -48.8047 -2.02344 q-6.83789 0 -8.70312 6.07129q-1.86523 6.07227 -6.2168 13.1562zM255.229 543.068q1.4082 6.02344 3.52051 13.5527q2.11133 7.52832 5.2793 10.0381t7.3916 -2.00781q4.22461 -4.51758 10.5605 -21.583l-114.045 -551.11l-21.1191 30.1152zM386.464 209.398 q-2.1123 0 -8.44922 0.274414q-6.33691 0.273438 -8.44922 0.273438q-16.8984 0 -34.501 -2.19141t-34.8535 -4.38379l-34.5 -4.38281q-17.251 -2.19141 -35.5576 -2.19141q0 21.916 2.81641 43.2852q2.81641 21.3682 6.33691 43.0107t5.98438 43.2852 q2.46484 21.6426 2.46484 43.0107q2.81641 0 7.04102 -1.0957t7.74512 -3.01367q3.52051 -1.91699 6.33691 -4.38281t2.81641 -4.65723v-123.28q0.704102 0 9.15332 -0.822266t20.4189 -1.37012t25.6992 -0.821289q13.7305 -0.274414 25.3477 0.821289 q11.6182 1.09668 19.7148 3.28809q8.09766 2.19141 8.09766 7.12305v117.801q2.1123 0 8.09766 -1.0957q5.98438 -1.0957 11.6172 -3.01367t9.85742 -4.10938t4.22461 -4.38281v-100.269h105.615q-2.1123 -6.02637 -3.52051 -11.5059q-0.704102 -4.38379 -2.1123 -8.7666 q-1.4082 -4.38379 -2.81641 -6.02734q-14.082 -3.28711 -31.332 -4.10938q-17.251 -0.821289 -32.0371 -1.0957q-14.7861 -0.273438 -24.9961 0q-10.209 0.274414 -10.9131 0.274414l2.1123 -205.468h-27.46v199.988z" />
<glyph unicode="&#xbd;" horiz-adv-x="662" d="M38.6553 158.682q11.9805 2.23535 18.2861 3.07422q6.30566 0.837891 10.4043 1.39746q4.09863 0.558594 7.25098 0.558594q3.15332 0 8.19727 0.55957q5.04492 0.558594 13.5576 1.67676q8.51172 1.11816 24.2764 4.47168q5.6748 15.0918 8.82715 34.9346 q3.15332 19.8428 5.04492 42.4814q1.8916 22.6377 2.83691 46.6729q0.946289 24.0352 1.57715 47.5117q0.629883 23.4766 1.8916 45.5547q1.26074 22.0791 3.7832 39.9658q-0.630859 0 -2.83789 0.279297q-2.20703 0.280273 -2.83691 0.280273q-13.2422 0 -25.5381 -5.03125 q-12.2959 -5.03027 -24.2764 -10.8994t-24.2764 -10.8994q-12.2959 -5.03125 -26.168 -5.03125l-2.52246 20.6816q0.630859 0 8.19727 3.35352q7.56738 3.35449 19.2324 7.5459q11.665 4.19238 26.4834 9.50293q14.8174 5.30957 29.3203 10.0615 q14.5029 4.75098 27.4297 8.66309q12.9258 3.91309 22.3848 5.58984v-281.157q5.6748 -5.03027 16.709 -5.86816q11.0352 -0.838867 23.3311 -0.280273q12.2959 0.55957 24.5918 1.11816q12.2949 0.55957 21.123 -1.11816l-0.630859 -22.917q-25.8525 0 -51.0742 -2.23535 q-25.2227 -2.23633 -50.1289 -4.75195q-24.9072 -2.51465 -49.8145 -4.75098q-24.9062 -2.23535 -49.498 -2.23535q-6.93652 0 -8.82812 6.70703q-1.8916 6.70801 -6.30566 14.5332zM362 532q2 6 5 13.5t7.5 10t10.5 -2t15 -21.5l-162 -549l-30 30zM347.657 23.3438 q-17.5654 -9.6582 -31.8779 -11.5898q-14.3125 -1.93066 -32.5293 -1.93066q-7.15625 0 -15.9385 0.96582q-8.7832 0.964844 -16.2646 4.50684q-7.48145 3.54102 -12.3604 9.65723q-4.87988 6.11719 -4.87988 17.0625q0 6.43848 13.0117 9.01465 q13.0117 2.5752 32.8535 6.11621q19.8428 3.54102 42.9385 10.624q23.0947 7.08203 42.9375 22.8564t33.1797 43.4609q13.3369 27.6855 13.3369 71.4688q0 18.6719 -3.25293 38.9531t-11.7109 37.0215q-8.45703 16.7412 -23.7461 28.0088q-15.2881 11.2666 -39.3594 11.2666 q-9.75879 0 -17.5654 -4.50684t-14.3125 -10.623q-6.50586 -6.11719 -12.3613 -13.8438q-5.85449 -7.72559 -12.6855 -14.1641q-6.83105 -6.43945 -14.9639 -10.624q-8.13184 -4.18555 -19.8418 -4.18555q0 17.3848 8.13184 32.5156t21.4688 26.3975 q13.3369 11.2676 29.9268 17.707q16.5898 6.43848 33.5049 6.43848q26.0225 0 47.166 -12.8779q21.1436 -12.877 35.7812 -32.8369q14.6387 -19.959 22.4453 -44.1035q7.80664 -24.1455 7.80664 -47.3242q0 -22.5352 -6.50586 -44.4258q-6.50586 -21.8916 -17.2402 -42.4951 t-24.0713 -39.2754t-27.6494 -34.7686q14.3125 -12.2334 33.5049 -19.3154q19.1924 -7.08301 39.3594 -10.9463q20.168 -3.86328 40.0107 -5.47266t36.7578 -1.60938q0.650391 -0.643555 0.975586 -2.89746t0.325195 -2.89746q0 -7.08203 -5.20508 -11.2676 q-5.2041 -4.18457 -12.3604 -6.11621t-14.9639 -2.25391q-7.80664 -0.322266 -13.0107 -0.322266q-17.5654 0 -33.1797 3.21973q-15.6133 3.21875 -31.2275 8.69238q-15.6133 5.47266 -31.8779 12.2334q-16.2646 6.75977 -34.4805 14.4863zM310.574 34.9336 q1.30176 3.21875 -2.92676 4.50684q-4.22949 1.28809 -9.43359 1.28809q-5.20508 0 -9.75879 -1.28809t-3.25293 -4.50684q1.95215 -2.57617 5.53027 -3.86328q3.57812 -1.28809 7.48145 -1.28809t7.15625 1.28809q3.25293 1.28711 5.2041 3.86328z" />
<glyph unicode="&#xbe;" horiz-adv-x="1070" d="M49 60q17 0 33.5 -3.5t33 -8t33.5 -8t35 -3.5q33 0 64.5 10.5t55.5 30.5t38 49t14 66q0 26 -12 47.5t-31.5 36.5t-43.5 23.5t-47 8.5h-10.5t-12.5 -0.5t-10.5 -1t-5.5 -0.5q-2 0 -10.5 -3t-18 -6.5t-18.5 -6.5t-11 -3t-5 2t-6.5 5t-5.5 6.5t-2 5.5q6 6 23 22.5t35.5 34.5 t34.5 34.5t22 23.5q4 5 10.5 14t12.5 18t10.5 16.5t4.5 9.5q-6 32 -22.5 42t-39 7t-48 -16.5t-49.5 -29t-44.5 -29t-32.5 -18.5q0 33 20.5 59t50.5 44.5t65 28t64 9.5q14 0 27 -8.5t24 -21.5t17.5 -28.5t6.5 -28.5q0 -16 -5.5 -33.5t-13.5 -34t-18.5 -31.5t-19.5 -27 q26 -8 53.5 -22.5t49.5 -35t36 -47t14 -57.5q0 -43 -14.5 -80.5t-40.5 -65t-62 -43t-78 -15.5q-11 0 -35.5 0.5t-50 4.5t-45 12t-19.5 23v22zM571 538q2 6 5 13.5t7.5 10t10.5 -2t15 -21.5l-162 -549l-30 30zM864 384q-3 0 -12 0.5t-12 0.5q-24 0 -49 -4t-49.5 -8l-49 -8 t-50.5 -4q0 40 4 79t9 78.5t8.5 79t3.5 78.5q4 0 10 -2t11 -5.5t9 -8t4 -8.5v-225q1 0 13 -1.5t29 -2.5t36.5 -1.5t36 1.5t28 6t11.5 13v215q3 0 11.5 -2t16.5 -5.5t14 -7.5t6 -8v-183h150q-3 -11 -5 -21q-1 -8 -3 -16t-4 -11q-20 -6 -44.5 -7.5t-45.5 -2t-35.5 0t-15.5 0.5 l3 -375h-39v365z" />
<glyph unicode="&#xbf;" horiz-adv-x="322" d="M160.358 492.359q0 -10.4844 3.59082 -16.2031t13.4668 -11.4375q10.7734 5.71875 14.8125 11.4375q4.04004 5.71875 4.04004 16.2031t-4.04004 16.2031q-4.03906 5.71875 -14.8125 11.4375q-9.87598 -5.71875 -13.4668 -11.4375t-3.59082 -16.2031zM125.346 235.969 q0 -20.9688 10.3242 -35.2656t26.0352 -25.2578t34.1152 -20.4922t33.666 -20.4922t26.0352 -26.2109t10.7734 -37.1719q0 -15.25 -9.87598 -24.7812q-9.875 -9.53125 -23.791 -14.2969q-13.915 -4.76562 -29.1768 -6.19531t-25.1377 -1.42969q-18.8525 0 -35.9102 8.57812 t-33.2178 20.0156t-30.9727 20.0156q-14.8135 8.57812 -29.1777 8.57812q-9.875 0 -15.2617 -4.28906t-10.7734 -14.7734q11.6709 -19.0625 27.8311 -32.8828q16.1592 -13.8203 35.0127 -23.3516q18.8525 -9.53125 39.502 -14.2969q20.6484 -4.76562 41.2969 -4.76562 q16.1602 0 38.6035 4.28906q22.4443 4.28906 43.542 14.2969t35.9111 25.7344q14.8125 15.7266 14.8125 39.5547q0 24.7812 -15.2617 51.4688t-35.4619 50.5156q-20.1992 23.8281 -42.6436 42.8906t-36.8086 29.5469v85.7812q-16.1602 0 -25.1377 -10.4844 t-13.0176 -25.2578t-4.9375 -31.4531t-0.897461 -28.1172z" />
<glyph unicode="&#xc0;" horiz-adv-x="398" d="M180 623q37 0 64.5 -21.5t48 -57.5t34.5 -83t23 -98.5t14 -104t7 -98.5t2.5 -83t0.5 -58h-24l-38 211q-5 5 -22.5 6t-41 -1t-51 -5.5t-52 -5t-44.5 -1t-29 6.5v-211h-51q0 3 0.5 11.5t0.5 17.5t1 17t1 11q6 58 9.5 117.5t8.5 115.5t13.5 107t24.5 92.5t40 71t60 43.5z M196 577q-26 0 -43.5 -18.5t-28.5 -48t-17 -65.5t-8 -70.5t-2.5 -64t-0.5 -45.5q49 0 100 7.5t96 15.5q1 4 1.5 13t1 20t1 21t0.5 13q0 33 -3.5 63t-14 58.5t-30 53.5t-52.5 47zM172 808q18 -18 27.5 -32.5t16.5 -29t15 -31.5t23 -41q0 -7 -3 -9.5t-8.5 -4t-12 -3 t-14.5 -5.5q-13 22 -20 35t-13.5 24t-15 24.5t-23.5 36.5z" />
<glyph unicode="&#xc1;" horiz-adv-x="398" d="M180 623q37 0 64.5 -21.5t48 -57.5t34.5 -83t23 -98.5t14 -104t7 -98.5t2.5 -83t0.5 -58h-24l-38 211q-5 5 -22.5 6t-41 -1t-51 -5.5t-52 -5t-44.5 -1t-29 6.5v-211h-51q0 3 0.5 11.5t0.5 17.5t1 17t1 11q6 58 9.5 117.5t8.5 115.5t13.5 107t24.5 92.5t40 71t60 43.5z M196 577q-26 0 -43.5 -18.5t-28.5 -48t-17 -65.5t-8 -70.5t-2.5 -64t-0.5 -45.5q49 0 100 7.5t96 15.5q1 4 1.5 13t1 20t1 21t0.5 13q0 33 -3.5 63t-14 58.5t-30 53.5t-52.5 47zM259 773q-13 -18 -26 -31.5t-25.5 -27t-24.5 -28t-26 -30.5l-29 15q35 45 54 73l28.5 42 t12.5 16.5t5.5 -1.5t8.5 -12.5t22 -15.5z" />
<glyph unicode="&#xc2;" horiz-adv-x="398" d="M180 623q37 0 64.5 -21.5t48 -57.5t34.5 -83t23 -98.5t14 -104t7 -98.5t2.5 -83t0.5 -58h-24l-38 211q-5 5 -22.5 6t-41 -1t-51 -5.5t-52 -5t-44.5 -1t-29 6.5v-211h-51q0 3 0.5 11.5t0.5 17.5t1 17t1 11q6 58 9.5 117.5t8.5 115.5t13.5 107t24.5 92.5t40 71t60 43.5z M196 577q-26 0 -43.5 -18.5t-28.5 -48t-17 -65.5t-8 -70.5t-2.5 -64t-0.5 -45.5q49 0 100 7.5t96 15.5q1 4 1.5 13t1 20t1 21t0.5 13q0 33 -3.5 63t-14 58.5t-30 53.5t-52.5 47zM209 830q-13 -17 -26 -31t-25 -27.5t-24.5 -27.5t-26.5 -31l-29 15l134 182q18 -18 31.5 -39 t25.5 -44t24 -47t27 -48q0 -7 -3 -9.5t-8.5 -4t-12 -3t-14.5 -5.5q-13 22 -20.5 35t-13.5 24.5t-14.5 24.5t-24.5 36z" />
<glyph unicode="&#xc3;" horiz-adv-x="398" d="M180 623q37 0 64.5 -21.5t48 -57.5t34.5 -83t23 -98.5t14 -104t7 -98.5t2.5 -83t0.5 -58h-24l-38 211q-5 5 -22.5 6t-41 -1t-51 -5.5t-52 -5t-44.5 -1t-29 6.5v-211h-51q0 3 0.5 11.5t0.5 17.5t1 17t1 11q6 58 9.5 117.5t8.5 115.5t13.5 107t24.5 92.5t40 71t60 43.5z M196 577q-26 0 -43.5 -18.5t-28.5 -48t-17 -65.5t-8 -70.5t-2.5 -64t-0.5 -45.5q49 0 100 7.5t96 15.5q1 4 1.5 13t1 20t1 21t0.5 13q0 33 -3.5 63t-14 58.5t-30 53.5t-52.5 47zM149 704q-11 8 -17.5 2.5t-11.5 -17t-9 -25t-8 -21.5t-9 -6.5t-11 19.5q0 47 15 66t49 19 q19 -9 31.5 -21.5l23 -23t19 -16.5t18.5 -2t23 20.5t31 51.5q6 0 13.5 -5t7.5 -15q-16 -41 -31.5 -61.5t-29.5 -26t-28 0.5t-27 17t-25 23t-24 21z" />
<glyph unicode="&#xc4;" horiz-adv-x="398" d="M180 623q37 0 64.5 -21.5t48 -57.5t34.5 -83t23 -98.5t14 -104t7 -98.5t2.5 -83t0.5 -58h-24l-38 211q-5 5 -22.5 6t-41 -1t-51 -5.5t-52 -5t-44.5 -1t-29 6.5v-211h-51q0 3 0.5 11.5t0.5 17.5t1 17t1 11q6 58 9.5 117.5t8.5 115.5t13.5 107t24.5 92.5t40 71t60 43.5z M196 577q-26 0 -43.5 -18.5t-28.5 -48t-17 -65.5t-8 -70.5t-2.5 -64t-0.5 -45.5q49 0 100 7.5t96 15.5q1 4 1.5 13t1 20t1 21t0.5 13q0 33 -3.5 63t-14 58.5t-30 53.5t-52.5 47zM77 698q-3 15 1 23t12 12t18 5t18 1t17.5 -1t17.5 -5t12 -12t0 -23q-3 -14 -17 -27t-30 -13 q-8 0 -16 3.5t-14.5 9.5t-11 13t-7.5 14zM225 698q-4 15 0.5 23t12.5 12t18 5t18 1q7 0 17 -1t18 -5t12 -12t0 -23q-1 -7 -6 -14t-11.5 -13t-14.5 -9.5t-15 -3.5q-17 0 -31 13t-18 27z" />
<glyph unicode="&#xc5;" horiz-adv-x="398" d="M137 661q0 7 1 18.5t5.5 21.5t12.5 17.5t22 7.5q36 0 54 -20.5t18 -47.5q0 -9 -3 -19.5t-9 -19.5q-6 -8 -14 -15q15 -5 28 -15q28 -21 48.5 -57t34.5 -83t23 -98.5t13.5 -104t7 -98.5t3 -83t0.5 -58h-24l-39 211q-5 5 -22 6t-41 -1t-51 -5.5t-52 -5t-45 -1t-29 6.5v-211 h-51q0 3 0.5 11.5t1 17.5t1 17t0.5 11q6 58 9.5 117.5t9 115.5t14 107t24 92.5t39.5 70.5q18 22 42 35l-1 1q-11 6 -18 15.5t-10 20.5t-3 22zM204 565q-26 0 -44 -18.5t-28.5 -48t-16.5 -65.5t-8.5 -70.5t-3 -64t-0.5 -45.5q49 0 100 7.5t97 15.5q1 4 1 13t1 20t1.5 21 t0.5 13q0 33 -3.5 63t-14 58.5t-30.5 53.5t-52 47zM157 661q10 -27 20 -34.5t19 -3.5t16 15.5t11 24.5q-3 21 -15.5 31t-25 9.5t-21 -11t-4.5 -31.5z" />
<glyph unicode="&#xc6;" horiz-adv-x="794" d="M298 538q16 23 42.5 39.5t59.5 27.5t70 17t73.5 9t70 4t59.5 1q3 0 9.5 -0.5t14.5 -1t14.5 -0.5h9.5q4 -22 -4.5 -30.5t-22 -10t-28 1t-22.5 0.5q-10 -1 -31 -5.5t-47.5 -10t-55.5 -12t-56 -12t-48 -10.5t-30 -7q-17 -6 -19 -15t-2 -21q0 -21 3 -47t6 -51.5t6.5 -46.5 t5.5 -31q3 -1 14 -1h15q23 0 45 4t44.5 9t45 8.5t46.5 3.5v-37q-9 0 -27.5 -1.5t-40 -5.5t-43.5 -8.5t-40 -9.5t-29.5 -10t-11.5 -10v-208q48 0 94.5 3t93 6.5t93.5 6.5t94 3q0 -12 -7.5 -19.5t-18.5 -12t-22.5 -6.5t-18.5 -3q-4 -1 -25 -3t-52 -6t-69 -8t-75 -8t-70 -7.5 t-55 -5.5q-3 -1 -9 -1v37l-35 194q-5 5 -22.5 6t-41 -1t-51 -5.5t-52 -5t-44.5 -1t-29 6.5v-211h-51q0 3 0.5 11.5t0.5 17.5t1 17t1 11q6 58 9.5 117.5t8.5 115.5t13.5 107t24.5 92.5t40 71t60 43.5q37 0 64.5 -21.5t47.5 -57.5l7 -12q0 2 -1 6zM196 577q-26 0 -43.5 -18.5 t-28.5 -48t-17 -65.5t-8 -70.5t-2.5 -64t-0.5 -45.5q49 0 100 7.5t96 15.5q1 4 1.5 13t1 20t1 21t0.5 13q0 33 -3.5 63t-14 58.5t-30 53.5t-52.5 47z" />
<glyph unicode="&#xc7;" horiz-adv-x="436" d="M166 -172q12 0 22.5 -5t21 -12t21 -12t22.5 -5q13 -3 30.5 5t31 20.5t19.5 26.5t-3 24.5t-36 14.5t-79 -4q-10 0 -19.5 6.5t-17 16.5t-12 22t-4.5 22q-6 30 3 49l2 4q-36 4 -62 21q-35 24 -56 61.5t-29 84t-8 91.5q0 31 6.5 69.5t19.5 78t32.5 77t45 67t58 47.5t71.5 18 q28 0 47.5 -11t31.5 -29t17.5 -40.5t5.5 -45.5q-22 0 -33 13.5t-20.5 30t-22 30t-37.5 13.5q-33 0 -58.5 -18t-44.5 -46.5t-31.5 -64.5t-20 -72t-10.5 -69.5t-3 -56.5q-4 -34 -0.5 -70.5t16.5 -67t38 -51t66 -23.5q26 0 58 8.5t63.5 20t60.5 25t49 23.5v-39q-1 0 -12.5 -4.5 t-30 -11.5t-41.5 -15l-47 -17q-23 -8 -44.5 -15.5t-36.5 -12.5h-4q-2 -1 -3 0q3 -18 -9 -58q0 -16 12 -19t31 -2t40.5 2.5t40.5 -4t31.5 -22t12.5 -51.5q0 -22 -10.5 -38.5t-26 -27t-35 -14.5t-39.5 -2q-8 1 -22 5t-27 12t-22.5 19.5t-9.5 27.5z" />
<glyph unicode="&#xc8;" horiz-adv-x="504" d="M14 538q16 23 42.5 39.5t59 27.5t70 17t73.5 9t70 4t60 1q2 0 9 -0.5t15 -1t14.5 -0.5h9.5q4 -22 -4.5 -30.5t-22 -10t-28.5 1t-22 0.5q-10 -1 -31.5 -5.5t-47.5 -10t-55.5 -12t-56 -12t-47.5 -10.5t-31 -7q-16 -6 -18 -15t-2 -21q0 -21 2.5 -47t6 -51.5t7 -46.5t4.5 -31 q4 -1 15 -1h15q23 0 45 4t44 9t45 8.5t47 3.5v-37q-10 0 -28 -1.5t-39.5 -5.5t-43.5 -8.5t-40 -9.5t-29.5 -10t-11.5 -10v-208q47 0 93.5 3t93.5 6.5t94 6.5t94 3q0 -12 -8 -19.5t-18.5 -12t-22.5 -6.5l-18 -3q-4 -1 -25 -3t-52 -6t-69 -8t-75 -8t-70 -7.5t-55 -5.5 q-3 -1 -9 -1q0 134 -8.5 270.5t-40.5 268.5zM225 808q18 -18 27.5 -32.5t16.5 -29t15 -31.5t23 -41q0 -7 -3 -9.5t-8.5 -4t-12 -3t-14.5 -5.5q-13 22 -20 35t-13.5 24t-15 24.5t-23.5 36.5z" />
<glyph unicode="&#xc9;" horiz-adv-x="504" d="M14 538q16 23 42.5 39.5t59 27.5t70 17t73.5 9t70 4t60 1q2 0 9 -0.5t15 -1t14.5 -0.5h9.5q4 -22 -4.5 -30.5t-22 -10t-28.5 1t-22 0.5q-10 -1 -31.5 -5.5t-47.5 -10t-55.5 -12t-56 -12t-47.5 -10.5t-31 -7q-16 -6 -18 -15t-2 -21q0 -21 2.5 -47t6 -51.5t7 -46.5t4.5 -31 q4 -1 15 -1h15q23 0 45 4t44 9t45 8.5t47 3.5v-37q-10 0 -28 -1.5t-39.5 -5.5t-43.5 -8.5t-40 -9.5t-29.5 -10t-11.5 -10v-208q47 0 93.5 3t93.5 6.5t94 6.5t94 3q0 -12 -8 -19.5t-18.5 -12t-22.5 -6.5l-18 -3q-4 -1 -25 -3t-52 -6t-69 -8t-75 -8t-70 -7.5t-55 -5.5 q-3 -1 -9 -1q0 134 -8.5 270.5t-40.5 268.5zM312 773q-13 -18 -26 -31.5t-25.5 -27t-24.5 -28t-26 -30.5l-29 15q35 45 54 73l28.5 42t12.5 16.5t5.5 -1.5t8.5 -12.5t22 -15.5z" />
<glyph unicode="&#xca;" horiz-adv-x="504" d="M14 538q16 23 42.5 39.5t59 27.5t70 17t73.5 9t70 4t60 1q2 0 9 -0.5t15 -1t14.5 -0.5h9.5q4 -22 -4.5 -30.5t-22 -10t-28.5 1t-22 0.5q-10 -1 -31.5 -5.5t-47.5 -10t-55.5 -12t-56 -12t-47.5 -10.5t-31 -7q-16 -6 -18 -15t-2 -21q0 -21 2.5 -47t6 -51.5t7 -46.5t4.5 -31 q4 -1 15 -1h15q23 0 45 4t44 9t45 8.5t47 3.5v-37q-10 0 -28 -1.5t-39.5 -5.5t-43.5 -8.5t-40 -9.5t-29.5 -10t-11.5 -10v-208q47 0 93.5 3t93.5 6.5t94 6.5t94 3q0 -12 -8 -19.5t-18.5 -12t-22.5 -6.5l-18 -3q-4 -1 -25 -3t-52 -6t-69 -8t-75 -8t-70 -7.5t-55 -5.5 q-3 -1 -9 -1q0 134 -8.5 270.5t-40.5 268.5zM261 830q-13 -17 -26 -31t-25 -27.5t-24.5 -27.5t-26.5 -31l-29 15l134 182q18 -18 31.5 -39t25.5 -44t24 -47t27 -48q0 -7 -3 -9.5t-8.5 -4t-12 -3t-14.5 -5.5q-13 22 -20.5 35t-13.5 24.5t-14.5 24.5t-24.5 36z" />
<glyph unicode="&#xcb;" horiz-adv-x="504" d="M14 538q16 23 42.5 39.5t59 27.5t70 17t73.5 9t70 4t60 1q2 0 9 -0.5t15 -1t14.5 -0.5h9.5q4 -22 -4.5 -30.5t-22 -10t-28.5 1t-22 0.5q-10 -1 -31.5 -5.5t-47.5 -10t-55.5 -12t-56 -12t-47.5 -10.5t-31 -7q-16 -6 -18 -15t-2 -21q0 -21 2.5 -47t6 -51.5t7 -46.5t4.5 -31 q4 -1 15 -1h15q23 0 45 4t44 9t45 8.5t47 3.5v-37q-10 0 -28 -1.5t-39.5 -5.5t-43.5 -8.5t-40 -9.5t-29.5 -10t-11.5 -10v-208q47 0 93.5 3t93.5 6.5t94 6.5t94 3q0 -12 -8 -19.5t-18.5 -12t-22.5 -6.5l-18 -3q-4 -1 -25 -3t-52 -6t-69 -8t-75 -8t-70 -7.5t-55 -5.5 q-3 -1 -9 -1q0 134 -8.5 270.5t-40.5 268.5zM129 698q-3 15 1 23t12 12t18 5t18 1t17.5 -1t17.5 -5t12 -12t0 -23q-3 -14 -17 -27t-30 -13q-8 0 -16 3.5t-14.5 9.5t-11 13t-7.5 14zM277 698q-4 15 0.5 23t12.5 12t18 5t18 1q7 0 17 -1t18 -5t12 -12t0 -23q-1 -7 -6 -14 t-11.5 -13t-14.5 -9.5t-15 -3.5q-17 0 -31 13t-18 27z" />
<glyph unicode="&#xcc;" horiz-adv-x="100" d="M14 703q0 12 8.5 19.5t20.5 7.5h5h5q5 -84 9 -159.5t6.5 -148.5t3.5 -145.5t1 -151.5q0 -11 1.5 -30t3 -37t3 -32.5t1.5 -15.5l-43 -8q-2 41 -4 94.5t-3.5 114t-3 125t-4 127.5t-5 121.5t-5.5 106.5v12zM14 925q18 -18 27.5 -32.5t16.5 -29t15 -31.5t23 -41q0 -7 -3 -9.5 t-8.5 -4t-12 -3t-14.5 -5.5q-13 22 -20 35t-13.5 24t-15 24.5t-23.5 36.5z" />
<glyph unicode="&#xcd;" horiz-adv-x="100" d="M14 703q0 12 8.5 19.5t20.5 7.5h5h5q5 -84 9 -159.5t6.5 -148.5t3.5 -145.5t1 -151.5q0 -11 1.5 -30t3 -37t3 -32.5t1.5 -15.5l-43 -8q-2 41 -4 94.5t-3.5 114t-3 125t-4 127.5t-5 121.5t-5.5 106.5v12zM120 902q-13 -18 -26 -31.5t-25.5 -27t-24.5 -28t-26 -30.5l-29 15 q35 45 54 73l28.5 42t12.5 16.5t5.5 -1.5t8.5 -12.5t22 -15.5z" />
<glyph unicode="&#xce;" horiz-adv-x="100" d="M14 703q0 12 8.5 19.5t20.5 7.5h5h5q5 -84 9 -159.5t6.5 -148.5t3.5 -145.5t1 -151.5q0 -11 1.5 -30t3 -37t3 -32.5t1.5 -15.5l-43 -8q-2 41 -4 94.5t-3.5 114t-3 125t-4 127.5t-5 121.5t-5.5 106.5v12zM66 895q-13 -17 -26 -31t-25 -27.5t-24.5 -27.5t-26.5 -31l-29 15 l134 182q18 -18 31.5 -39t25.5 -44t24 -47t27 -48q0 -7 -3 -9.5t-8.5 -4t-12 -3t-14.5 -5.5q-13 22 -20.5 35t-13.5 24.5t-14.5 24.5t-24.5 36z" />
<glyph unicode="&#xcf;" horiz-adv-x="100" d="M14 703q0 12 8.5 19.5t20.5 7.5h5h5q5 -84 9 -159.5t6.5 -148.5t3.5 -145.5t1 -151.5q0 -11 1.5 -30t3 -37t3 -32.5t1.5 -15.5l-43 -8q-2 41 -4 94.5t-3.5 114t-3 125t-4 127.5t-5 121.5t-5.5 106.5v12zM-83 828q-3 15 1 23t12 12t18 5t18 1t17.5 -1t17.5 -5t12 -12 t0 -23q-3 -14 -17 -27t-30 -13q-8 0 -16 3.5t-14.5 9.5t-11 13t-7.5 14zM65 828q-4 15 0.5 23t12.5 12t18 5t18 1q7 0 17 -1t18 -5t12 -12t0 -23q-1 -7 -6 -14t-11.5 -13t-14.5 -9.5t-15 -3.5q-17 0 -31 13t-18 27z" />
<glyph unicode="&#xd0;" horiz-adv-x="538" d="M21 222l1.5 1.5t4.5 1.5t11.5 2.5l22.5 4.5l-23 267q-2 2 -5 7t-6 11.5t-5.5 12t-2.5 8.5q0 9 8 14t18 6t19.5 1h11.5q3 0 8.5 -0.5t12 -1t11.5 -1t7 -0.5q33 -12 75.5 -28t87.5 -37t88 -47.5t77 -60t55 -73.5t21 -89q0 -42 -16 -75.5t-42.5 -58t-61.5 -42t-71.5 -28 t-73.5 -15.5t-69 -5q-7 0 -24 0.5t-35 1.5t-32.5 1.5t-15.5 0.5l-2 37l-12 146h-5q-1 0 -9.5 -0.5t-12.5 -0.5q-12 0 -21 2t-15 17zM95 504v-8t0.5 -13.5t0.5 -13.5v-9q1 -12 1.5 -35.5t2 -53.5t3 -65t3.5 -70l34 3q8 4 24.5 4.5t29 -4t16.5 -13.5t-12 -25 q-16 -2 -28.5 -3.5t-22.5 -3t-19.5 -3t-19.5 -2.5q2 -50 4 -91t3 -60q6 0 19.5 -0.5t28.5 -1t28.5 -1t19.5 -0.5q46 0 91 11.5t80.5 35t58 61t22.5 90.5q0 39 -18 74.5t-47.5 65.5t-67.5 54t-78.5 41.5t-81 26.5t-75.5 9z" />
<glyph unicode="&#xd1;" horiz-adv-x="533" d="M72 595q0 -3 -0.5 -13t-0.5 -20.5v-20v-12.5q0 -65 3 -130t7 -130.5t7 -131.5t3 -132l-36 2q-1 19 -3.5 53t-6 78.5t-7.5 95.5t-8.5 103.5t-7.5 103.5t-5.5 94.5t-3.5 77t0 51.5q0 12 9 20t21 8t27.5 -5.5t20.5 -14.5l360 -581q0 46 -2.5 99t-4.5 109t-2.5 112.5t2 110 t10 101.5t21.5 87q14 5 22 5.5t12 -0.5t4.5 -5t0.5 -8v-6v-5q-2 -6 -4.5 -22t-6.5 -47.5t-7 -81.5t-6 -124t-4.5 -176t-0.5 -238l-29 -2zM212 779q-11 8 -17.5 2.5t-11.5 -17t-9 -25t-8 -21.5t-9 -6.5t-11 19.5q0 47 15 66t49 19q19 -9 31.5 -21.5l23 -23t19 -16.5t18.5 -2 t23 20.5t31 51.5q6 0 13.5 -5t7.5 -15q-16 -41 -31.5 -61.5t-29.5 -26t-28 0.5t-27 17t-25 23t-24 21z" />
<glyph unicode="&#xd2;" horiz-adv-x="442" d="M18 332q0 33 4.5 70t15 72.5t27 68t40 57t55 39t71.5 14.5q35 0 62 -19.5t47 -51t33 -71.5t21.5 -80.5t11.5 -78t3 -64.5q-4 -59 -17 -108.5t-35.5 -87t-55.5 -61.5t-80 -32q-45 0 -77 16t-55 42t-37 60t-21.5 71t-10 74.5t-2.5 69.5zM56 332q0 -24 1 -54t5.5 -60.5 t13.5 -60t24.5 -52t39 -36.5t56.5 -14q48 -3 79 12t50 46t29 75t16 100q0 22 -2 55t-7.5 69t-15 72.5t-25 66t-37 47.5t-51.5 18q-31 0 -56 -14.5t-44.5 -38t-34 -53.5t-23.5 -61.5t-13.5 -62t-4.5 -54.5zM193 847q18 -18 27.5 -32.5t16.5 -29t15 -31.5t23 -41q0 -7 -3 -9.5 t-8.5 -4t-12 -3t-14.5 -5.5q-13 22 -20 35t-13.5 24t-15 24.5t-23.5 36.5z" />
<glyph unicode="&#xd3;" horiz-adv-x="442" d="M18 332q0 33 4.5 70t15 72.5t27 68t40 57t55 39t71.5 14.5q35 0 62 -19.5t47 -51t33 -71.5t21.5 -80.5t11.5 -78t3 -64.5q-4 -59 -17 -108.5t-35.5 -87t-55.5 -61.5t-80 -32q-45 0 -77 16t-55 42t-37 60t-21.5 71t-10 74.5t-2.5 69.5zM56 332q0 -24 1 -54t5.5 -60.5 t13.5 -60t24.5 -52t39 -36.5t56.5 -14q48 -3 79 12t50 46t29 75t16 100q0 22 -2 55t-7.5 69t-15 72.5t-25 66t-37 47.5t-51.5 18q-31 0 -56 -14.5t-44.5 -38t-34 -53.5t-23.5 -61.5t-13.5 -62t-4.5 -54.5zM279 791q-13 -18 -26 -31.5t-25.5 -27t-24.5 -28t-26 -30.5l-29 15 q35 45 54 73l28.5 42t12.5 16.5t5.5 -1.5t8.5 -12.5t22 -15.5z" />
<glyph unicode="&#xd4;" horiz-adv-x="442" d="M18 332q0 33 4.5 70t15 72.5t27 68t40 57t55 39t71.5 14.5q35 0 62 -19.5t47 -51t33 -71.5t21.5 -80.5t11.5 -78t3 -64.5q-4 -59 -17 -108.5t-35.5 -87t-55.5 -61.5t-80 -32q-45 0 -77 16t-55 42t-37 60t-21.5 71t-10 74.5t-2.5 69.5zM56 332q0 -24 1 -54t5.5 -60.5 t13.5 -60t24.5 -52t39 -36.5t56.5 -14q48 -3 79 12t50 46t29 75t16 100q0 22 -2 55t-7.5 69t-15 72.5t-25 66t-37 47.5t-51.5 18q-31 0 -56 -14.5t-44.5 -38t-34 -53.5t-23.5 -61.5t-13.5 -62t-4.5 -54.5zM230 830q-13 -17 -26 -31t-25 -27.5t-24.5 -27.5t-26.5 -31l-29 15 l134 182q18 -18 31.5 -39t25.5 -44t24 -47t27 -48q0 -7 -3 -9.5t-8.5 -4t-12 -3t-14.5 -5.5q-13 22 -20.5 35t-13.5 24.5t-14.5 24.5t-24.5 36z" />
<glyph unicode="&#xd5;" horiz-adv-x="442" d="M18 332q0 33 4.5 70t15 72.5t27 68t40 57t55 39t71.5 14.5q35 0 62 -19.5t47 -51t33 -71.5t21.5 -80.5t11.5 -78t3 -64.5q-4 -59 -17 -108.5t-35.5 -87t-55.5 -61.5t-80 -32q-45 0 -77 16t-55 42t-37 60t-21.5 71t-10 74.5t-2.5 69.5zM56 332q0 -24 1 -54t5.5 -60.5 t13.5 -60t24.5 -52t39 -36.5t56.5 -14q48 -3 79 12t50 46t29 75t16 100q0 22 -2 55t-7.5 69t-15 72.5t-25 66t-37 47.5t-51.5 18q-31 0 -56 -14.5t-44.5 -38t-34 -53.5t-23.5 -61.5t-13.5 -62t-4.5 -54.5zM173 761q-11 8 -17.5 2.5t-11.5 -17t-9 -25t-8 -21.5t-9 -6.5 t-11 19.5q0 47 15 66t49 19q19 -9 31.5 -21.5l23 -23t19 -16.5t18.5 -2t23 20.5t31 51.5q6 0 13.5 -5t7.5 -15q-16 -41 -31.5 -61.5t-29.5 -26t-28 0.5t-27 17t-25 23t-24 21z" />
<glyph unicode="&#xd6;" horiz-adv-x="442" d="M18 332q0 33 4.5 70t15 72.5t27 68t40 57t55 39t71.5 14.5q35 0 62 -19.5t47 -51t33 -71.5t21.5 -80.5t11.5 -78t3 -64.5q-4 -59 -17 -108.5t-35.5 -87t-55.5 -61.5t-80 -32q-45 0 -77 16t-55 42t-37 60t-21.5 71t-10 74.5t-2.5 69.5zM56 332q0 -24 1 -54t5.5 -60.5 t13.5 -60t24.5 -52t39 -36.5t56.5 -14q48 -3 79 12t50 46t29 75t16 100q0 22 -2 55t-7.5 69t-15 72.5t-25 66t-37 47.5t-51.5 18q-31 0 -56 -14.5t-44.5 -38t-34 -53.5t-23.5 -61.5t-13.5 -62t-4.5 -54.5zM101 727q-3 15 1 23t12 12t18 5t18 1t17.5 -1t17.5 -5t12 -12t0 -23 q-3 -14 -17 -27t-30 -13q-8 0 -16 3.5t-14.5 9.5t-11 13t-7.5 14zM249 727q-4 15 0.5 23t12.5 12t18 5t18 1q7 0 17 -1t18 -5t12 -12t0 -23q-1 -7 -6 -14t-11.5 -13t-14.5 -9.5t-15 -3.5q-17 0 -31 13t-18 27z" />
<glyph unicode="&#xd7;" horiz-adv-x="281" d="M54 341l46 31l57 -65l54 99l39 -28l-56 -119l65 -76l-38 -20l-55 69q-10 -18 -15.5 -30t-9 -22.5l-7 -21t-10.5 -23.5l-39 10l45 125z" />
<glyph unicode="&#xd8;" horiz-adv-x="442" d="M295 642q3 7 7 16t10.5 12t15.5 -2t21 -26l-16 -49q4 -5 7 -10q20 -32 33 -72t21.5 -80.5t11.5 -78t3 -64.5q-4 -59 -17 -108.5t-35.5 -87t-55.5 -61.5t-80 -32q-45 0 -77 16l-8 4l-14 -42l-43 37l13 38l-4 5q-22 26 -36 60t-21.5 71t-10 74.5t-2.5 69.5q0 33 4.5 70 t15 72.5t27 68t40 57t55 39t71.5 14.5q34 0 61 -19zM56 332q0 -24 1 -54t5.5 -60.5t13.5 -60t24 -51.5q3 -6 7 -10l173 503q-20 17 -48 17q-31 0 -56 -14.5t-44.5 -38t-34 -53.5t-23.5 -61.5t-13.5 -62t-4.5 -54.5zM196 55q48 -3 79 12t50 46t29 75t16 100q0 22 -2 55 t-7.5 69t-15 72.5t-25.5 65.5l-1 3l-168 -490q20 -8 45 -8z" />
<glyph unicode="&#xd9;" d="M398 250q-40 -101 -79 -156t-76 -73.5t-70 -4.5t-60.5 51.5t-47 94.5t-31 125t-12 142.5t11.5 146.5l39 -4q-11 -128 -2.5 -222.5t27.5 -157.5t44 -96t48 -38q34 0 60.5 18t47 47t35 66t23.5 75t13 73.5t4 61.5q0 34 -2 60.5t-6.5 52.5t-10 53.5t-12.5 63.5l49 36 q23 -145 39.5 -248.5t28.5 -173t19 -111t11.5 -65t6 -33t1.5 -15.5h-41zM185 837q18 -18 27.5 -32.5t16.5 -29t15 -31.5t23 -41q0 -7 -3 -9.5t-8.5 -4t-12 -3t-14.5 -5.5q-13 22 -20 35t-13.5 24t-15 24.5t-23.5 36.5z" />
<glyph unicode="&#xda;" d="M398 250q-40 -101 -79 -156t-76 -73.5t-70 -4.5t-60.5 51.5t-47 94.5t-31 125t-12 142.5t11.5 146.5l39 -4q-11 -128 -2.5 -222.5t27.5 -157.5t44 -96t48 -38q34 0 60.5 18t47 47t35 66t23.5 75t13 73.5t4 61.5q0 34 -2 60.5t-6.5 52.5t-10 53.5t-12.5 63.5l49 36 q23 -145 39.5 -248.5t28.5 -173t19 -111t11.5 -65t6 -33t1.5 -15.5h-41zM319 773q-13 -18 -26 -31.5t-25.5 -27t-24.5 -28t-26 -30.5l-29 15q35 45 54 73l28.5 42t12.5 16.5t5.5 -1.5t8.5 -12.5t22 -15.5z" />
<glyph unicode="&#xdb;" d="M398 250q-40 -101 -79 -156t-76 -73.5t-70 -4.5t-60.5 51.5t-47 94.5t-31 125t-12 142.5t11.5 146.5l39 -4q-11 -128 -2.5 -222.5t27.5 -157.5t44 -96t48 -38q34 0 60.5 18t47 47t35 66t23.5 75t13 73.5t4 61.5q0 34 -2 60.5t-6.5 52.5t-10 53.5t-12.5 63.5l49 36 q23 -145 39.5 -248.5t28.5 -173t19 -111t11.5 -65t6 -33t1.5 -15.5h-41zM193 819q-13 -17 -26 -31t-25 -27.5t-24.5 -27.5t-26.5 -31l-29 15l134 182q18 -18 31.5 -39t25.5 -44t24 -47t27 -48q0 -7 -3 -9.5t-8.5 -4t-12 -3t-14.5 -5.5q-13 22 -20.5 35t-13.5 24.5 t-14.5 24.5t-24.5 36z" />
<glyph unicode="&#xdc;" d="M398 250q-40 -101 -79 -156t-76 -73.5t-70 -4.5t-60.5 51.5t-47 94.5t-31 125t-12 142.5t11.5 146.5l39 -4q-11 -128 -2.5 -222.5t27.5 -157.5t44 -96t48 -38q34 0 60.5 18t47 47t35 66t23.5 75t13 73.5t4 61.5q0 34 -2 60.5t-6.5 52.5t-10 53.5t-12.5 63.5l49 36 q23 -145 39.5 -248.5t28.5 -173t19 -111t11.5 -65t6 -33t1.5 -15.5h-41zM69 698q-3 15 1 23t12 12t18 5t18 1t17.5 -1t17.5 -5t12 -12t0 -23q-3 -14 -17 -27t-30 -13q-8 0 -16 3.5t-14.5 9.5t-11 13t-7.5 14zM217 698q-4 15 0.5 23t12.5 12t18 5t18 1q7 0 17 -1t18 -5 t12 -12t0 -23q-1 -7 -6 -14t-11.5 -13t-14.5 -9.5t-15 -3.5q-17 0 -31 13t-18 27z" />
<glyph unicode="&#xdd;" horiz-adv-x="454" d="M292 326q-15 22 -40.5 54t-54.5 69.5t-60 77.5t-57.5 77.5t-46.5 70t-29 55.5l20 18q37 -40 64.5 -73.5t49.5 -63t40 -56.5t37.5 -54.5t42.5 -56t54 -60.5q6 28 11.5 62.5t11.5 71.5t13 75.5t16 74t19.5 66.5t24.5 53q1 1 4.5 1h5.5q3 0 8.5 -1t10.5 -3.5t8 -6.5t1 -9 q-11 -23 -22.5 -62t-22 -87.5t-19.5 -105t-16.5 -114.5t-13.5 -115.5t-9 -107.5t-2.5 -91t4.5 -66q-2 -11 -3.5 -16.5t-6.5 -8.5t-15 -3.5t-28 -0.5v336zM306 927q-13 -18 -26 -31.5t-25.5 -27t-24.5 -28t-26 -30.5l-29 15q35 45 54 73l28.5 42t12.5 16.5t5.5 -1.5 t8.5 -12.5t22 -15.5z" />
<glyph unicode="&#xde;" horiz-adv-x="343" d="M58 564q-1 -32 -0.5 -48.5t0.5 -25.5v-13.5v-11t-1 -20t-2 -39.5q16 13 29.5 24t26.5 19t26.5 12t31.5 4q36 0 66 -18t51 -46t32.5 -62.5t11.5 -67.5q-2 -57 -23 -90.5t-55.5 -51t-80.5 -21t-98 0.5v47q18 -16 33.5 -18.5t35.5 -2.5q33 0 60 10t46.5 29t30 44.5 t10.5 56.5q0 27 -3 48t-13.5 38.5t-30 32.5t-53.5 30q-2 1 -9.5 2t-10.5 1q-16 0 -31.5 -9.5t-28.5 -24t-22.5 -32t-13.5 -33.5q-1 -7 -2.5 -33t-2.5 -60.5t-2.5 -73.5t-2.5 -73.5t-2 -60t-2 -33.5l-31 6l-9 564h39z" />
<glyph unicode="&#xdf;" horiz-adv-x="450" d="M78 -128q-3 0 -8.5 27.5t-11.5 73t-11 104t-7 119.5t0 120.5t10 107t23.5 77.5t41.5 34q34 4 71.5 5t68.5 -8t51.5 -30t20.5 -61q0 -20 -4.5 -39.5t-16 -36t-31.5 -30t-52 -22.5q42 3 78 -7.5t63 -32t43 -52t16 -67.5q0 -43 -26 -74t-66 -50.5t-89 -29.5t-94 -11l5 46 q34 3 75 9t76 19t58 35.5t23 59.5t-14.5 59.5t-37.5 35t-51.5 17t-56 6t-51.5 1.5t-38 3l7 57q26 3 51.5 9t46.5 17t34.5 30t13.5 49q0 4 0.5 11t-3 14.5t-12.5 15t-29 12t-52.5 5.5t-81.5 -4q-3 -9 -8 -44t-8.5 -86.5t-5 -114t1.5 -128t12.5 -129.5t26.5 -116z" />
<glyph unicode="&#xe0;" horiz-adv-x="346" d="M19 86q0 57 31.5 83t82.5 26q20 0 37.5 -1t33.5 -5t31.5 -12t32.5 -23q0 3 0.5 12.5t0.5 20.5v20.5v13.5q-1 18 -1 46.5t-4.5 58.5t-18 57t-43.5 41q-21 0 -39 -7t-36 -15t-36 -14.5t-39 -6.5q0 25 15.5 41.5t37.5 25.5t46 12t42 3q18 -3 33.5 -7t29 -16t25 -36.5 t20 -68.5t15 -111.5t10.5 -165.5q2 -13 -8.5 -22.5t-28.5 -16t-40.5 -11t-45.5 -6.5t-44 -3t-35 -1q-18 0 -36.5 6t-34 17.5t-25 28t-9.5 36.5zM149 156q-50 -14 -70 -33.5t-17.5 -37.5t23.5 -32.5t51 -19t65 5t67 37.5q-12 29 -24 44.5t-26 23.5t-31 10t-38 2zM146 654 q18 -18 27.5 -32.5t16.5 -29t15 -31.5t23 -41q0 -7 -3 -9.5t-8.5 -4t-12 -3t-14.5 -5.5q-13 22 -20 35t-13.5 24t-15 24.5t-23.5 36.5z" />
<glyph unicode="&#xe1;" horiz-adv-x="346" d="M19 86q0 57 31.5 83t82.5 26q20 0 37.5 -1t33.5 -5t31.5 -12t32.5 -23q0 3 0.5 12.5t0.5 20.5v20.5v13.5q-1 18 -1 46.5t-4.5 58.5t-18 57t-43.5 41q-21 0 -39 -7t-36 -15t-36 -14.5t-39 -6.5q0 25 15.5 41.5t37.5 25.5t46 12t42 3q18 -3 33.5 -7t29 -16t25 -36.5 t20 -68.5t15 -111.5t10.5 -165.5q2 -13 -8.5 -22.5t-28.5 -16t-40.5 -11t-45.5 -6.5t-44 -3t-35 -1q-18 0 -36.5 6t-34 17.5t-25 28t-9.5 36.5zM149 156q-50 -14 -70 -33.5t-17.5 -37.5t23.5 -32.5t51 -19t65 5t67 37.5q-12 29 -24 44.5t-26 23.5t-31 10t-38 2zM234 619 q-13 -18 -26 -31.5t-25.5 -27t-24.5 -28t-26 -30.5l-29 15q35 45 54 73l28.5 42t12.5 16.5t5.5 -1.5t8.5 -12.5t22 -15.5z" />
<glyph unicode="&#xe2;" horiz-adv-x="346" d="M19 86q0 57 31.5 83t82.5 26q20 0 37.5 -1t33.5 -5t31.5 -12t32.5 -23q0 3 0.5 12.5t0.5 20.5v20.5v13.5q-1 18 -1 46.5t-4.5 58.5t-18 57t-43.5 41q-21 0 -39 -7t-36 -15t-36 -14.5t-39 -6.5q0 25 15.5 41.5t37.5 25.5t46 12t42 3q18 -3 33.5 -7t29 -16t25 -36.5 t20 -68.5t15 -111.5t10.5 -165.5q2 -13 -8.5 -22.5t-28.5 -16t-40.5 -11t-45.5 -6.5t-44 -3t-35 -1q-18 0 -36.5 6t-34 17.5t-25 28t-9.5 36.5zM149 156q-50 -14 -70 -33.5t-17.5 -37.5t23.5 -32.5t51 -19t65 5t67 37.5q-12 29 -24 44.5t-26 23.5t-31 10t-38 2zM182 676 q-13 -17 -26 -31t-25 -27.5t-24.5 -27.5t-26.5 -31l-29 15l134 182q18 -18 31.5 -39t25.5 -44t24 -47t27 -48q0 -7 -3 -9.5t-8.5 -4t-12 -3t-14.5 -5.5q-13 22 -20.5 35t-13.5 24.5t-14.5 24.5t-24.5 36z" />
<glyph unicode="&#xe3;" horiz-adv-x="346" d="M19 86q0 57 31.5 83t82.5 26q20 0 37.5 -1t33.5 -5t31.5 -12t32.5 -23q0 3 0.5 12.5t0.5 20.5v20.5v13.5q-1 18 -1 46.5t-4.5 58.5t-18 57t-43.5 41q-21 0 -39 -7t-36 -15t-36 -14.5t-39 -6.5q0 25 15.5 41.5t37.5 25.5t46 12t42 3q18 -3 33.5 -7t29 -16t25 -36.5 t20 -68.5t15 -111.5t10.5 -165.5q2 -13 -8.5 -22.5t-28.5 -16t-40.5 -11t-45.5 -6.5t-44 -3t-35 -1q-18 0 -36.5 6t-34 17.5t-25 28t-9.5 36.5zM149 156q-50 -14 -70 -33.5t-17.5 -37.5t23.5 -32.5t51 -19t65 5t67 37.5q-12 29 -24 44.5t-26 23.5t-31 10t-38 2zM122 550 q-11 8 -17.5 2.5t-11.5 -17t-9 -25t-8 -21.5t-9 -6.5t-11 19.5q0 47 15 66t49 19q19 -9 31.5 -21.5l23 -23t19 -16.5t18.5 -2t23 20.5t31 51.5q6 0 13.5 -5t7.5 -15q-16 -41 -31.5 -61.5t-29.5 -26t-28 0.5t-27 17t-25 23t-24 21z" />
<glyph unicode="&#xe4;" horiz-adv-x="346" d="M19 86q0 57 31.5 83t82.5 26q20 0 37.5 -1t33.5 -5t31.5 -12t32.5 -23q0 3 0.5 12.5t0.5 20.5v20.5v13.5q-1 18 -1 46.5t-4.5 58.5t-18 57t-43.5 41q-21 0 -39 -7t-36 -15t-36 -14.5t-39 -6.5q0 25 15.5 41.5t37.5 25.5t46 12t42 3q18 -3 33.5 -7t29 -16t25 -36.5 t20 -68.5t15 -111.5t10.5 -165.5q2 -13 -8.5 -22.5t-28.5 -16t-40.5 -11t-45.5 -6.5t-44 -3t-35 -1q-18 0 -36.5 6t-34 17.5t-25 28t-9.5 36.5zM149 156q-50 -14 -70 -33.5t-17.5 -37.5t23.5 -32.5t51 -19t65 5t67 37.5q-12 29 -24 44.5t-26 23.5t-31 10t-38 2zM50 544 q-3 15 1 23t12 12t18 5t18 1t17.5 -1t17.5 -5t12 -12t0 -23q-3 -14 -17 -27t-30 -13q-8 0 -16 3.5t-14.5 9.5t-11 13t-7.5 14zM198 544q-4 15 0.5 23t12.5 12t18 5t18 1q7 0 17 -1t18 -5t12 -12t0 -23q-1 -7 -6 -14t-11.5 -13t-14.5 -9.5t-15 -3.5q-17 0 -31 13t-18 27z" />
<glyph unicode="&#xe5;" horiz-adv-x="346" d="M121 512q0 8 1.5 19t6 21t12 17.5t21.5 7.5q37 0 55 -20.5t18 -47.5q0 -8 -3 -18.5t-10 -20.5q-5 -6 -11 -11l15 -3q16 -4 29.5 -16t25 -36.5t20 -68.5t15 -111.5t10.5 -165.5q2 -13 -8.5 -22.5t-28.5 -16t-40.5 -11t-45.5 -6.5t-44 -3t-35 -1q-18 0 -36.5 6t-34 17.5 t-25 28t-9.5 36.5q0 57 31.5 83t82.5 26q20 0 37.5 -1t33.5 -5t31.5 -12t32.5 -23q0 3 0.5 12.5t0.5 20.5v34q-1 18 -1 46.5t-4.5 58.5t-18 57t-43.5 41q-21 0 -39 -7t-36 -15t-36 -14.5t-39 -6.5q0 25 15.5 41.5t37.5 25.5q19 7 40 11q-6 4 -11 10q-7 10 -10 21.5t-3 21.5z M149 156q-50 -14 -70 -33.5t-17.5 -37.5t23.5 -32.5t51 -19t65 5t67 37.5q-12 29 -24 44.5t-26 23.5t-31 10t-38 2zM142 512q9 -26 19.5 -33.5t19.5 -4t15.5 15.5t10.5 24q-3 21 -15.5 31.5t-25 9.5t-21 -11.5t-3.5 -31.5z" />
<glyph unicode="&#xe6;" horiz-adv-x="580" d="M19 86q0 57 31.5 83t82.5 26q20 0 37.5 -1t33.5 -5t31.5 -12t32.5 -23q0 3 0.5 12.5t0.5 20.5v34q-1 18 -1 46.5t-4.5 58.5t-18 57t-43.5 41q-21 0 -39 -7t-36 -15t-36 -14.5t-39 -6.5q0 25 15.5 41.5t37.5 25.5t46 12t42 3q18 -3 33.5 -7t29 -16t25 -36.5t19.5 -69.5 l2 -10q11 24 26 46q23 31 52 52.5t59 21.5q17 0 34 -7t32 -18.5t27.5 -26t19.5 -30.5t7.5 -31t-8.5 -26l-211 -39q-3 -1 -6 -9.5t-5.5 -21.5t-4 -28.5t-2.5 -30.5q0 -12 -1 -22q1 -21 3 -45q3 -12 10 -21q14 -18 35 -27t47.5 -12t52.5 -3t49 2t38 2q0 -4 -3 -9t-7 -9.5 t-7.5 -8t-5.5 -4.5q-7 -2 -24 -5.5t-35.5 -6.5t-34.5 -5t-21 -2q-32 -6 -55 1t-39 24q-4 4 -8 9q-10 -9 -27 -15q-18 -6 -40.5 -10.5t-45.5 -6.5t-44 -3t-35 -1q-18 0 -36.5 6t-34 17.5t-25 28t-9.5 36.5zM149 156q-50 -14 -70 -33.5t-17.5 -37.5t23.5 -32.5t51 -19t65 5 t67 37.5q-12 29 -24 44.5t-26 23.5t-31 10t-38 2zM425 406q-9 0 -23 -9.5t-27 -24t-21 -31t-6 -28.5q26 -3 54 1t51 12.5t38 20t14.5 23.5t-18.5 21.5t-62 14.5z" />
<glyph unicode="&#xe7;" horiz-adv-x="375" d="M107 -158q12 0 22.5 -5t21 -12t21 -12t22.5 -5q14 -2 31 5.5t30.5 20t19.5 27t-2.5 24.5t-35.5 14t-80 -3q-9 0 -19 6t-17.5 16.5t-12 22t-4.5 21.5q-5 30 3 48l2 3q-27 15 -46 36q-21 24 -32.5 55.5t-11.5 66.5q0 37 12 82t35 83.5t57 64.5t79 26q23 3 37 -4.5 t21.5 -23.5t10 -36.5t3 -42t0 -40t1.5 -30.5h-25q-1 6 -3.5 28.5t-8.5 46.5t-16.5 43t-29.5 19q-28 0 -52.5 -22t-42.5 -53t-29 -64t-11 -55q1 -25 7 -54.5t19.5 -53.5t35.5 -39t54 -9q24 0 46 10t43 21t42.5 21t45.5 10q0 -26 -19 -45.5t-46.5 -31.5t-58 -18t-51.5 -6 q-18 0 -34 3q-1 -17 -10 -45q0 -15 12.5 -18.5t31 -2.5t40.5 2.5t40.5 -4t31 -22t12.5 -51.5q0 -22 -10 -38.5t-26 -27t-35.5 -14.5t-38.5 -1q-8 0 -22 4.5t-27 12t-23 19.5t-10 27z" />
<glyph unicode="&#xe8;" horiz-adv-x="337" d="M26 235q0 30 13 66.5t35.5 68t51 53t59.5 21.5q17 0 33.5 -7t32 -18.5t28 -26t19.5 -30.5t7.5 -31t-8.5 -26l-211 -39q-4 -1 -7 -9.5t-5 -21.5t-3.5 -28.5t-2.5 -30t-1 -26v-17.5q0 -28 13.5 -45.5t34.5 -26.5t47.5 -12t52.5 -3t49 2t38 2q0 -4 -3 -9t-7 -9.5t-8 -8 t-5 -4.5q-8 -2 -24.5 -5.5t-35 -6.5t-34.5 -5t-22 -2q-31 -6 -54 1t-39 24t-26 41.5t-15 52.5t-5.5 58t2.5 58zM171 406q-9 0 -23.5 -9.5t-27 -24t-21 -31t-5.5 -28.5q26 -3 54 1t51 12.5t38 20t14.5 23.5t-19 21.5t-61.5 14.5zM141 654q18 -18 27.5 -32.5t16.5 -29 t15 -31.5t23 -41q0 -7 -3 -9.5t-8.5 -4t-12 -3t-14.5 -5.5q-13 22 -20 35t-13.5 24t-15 24.5t-23.5 36.5z" />
<glyph unicode="&#xe9;" horiz-adv-x="337" d="M26 235q0 30 13 66.5t35.5 68t51 53t59.5 21.5q17 0 33.5 -7t32 -18.5t28 -26t19.5 -30.5t7.5 -31t-8.5 -26l-211 -39q-4 -1 -7 -9.5t-5 -21.5t-3.5 -28.5t-2.5 -30t-1 -26v-17.5q0 -28 13.5 -45.5t34.5 -26.5t47.5 -12t52.5 -3t49 2t38 2q0 -4 -3 -9t-7 -9.5t-8 -8 t-5 -4.5q-8 -2 -24.5 -5.5t-35 -6.5t-34.5 -5t-22 -2q-31 -6 -54 1t-39 24t-26 41.5t-15 52.5t-5.5 58t2.5 58zM171 406q-9 0 -23.5 -9.5t-27 -24t-21 -31t-5.5 -28.5q26 -3 54 1t51 12.5t38 20t14.5 23.5t-19 21.5t-61.5 14.5zM228 619q-13 -18 -26 -31.5t-25.5 -27 t-24.5 -28t-26 -30.5l-29 15q35 45 54 73l28.5 42t12.5 16.5t5.5 -1.5t8.5 -12.5t22 -15.5z" />
<glyph unicode="&#xea;" horiz-adv-x="337" d="M26 235q0 30 13 66.5t35.5 68t51 53t59.5 21.5q17 0 33.5 -7t32 -18.5t28 -26t19.5 -30.5t7.5 -31t-8.5 -26l-211 -39q-4 -1 -7 -9.5t-5 -21.5t-3.5 -28.5t-2.5 -30t-1 -26v-17.5q0 -28 13.5 -45.5t34.5 -26.5t47.5 -12t52.5 -3t49 2t38 2q0 -4 -3 -9t-7 -9.5t-8 -8 t-5 -4.5q-8 -2 -24.5 -5.5t-35 -6.5t-34.5 -5t-22 -2q-31 -6 -54 1t-39 24t-26 41.5t-15 52.5t-5.5 58t2.5 58zM171 406q-9 0 -23.5 -9.5t-27 -24t-21 -31t-5.5 -28.5q26 -3 54 1t51 12.5t38 20t14.5 23.5t-19 21.5t-61.5 14.5zM180 590q-13 -17 -26 -31t-25 -27.5 t-24.5 -27.5t-26.5 -31l-29 15l134 182q18 -18 31.5 -39t25.5 -44t24 -47t27 -48q0 -7 -3 -9.5t-8.5 -4t-12 -3t-14.5 -5.5q-13 22 -20.5 35t-13.5 24.5t-14.5 24.5t-24.5 36z" />
<glyph unicode="&#xeb;" horiz-adv-x="337" d="M26 235q0 30 13 66.5t35.5 68t51 53t59.5 21.5q17 0 33.5 -7t32 -18.5t28 -26t19.5 -30.5t7.5 -31t-8.5 -26l-211 -39q-4 -1 -7 -9.5t-5 -21.5t-3.5 -28.5t-2.5 -30t-1 -26v-17.5q0 -28 13.5 -45.5t34.5 -26.5t47.5 -12t52.5 -3t49 2t38 2q0 -4 -3 -9t-7 -9.5t-8 -8 t-5 -4.5q-8 -2 -24.5 -5.5t-35 -6.5t-34.5 -5t-22 -2q-31 -6 -54 1t-39 24t-26 41.5t-15 52.5t-5.5 58t2.5 58zM171 406q-9 0 -23.5 -9.5t-27 -24t-21 -31t-5.5 -28.5q26 -3 54 1t51 12.5t38 20t14.5 23.5t-19 21.5t-61.5 14.5zM46 544q-3 15 1 23t12 12t18 5t18 1t17.5 -1 t17.5 -5t12 -12t0 -23q-3 -14 -17 -27t-30 -13q-8 0 -16 3.5t-14.5 9.5t-11 13t-7.5 14zM194 544q-4 15 0.5 23t12.5 12t18 5t18 1q7 0 17 -1t18 -5t12 -12t0 -23q-1 -7 -6 -14t-11.5 -13t-14.5 -9.5t-15 -3.5q-17 0 -31 13t-18 27z" />
<glyph unicode="&#xec;" horiz-adv-x="145" d="M67 388q12 0 20.5 1t14.5 -10q3 -45 7 -91.5t8 -93.5t5.5 -94.5t0.5 -92.5q0 -6 -3 -7.5t-8.5 -1t-13 1t-16.5 -1.5zM47 654q18 -18 27.5 -32.5t16.5 -29t15 -31.5t23 -41q0 -7 -3 -9.5t-8.5 -4t-12 -3t-14.5 -5.5q-13 22 -20 35t-13.5 24t-15 24.5t-23.5 36.5z" />
<glyph unicode="&#xed;" horiz-adv-x="145" d="M67 388q12 0 20.5 1t14.5 -10q3 -45 7 -91.5t8 -93.5t5.5 -94.5t0.5 -92.5q0 -6 -3 -7.5t-8.5 -1t-13 1t-16.5 -1.5zM134 619q-13 -18 -26 -31.5t-25.5 -27t-24.5 -28t-26 -30.5l-29 15q35 45 54 73l28.5 42t12.5 16.5t5.5 -1.5t8.5 -12.5t22 -15.5z" />
<glyph unicode="&#xee;" horiz-adv-x="145" d="M67 388q12 0 20.5 1t14.5 -10q3 -45 7 -91.5t8 -93.5t5.5 -94.5t0.5 -92.5q0 -6 -3 -7.5t-8.5 -1t-13 1t-16.5 -1.5zM85 676q-13 -17 -26 -31t-25 -27.5t-24.5 -27.5t-26.5 -31l-29 15l134 182q18 -18 31.5 -39t25.5 -44t24 -47t27 -48q0 -7 -3 -9.5t-8.5 -4t-12 -3 t-14.5 -5.5q-13 22 -20.5 35t-13.5 24.5t-14.5 24.5t-24.5 36z" />
<glyph unicode="&#xef;" horiz-adv-x="145" d="M67 388q12 0 20.5 1t14.5 -10q3 -45 7 -91.5t8 -93.5t5.5 -94.5t0.5 -92.5q0 -6 -3 -7.5t-8.5 -1t-13 1t-16.5 -1.5zM-48 544q-3 15 1 23t12 12t18 5t18 1t17.5 -1t17.5 -5t12 -12t0 -23q-3 -14 -17 -27t-30 -13q-8 0 -16 3.5t-14.5 9.5t-11 13t-7.5 14zM100 544 q-4 15 0.5 23t12.5 12t18 5t18 1q7 0 17 -1t18 -5t12 -12t0 -23q-1 -7 -6 -14t-11.5 -13t-14.5 -9.5t-15 -3.5q-17 0 -31 13t-18 27z" />
<glyph unicode="&#xf0;" horiz-adv-x="331" d="M335 388q-10 -6 -18 -11.5t-16 -10t-17.5 -8.5t-23.5 -9q22 -28 35.5 -64t18 -74t0 -75t-19 -68t-38.5 -52.5t-57 -28.5q-36 -3 -67.5 3t-56.5 24.5t-40 50.5t-16 80q0 30 9.5 49.5t25 30.5t34 15t36.5 4q30 4 51.5 -4.5t38 -27.5t28 -47.5t19.5 -63.5q8 27 5.5 55 t-11.5 57t-21.5 60t-22.5 64q-12 2 -25.5 0.5t-25.5 -4t-23 -5t-18 -0.5q-8 7 -12 18.5t-4 26.5q19 6 39.5 9t49.5 6q-13 32 -27 62.5t-29 58.5l42 29q15 -27 30 -64.5t42 -75.5q9 2 21 9t22.5 13.5t18 10.5t8.5 -1zM115 205q-10 0 -21.5 -1.5t-21.5 -7.5t-16.5 -18.5 t-6.5 -32.5q0 -22 10 -38.5t26.5 -29t36.5 -20.5t39.5 -13.5t37.5 -7.5t28 -2q0 32 -7.5 62.5t-21.5 55t-35 39t-48 14.5z" />
<glyph unicode="&#xf1;" horiz-adv-x="405" d="M34 5q-2 16 -3.5 46.5t-3 69t-2.5 80.5t-2 80t-2.5 68.5t-4.5 46.5q0 1 -0.5 5t-1 9t-0.5 8.5v5.5q15 12 25.5 8t17.5 -17.5t10 -33.5t4.5 -40t1.5 -36.5v-23.5q2 17 6 40t12 47t19.5 47.5t28.5 41.5t38.5 28t49.5 8q44 -2 72.5 -24t45 -59t24 -85t10 -102t1.5 -109.5 t-1 -106.5q-9 -2 -18 -6.5t-15 -4t-8.5 9t1.5 33.5q1 18 3.5 55.5t2 83.5t-5.5 95t-18.5 89.5t-38.5 66t-65 25.5q-41 -17 -68.5 -64t-44 -110t-24 -136.5t-8.5 -143.5q-2 1 -7.5 1t-12 0.5t-12 1.5t-6.5 2zM166 626q-11 8 -17.5 2.5t-11.5 -17t-9 -25t-8 -21.5t-9 -6.5 t-11 19.5q0 47 15 66t49 19q19 -9 31.5 -21.5l23 -23t19 -16.5t18.5 -2t23 20.5t31 51.5q6 0 13.5 -5t7.5 -15q-16 -41 -31.5 -61.5t-29.5 -26t-28 0.5t-27 17t-25 23t-24 21z" />
<glyph unicode="&#xf2;" horiz-adv-x="371" d="M24 183q0 23 4 53.5t13 61.5t22.5 61t32.5 53.5t44 38t56 14.5q32 0 59.5 -22t47 -57t29.5 -78t8 -84q0 -60 -23 -107t-58.5 -76t-76 -39t-76 5.5t-59 58.5t-23.5 117zM61 179q3 -61 21 -94t43.5 -43.5t55.5 -0.5t56 35.5t44.5 64t20.5 86.5q2 36 -5.5 70t-21 60.5 t-33 42t-44.5 15.5q-24 0 -43 -12t-34.5 -32.5t-26.5 -46.5t-18.5 -52t-11 -50.5t-3.5 -42.5zM158 654q18 -18 27.5 -32.5t16.5 -29t15 -31.5t23 -41q0 -7 -3 -9.5t-8.5 -4t-12 -3t-14.5 -5.5q-13 22 -20 35t-13.5 24t-15 24.5t-23.5 36.5z" />
<glyph unicode="&#xf3;" horiz-adv-x="371" d="M24 183q0 23 4 53.5t13 61.5t22.5 61t32.5 53.5t44 38t56 14.5q32 0 59.5 -22t47 -57t29.5 -78t8 -84q0 -60 -23 -107t-58.5 -76t-76 -39t-76 5.5t-59 58.5t-23.5 117zM61 179q3 -61 21 -94t43.5 -43.5t55.5 -0.5t56 35.5t44.5 64t20.5 86.5q2 36 -5.5 70t-21 60.5 t-33 42t-44.5 15.5q-24 0 -43 -12t-34.5 -32.5t-26.5 -46.5t-18.5 -52t-11 -50.5t-3.5 -42.5zM246 619q-13 -18 -26 -31.5t-25.5 -27t-24.5 -28t-26 -30.5l-29 15q35 45 54 73l28.5 42t12.5 16.5t5.5 -1.5t8.5 -12.5t22 -15.5z" />
<glyph unicode="&#xf4;" horiz-adv-x="371" d="M24 183q0 23 4 53.5t13 61.5t22.5 61t32.5 53.5t44 38t56 14.5q32 0 59.5 -22t47 -57t29.5 -78t8 -84q0 -60 -23 -107t-58.5 -76t-76 -39t-76 5.5t-59 58.5t-23.5 117zM61 179q3 -61 21 -94t43.5 -43.5t55.5 -0.5t56 35.5t44.5 64t20.5 86.5q2 36 -5.5 70t-21 60.5 t-33 42t-44.5 15.5q-24 0 -43 -12t-34.5 -32.5t-26.5 -46.5t-18.5 -52t-11 -50.5t-3.5 -42.5zM195 676q-13 -17 -26 -31t-25 -27.5t-24.5 -27.5t-26.5 -31l-29 15l134 182q18 -18 31.5 -39t25.5 -44t24 -47t27 -48q0 -7 -3 -9.5t-8.5 -4t-12 -3t-14.5 -5.5q-13 22 -20.5 35 t-13.5 24.5t-14.5 24.5t-24.5 36z" />
<glyph unicode="&#xf5;" horiz-adv-x="371" d="M24 183q0 23 4 53.5t13 61.5t22.5 61t32.5 53.5t44 38t56 14.5q32 0 59.5 -22t47 -57t29.5 -78t8 -84q0 -60 -23 -107t-58.5 -76t-76 -39t-76 5.5t-59 58.5t-23.5 117zM61 179q3 -61 21 -94t43.5 -43.5t55.5 -0.5t56 35.5t44.5 64t20.5 86.5q2 36 -5.5 70t-21 60.5 t-33 42t-44.5 15.5q-24 0 -43 -12t-34.5 -32.5t-26.5 -46.5t-18.5 -52t-11 -50.5t-3.5 -42.5zM136 550q-11 8 -17.5 2.5t-11.5 -17t-9 -25t-8 -21.5t-9 -6.5t-11 19.5q0 47 15 66t49 19q19 -9 31.5 -21.5l23 -23t19 -16.5t18.5 -2t23 20.5t31 51.5q6 0 13.5 -5t7.5 -15 q-16 -41 -31.5 -61.5t-29.5 -26t-28 0.5t-27 17t-25 23t-24 21z" />
<glyph unicode="&#xf6;" horiz-adv-x="371" d="M24 183q0 23 4 53.5t13 61.5t22.5 61t32.5 53.5t44 38t56 14.5q32 0 59.5 -22t47 -57t29.5 -78t8 -84q0 -60 -23 -107t-58.5 -76t-76 -39t-76 5.5t-59 58.5t-23.5 117zM61 179q3 -61 21 -94t43.5 -43.5t55.5 -0.5t56 35.5t44.5 64t20.5 86.5q2 36 -5.5 70t-21 60.5 t-33 42t-44.5 15.5q-24 0 -43 -12t-34.5 -32.5t-26.5 -46.5t-18.5 -52t-11 -50.5t-3.5 -42.5zM63 544q-3 15 1 23t12 12t18 5t18 1t17.5 -1t17.5 -5t12 -12t0 -23q-3 -14 -17 -27t-30 -13q-8 0 -16 3.5t-14.5 9.5t-11 13t-7.5 14zM211 544q-4 15 0.5 23t12.5 12t18 5t18 1 q7 0 17 -1t18 -5t12 -12t0 -23q-1 -7 -6 -14t-11.5 -13t-14.5 -9.5t-15 -3.5q-17 0 -31 13t-18 27z" />
<glyph unicode="&#xf7;" horiz-adv-x="284" d="M135 90q0 15 7 27t24 12t24 -12.5t7 -27.5q0 -17 -7.5 -27.5t-33.5 -10.5q-8 0 -12 4.5t-6 10.5t-2.5 13t-0.5 11zM97 330q0 9 4 15t13 8t24 -1t37 -13q-10 -15 -20.5 -27t-26.5 -12q-13 0 -22 9t-9 21zM34 230q0 1 9 2t28.5 2.5t50.5 4t76 5.5q4 0 13 1t18.5 1.5t18 1.5 t13.5 1q0 -14 -5.5 -24.5t-18.5 -17.5q-24 -2 -43.5 -4t-38.5 -4t-39 -3.5t-44 -3.5q-2 0 -9.5 -0.5t-11.5 -0.5q-13 0 -22 2t-15 18z" />
<glyph unicode="&#xf8;" horiz-adv-x="371" d="M232 497q2 6 5 13.5t7.5 10t11 -2t15.5 -21.5l-16 -54v-1q28 -21 47.5 -56t29.5 -78t8 -84q0 -60 -23 -107t-58.5 -76t-76.5 -39q-30 -7 -58 -1l-15 -52l-30 30l11 37q-25 18 -43 50q-23 43 -23 117q0 23 4 53.5t13 61.5t22.5 61t32.5 53.5t44 38t56 14.5q13 0 26 -4z M181 41q30 10 56 35.5t44.5 64t20.5 86.5q2 36 -5.5 70t-21 60.5t-33.5 42.5l-107 -362q22 -5 46 3zM61 179q3 -61 21 -94q9 -17 20 -27l106 357h-10q-24 0 -43 -12t-34.5 -32.5t-26.5 -46.5t-18.5 -52t-11 -50.5t-3.5 -42.5z" />
<glyph unicode="&#xf9;" horiz-adv-x="458" d="M19 388q0 5 6.5 10t16 8t18.5 4t13 -3q6 -124 23.5 -197.5t40 -107.5t48.5 -34.5t51 22t46.5 61.5t35 84t16.5 90t-8 80l60 7q1 -15 5.5 -49.5t10 -78t12.5 -90.5t12 -87.5t9 -69t4 -35.5h-43l-47 173q-14 -35 -34 -67t-43.5 -56t-49.5 -37.5t-51.5 -11t-49.5 23.5 t-44.5 66.5t-35.5 117.5t-22 177zM202 654q18 -18 27.5 -32.5t16.5 -29t15 -31.5t23 -41q0 -7 -3 -9.5t-8.5 -4t-12 -3t-14.5 -5.5q-13 22 -20 35t-13.5 24t-15 24.5t-23.5 36.5z" />
<glyph unicode="&#xfa;" horiz-adv-x="458" d="M19 388q0 5 6.5 10t16 8t18.5 4t13 -3q6 -124 23.5 -197.5t40 -107.5t48.5 -34.5t51 22t46.5 61.5t35 84t16.5 90t-8 80l60 7q1 -15 5.5 -49.5t10 -78t12.5 -90.5t12 -87.5t9 -69t4 -35.5h-43l-47 173q-14 -35 -34 -67t-43.5 -56t-49.5 -37.5t-51.5 -11t-49.5 23.5 t-44.5 66.5t-35.5 117.5t-22 177zM289 619q-13 -18 -26 -31.5t-25.5 -27t-24.5 -28t-26 -30.5l-29 15q35 45 54 73l28.5 42t12.5 16.5t5.5 -1.5t8.5 -12.5t22 -15.5z" />
<glyph unicode="&#xfb;" horiz-adv-x="458" d="M19 388q0 5 6.5 10t16 8t18.5 4t13 -3q6 -124 23.5 -197.5t40 -107.5t48.5 -34.5t51 22t46.5 61.5t35 84t16.5 90t-8 80l60 7q1 -15 5.5 -49.5t10 -78t12.5 -90.5t12 -87.5t9 -69t4 -35.5h-43l-47 173q-14 -35 -34 -67t-43.5 -56t-49.5 -37.5t-51.5 -11t-49.5 23.5 t-44.5 66.5t-35.5 117.5t-22 177zM239 676q-13 -17 -26 -31t-25 -27.5t-24.5 -27.5t-26.5 -31l-29 15l134 182q18 -18 31.5 -39t25.5 -44t24 -47t27 -48q0 -7 -3 -9.5t-8.5 -4t-12 -3t-14.5 -5.5q-13 22 -20.5 35t-13.5 24.5t-14.5 24.5t-24.5 36z" />
<glyph unicode="&#xfc;" horiz-adv-x="458" d="M19 388q0 5 6.5 10t16 8t18.5 4t13 -3q6 -124 23.5 -197.5t40 -107.5t48.5 -34.5t51 22t46.5 61.5t35 84t16.5 90t-8 80l60 7q1 -15 5.5 -49.5t10 -78t12.5 -90.5t12 -87.5t9 -69t4 -35.5h-43l-47 173q-14 -35 -34 -67t-43.5 -56t-49.5 -37.5t-51.5 -11t-49.5 23.5 t-44.5 66.5t-35.5 117.5t-22 177zM107 544q-3 15 1 23t12 12t18 5t18 1t17.5 -1t17.5 -5t12 -12t0 -23q-3 -14 -17 -27t-30 -13q-8 0 -16 3.5t-14.5 9.5t-11 13t-7.5 14zM255 544q-4 15 0.5 23t12.5 12t18 5t18 1q7 0 17 -1t18 -5t12 -12t0 -23q-1 -7 -6 -14t-11.5 -13 t-14.5 -9.5t-15 -3.5q-17 0 -31 13t-18 27z" />
<glyph unicode="&#xfd;" horiz-adv-x="384" d="M214 -410q0 50 9 103t18.5 106t16 106t1.5 104l-249 422q22 20 35 22.5t15 0.5q7 -10 23.5 -37t38 -63t45.5 -76t45.5 -76t37 -64t21.5 -39l46 371l50 -25l-108 -858zM252 619q-13 -18 -26 -31.5t-25.5 -27t-24.5 -28t-26 -30.5l-29 15q35 45 54 73l28.5 42t12.5 16.5 t5.5 -1.5t8.5 -12.5t22 -15.5z" />
<glyph unicode="&#xfe;" horiz-adv-x="403" d="M26 595q0 5 8 9t17.5 5.5t17 0.5t7.5 -6v-87.5t-0.5 -55.5t-1 -31t0.5 -13t2.5 -2l4.5 3q27 13 60.5 15t67 -6.5t65.5 -25.5t57 -42t41.5 -56.5t20.5 -67.5q0 -52 -28.5 -95.5t-73.5 -74t-98 -46t-100 -12.5l-6 -114l-39 4zM180 377q-20 -1 -38 0.5t-30.5 0t-18.5 -10.5 t-2 -30q1 -10 1 -32t-0.5 -49.5t-0.5 -58t-0.5 -58t0 -49.5t1.5 -32q13 2 35 2.5t48.5 4.5t55 12.5t52.5 25.5t42 44.5t25 69.5q0 39 -13 69t-36 50t-54 30.5t-67 10.5z" />
<glyph unicode="&#xff;" horiz-adv-x="384" d="M214 -410q0 50 9 103t18.5 106t16 106t1.5 104l-249 422q22 20 35 22.5t15 0.5q7 -10 23.5 -37t38 -63t45.5 -76t45.5 -76t37 -64t21.5 -39l46 371l50 -25l-108 -858zM69 544q-3 15 1 23t12 12t18 5t18 1t17.5 -1t17.5 -5t12 -12t0 -23q-3 -14 -17 -27t-30 -13 q-8 0 -16 3.5t-14.5 9.5t-11 13t-7.5 14zM217 544q-4 15 0.5 23t12.5 12t18 5t18 1q7 0 17 -1t18 -5t12 -12t0 -23q-1 -7 -6 -14t-11.5 -13t-14.5 -9.5t-15 -3.5q-17 0 -31 13t-18 27z" />
<glyph unicode="&#x100;" horiz-adv-x="398" d="M180 623q37 0 64.5 -21.5t48 -57.5t34.5 -83t23 -98.5t14 -104t7 -98.5t2.5 -83t0.5 -58h-24l-38 211q-5 5 -22.5 6t-41 -1t-51 -5.5t-52 -5t-44.5 -1t-29 6.5v-211h-51q0 3 0.5 11.5t0.5 17.5t1 17t1 11q6 58 9.5 117.5t8.5 115.5t13.5 107t24.5 92.5t40 71t60 43.5z M196 577q-26 0 -43.5 -18.5t-28.5 -48t-17 -65.5t-8 -70.5t-2.5 -64t-0.5 -45.5q49 0 100 7.5t96 15.5q1 4 1.5 13t1 20t1 21t0.5 13q0 33 -3.5 63t-14 58.5t-30 53.5t-52.5 47zM29 741l360 3v-38q-10 2 -36.5 1.5t-61.5 -1.5t-75 -3t-78 -1.5t-70 2.5t-51 9z" />
<glyph unicode="&#x101;" horiz-adv-x="346" d="M19 86q0 57 31.5 83t82.5 26q20 0 37.5 -1t33.5 -5t31.5 -12t32.5 -23q0 3 0.5 12.5t0.5 20.5v20.5v13.5q-1 18 -1 46.5t-4.5 58.5t-18 57t-43.5 41q-21 0 -39 -7t-36 -15t-36 -14.5t-39 -6.5q0 25 15.5 41.5t37.5 25.5t46 12t42 3q18 -3 33.5 -7t29 -16t25 -36.5 t20 -68.5t15 -111.5t10.5 -165.5q2 -13 -8.5 -22.5t-28.5 -16t-40.5 -11t-45.5 -6.5t-44 -3t-35 -1q-18 0 -36.5 6t-34 17.5t-25 28t-9.5 36.5zM149 156q-50 -14 -70 -33.5t-17.5 -37.5t23.5 -32.5t51 -19t65 5t67 37.5q-12 29 -24 44.5t-26 23.5t-31 10t-38 2z M17.8457 532.86l308.474 2.41504v-30.5957q-8.56836 1.60938 -31.2754 1.20703t-52.6982 -1.20703q-29.9902 -0.805664 -64.2646 -2.41602q-34.2754 -1.61035 -66.8369 -1.20801q-32.5605 0.40332 -59.9805 2.0127q-27.4199 1.61133 -43.7002 7.24707z" />
<glyph unicode="&#x102;" horiz-adv-x="398" d="M180 623q37 0 64.5 -21.5t48 -57.5t34.5 -83t23 -98.5t14 -104t7 -98.5t2.5 -83t0.5 -58h-24l-38 211q-5 5 -22.5 6t-41 -1t-51 -5.5t-52 -5t-44.5 -1t-29 6.5v-211h-51q0 3 0.5 11.5t0.5 17.5t1 17t1 11q6 58 9.5 117.5t8.5 115.5t13.5 107t24.5 92.5t40 71t60 43.5z M196 577q-26 0 -43.5 -18.5t-28.5 -48t-17 -65.5t-8 -70.5t-2.5 -64t-0.5 -45.5q49 0 100 7.5t96 15.5q1 4 1.5 13t1 20t1 21t0.5 13q0 33 -3.5 63t-14 58.5t-30 53.5t-52.5 47zM234 753q6 -8 5.5 -19t-0.5 -22q0 -8 -3 -18.5t-9.5 -20t-16.5 -15.5t-25 -6q-17 0 -28.5 6 t-18.5 15t-10 20.5t-3 21.5q0 6 1 14.5t3 16.5h20q-3 -5 -4.5 -12.5t1.5 -18.5q9 -26 19.5 -33.5t19.5 -3.5t15.5 15.5t10.5 24.5q-2 9 -2.5 17.5t-5.5 13.5z" />
<glyph unicode="&#x103;" horiz-adv-x="346" d="M19 86q0 57 31.5 83t82.5 26q20 0 37.5 -1t33.5 -5t31.5 -12t32.5 -23q0 3 0.5 12.5t0.5 20.5v20.5v13.5q-1 18 -1 46.5t-4.5 58.5t-18 57t-43.5 41q-21 0 -39 -7t-36 -15t-36 -14.5t-39 -6.5q0 25 15.5 41.5t37.5 25.5t46 12t42 3q18 -3 33.5 -7t29 -16t25 -36.5 t20 -68.5t15 -111.5t10.5 -165.5q2 -13 -8.5 -22.5t-28.5 -16t-40.5 -11t-45.5 -6.5t-44 -3t-35 -1q-18 0 -36.5 6t-34 17.5t-25 28t-9.5 36.5zM149 156q-50 -14 -70 -33.5t-17.5 -37.5t23.5 -32.5t51 -19t65 5t67 37.5q-12 29 -24 44.5t-26 23.5t-31 10t-38 2zM223 610 q6 -8 5.5 -19t-0.5 -22q0 -8 -3 -18.5t-9.5 -20t-16.5 -15.5t-25 -6q-17 0 -28.5 6t-18.5 15t-10 20.5t-3 21.5q0 6 1 14.5t3 16.5h20q-3 -5 -4.5 -12.5t1.5 -18.5q9 -26 19.5 -33.5t19.5 -3.5t15.5 15.5t10.5 24.5q-2 9 -2.5 17.5t-5.5 13.5z" />
<glyph unicode="&#x104;" horiz-adv-x="398" d="M399 -124q-5 -1 -22.5 -6.5t-40 -11t-48 -8t-46.5 3t-35 21t-14 48.5q0 31 12 53t32.5 37t46.5 24t55 14l-29 162q-6 5 -23 6t-40.5 -1t-51 -5.5t-52.5 -5.5t-44.5 -1t-28.5 7v-211h-51v11.5t0.5 17.5t1.5 17t1 11q6 58 9 117.5t8.5 115.5t14 107t24.5 92t40 71t60 44 q36 0 64 -21.5t48.5 -57.5t34.5 -83t23 -98.5t14 -104t7 -98.5t2.5 -83.5t0.5 -57.5h-24l-2 6q-15 -1 -31 -3q-23 -4 -41 -14.5t-29 -28.5t-11 -47q0 -21 14 -27.5t36.5 -3t51.5 14t60 21.5zM194 560q-26 0 -43.5 -18.5t-28.5 -48t-17 -65.5t-8.5 -70.5t-2.5 -64v-45.5 q48 0 99 7t97 16q1 3 1.5 12.5t1 20.5t1 20.5t0.5 13.5q0 32 -3.5 62.5t-14 58.5t-30.5 53.5t-52 47.5z" />
<glyph unicode="&#x105;" horiz-adv-x="346" d="M323 -107q-5 -1 -22.5 -6.5t-40 -11.5t-48 -8.5t-46.5 3t-34.5 21.5t-13.5 48t12 54q8 14 20 26h-31q-18 0 -36.5 6t-34 17.5t-25.5 28t-10 36.5q0 57 31.5 83t82.5 26q21 0 38.5 -1t33.5 -5t31.5 -12t32.5 -23q0 3 0.5 12.5t0.5 20.5v34q-2 18 -1.5 46.5t-4 58.5 t-18.5 57t-44 41q-20 0 -38.5 -7t-36.5 -15t-36 -14.5t-38 -6.5q0 25 15.5 41.5t37 25.5t46 12t41.5 3q18 -3 34 -7t29.5 -16t24.5 -36.5t20 -68.5t15.5 -111.5t10.5 -165.5q1 -13 -9.5 -22.5t-28.5 -16.5q-3 -1 -8 -3l3 -3q5 -5 7.5 -6.5t0.5 -2.5q-24 0 -46.5 -3.5 t-40.5 -14t-29.5 -28.5t-11.5 -47q0 -21 14 -27.5t36.5 -3t51.5 14t60 21.5zM144 177q-50 -14 -70 -33.5t-17.5 -37.5t23 -32.5t50.5 -19t65.5 5t67.5 37.5q-13 29 -25 44.5t-25.5 23.5t-30.5 10t-38 2z" />
<glyph unicode="&#x106;" horiz-adv-x="436" d="M13 259q0 31 6.5 69.5t19.5 78t32.5 77t45 67t58 47.5t71.5 18q28 0 47.5 -11t31.5 -29t17.5 -40.5t5.5 -45.5q-22 0 -33 13.5t-20.5 30t-22 30t-37.5 13.5q-33 0 -58.5 -18t-44.5 -46.5t-31.5 -64.5t-20 -72t-10.5 -69.5t-3 -56.5q-4 -34 -0.5 -70.5t16.5 -67t38 -51 t66 -23.5q26 0 58 8.5t63.5 20t60.5 25t49 23.5v-39q-1 0 -12.5 -4.5t-30 -11.5t-42 -15t-46.5 -16.5t-44.5 -16t-36.5 -12.5q-1 0 -4 -0.5t-5 -0.5q-55 0 -90.5 23.5t-56.5 61t-29 84t-8 91.5zM279 773q-13 -18 -26 -31.5t-25.5 -27t-24.5 -28t-26 -30.5l-29 15 q35 45 54 73l28.5 42t12.5 16.5t5.5 -1.5t8.5 -12.5t22 -15.5z" />
<glyph unicode="&#x107;" horiz-adv-x="375" d="M19 171q0 37 12 82t35 83.5t57 64.5t79 26q23 3 37 -4.5t21.5 -23.5t10 -36.5t3 -42t0 -40t1.5 -30.5h-25q-1 6 -3.5 28.5t-8.5 46.5t-16.5 43t-29.5 19q-28 0 -52.5 -22t-42.5 -53t-29 -64t-11 -55q1 -25 7 -54.5t19.5 -53.5t35.5 -39t54 -9q24 0 46 10t43 21t42.5 21 t45.5 10q0 -26 -19 -45.5t-46.5 -31.5t-58 -18t-51.5 -6q-34 0 -62.5 14t-49.5 37.5t-32.5 55t-11.5 66.5zM248 619q-13 -18 -26 -31.5t-25.5 -27t-24.5 -28t-26 -30.5l-29 15q35 45 54 73l28.5 42t12.5 16.5t5.5 -1.5t8.5 -12.5t22 -15.5z" />
<glyph unicode="&#x108;" horiz-adv-x="436" d="M13 259q0 31 6.5 69.5t19.5 78t32.5 77t45 67t58 47.5t71.5 18q28 0 47.5 -11t31.5 -29t17.5 -40.5t5.5 -45.5q-22 0 -33 13.5t-20.5 30t-22 30t-37.5 13.5q-33 0 -58.5 -18t-44.5 -46.5t-31.5 -64.5t-20 -72t-10.5 -69.5t-3 -56.5q-4 -34 -0.5 -70.5t16.5 -67t38 -51 t66 -23.5q26 0 58 8.5t63.5 20t60.5 25t49 23.5v-39q-1 0 -12.5 -4.5t-30 -11.5t-42 -15t-46.5 -16.5t-44.5 -16t-36.5 -12.5q-1 0 -4 -0.5t-5 -0.5q-55 0 -90.5 23.5t-56.5 61t-29 84t-8 91.5zM222 803q-13 -17 -26 -31t-25 -27.5t-24.5 -27.5t-26.5 -31l-29 15l134 182 q18 -18 31.5 -39t25.5 -44t24 -47t27 -48q0 -7 -3 -9.5t-8.5 -4t-12 -3t-14.5 -5.5q-13 22 -20.5 35t-13.5 24.5t-14.5 24.5t-24.5 36z" />
<glyph unicode="&#x109;" horiz-adv-x="375" d="M19 171q0 37 12 82t35 83.5t57 64.5t79 26q23 3 37 -4.5t21.5 -23.5t10 -36.5t3 -42t0 -40t1.5 -30.5h-25q-1 6 -3.5 28.5t-8.5 46.5t-16.5 43t-29.5 19q-28 0 -52.5 -22t-42.5 -53t-29 -64t-11 -55q1 -25 7 -54.5t19.5 -53.5t35.5 -39t54 -9q24 0 46 10t43 21t42.5 21 t45.5 10q0 -26 -19 -45.5t-46.5 -31.5t-58 -18t-51.5 -6q-34 0 -62.5 14t-49.5 37.5t-32.5 55t-11.5 66.5zM197 676q-13 -17 -26 -31t-25 -27.5t-24.5 -27.5t-26.5 -31l-29 15l134 182q18 -18 31.5 -39t25.5 -44t24 -47t27 -48q0 -7 -3 -9.5t-8.5 -4t-12 -3t-14.5 -5.5 q-13 22 -20.5 35t-13.5 24.5t-14.5 24.5t-24.5 36z" />
<glyph unicode="&#x10a;" horiz-adv-x="436" d="M13 259q0 31 6.5 69.5t19.5 78t32.5 77t45 67t58 47.5t71.5 18q28 0 47.5 -11t31.5 -29t17.5 -40.5t5.5 -45.5q-22 0 -33 13.5t-20.5 30t-22 30t-37.5 13.5q-33 0 -58.5 -18t-44.5 -46.5t-31.5 -64.5t-20 -72t-10.5 -69.5t-3 -56.5q-4 -34 -0.5 -70.5t16.5 -67t38 -51 t66 -23.5q26 0 58 8.5t63.5 20t60.5 25t49 23.5v-39q-1 0 -12.5 -4.5t-30 -11.5t-42 -15t-46.5 -16.5t-44.5 -16t-36.5 -12.5q-1 0 -4 -0.5t-5 -0.5q-55 0 -90.5 23.5t-56.5 61t-29 84t-8 91.5zM187 698q-3 15 -1.5 25.5t6 17t11.5 9t14 2.5q8 0 15 -2.5t12 -8.5t6.5 -16 t-2.5 -25q-4 -13 -9.5 -21.5t-21.5 -8.5q-15 0 -20.5 7.5t-9.5 20.5z" />
<glyph unicode="&#x10b;" horiz-adv-x="375" d="M19 171q0 37 12 82t35 83.5t57 64.5t79 26q23 3 37 -4.5t21.5 -23.5t10 -36.5t3 -42t0 -40t1.5 -30.5h-25q-1 6 -3.5 28.5t-8.5 46.5t-16.5 43t-29.5 19q-28 0 -52.5 -22t-42.5 -53t-29 -64t-11 -55q1 -25 7 -54.5t19.5 -53.5t35.5 -39t54 -9q24 0 46 10t43 21t42.5 21 t45.5 10q0 -26 -19 -45.5t-46.5 -31.5t-58 -18t-51.5 -6q-34 0 -62.5 14t-49.5 37.5t-32.5 55t-11.5 66.5zM150 504q-3 15 -1.5 25.5t6 17t11.5 9t14 2.5q8 0 15 -2.5t12 -8.5t6.5 -16t-2.5 -25q-4 -13 -9.5 -21.5t-21.5 -8.5q-15 0 -20.5 7.5t-9.5 20.5z" />
<glyph unicode="&#x10c;" horiz-adv-x="436" d="M13 259q0 31 6.5 69.5t19.5 78t32.5 77t45 67t58 47.5t71.5 18q28 0 47.5 -11t31.5 -29t17.5 -40.5t5.5 -45.5q-22 0 -33 13.5t-20.5 30t-22 30t-37.5 13.5q-33 0 -58.5 -18t-44.5 -46.5t-31.5 -64.5t-20 -72t-10.5 -69.5t-3 -56.5q-4 -34 -0.5 -70.5t16.5 -67t38 -51 t66 -23.5q26 0 58 8.5t63.5 20t60.5 25t49 23.5v-39q-1 0 -12.5 -4.5t-30 -11.5t-42 -15t-46.5 -16.5t-44.5 -16t-36.5 -12.5q-1 0 -4 -0.5t-5 -0.5q-55 0 -90.5 23.5t-56.5 61t-29 84t-8 91.5zM229 755q17 15 25.5 24t15.5 16t14.5 15t22.5 23q8 -3 15.5 -4t13 -2t9 -2.5 t3.5 -6.5q-16 -15 -29.5 -30.5t-26 -30t-27 -28t-34.5 -25.5l-143 117l31 9q15 -10 28 -19t26.5 -17.5t27 -17.5t28.5 -21z" />
<glyph unicode="&#x10d;" horiz-adv-x="375" d="M19 171q0 37 12 82t35 83.5t57 64.5t79 26q23 3 37 -4.5t21.5 -23.5t10 -36.5t3 -42t0 -40t1.5 -30.5h-25q-1 6 -3.5 28.5t-8.5 46.5t-16.5 43t-29.5 19q-28 0 -52.5 -22t-42.5 -53t-29 -64t-11 -55q1 -25 7 -54.5t19.5 -53.5t35.5 -39t54 -9q24 0 46 10t43 21t42.5 21 t45.5 10q0 -26 -19 -45.5t-46.5 -31.5t-58 -18t-51.5 -6q-34 0 -62.5 14t-49.5 37.5t-32.5 55t-11.5 66.5zM198 601q17 15 25.5 24t15.5 16t14.5 15t22.5 23q8 -3 15.5 -4t13 -2t9 -2.5t3.5 -6.5q-16 -15 -29.5 -30.5t-26 -30t-27 -28t-34.5 -25.5l-143 117l31 9 q15 -10 28 -19t26.5 -17.5t27 -17.5t28.5 -21z" />
<glyph unicode="&#x10e;" horiz-adv-x="538" d="M38 499q-2 2 -5 7t-6 11.5t-5.5 12t-2.5 8.5q0 9 8 14t18 6t19.5 1h11.5q3 0 8.5 -0.5t12 -1t11.5 -1t7 -0.5q33 -12 75.5 -28t87.5 -37t88 -47.5t77 -60t55 -73.5t21 -89q0 -42 -16 -75.5t-42.5 -58t-61.5 -42t-71.5 -28t-73.5 -15.5t-69 -5q-7 0 -24 0.5t-35 1.5 t-32.5 1.5t-15.5 0.5l-2 37zM95 504v-8t0.5 -13.5t0.5 -13.5v-9q1 -15 2.5 -48t3 -75t4 -87.5t4.5 -87t3.5 -75t1.5 -49.5q6 0 19.5 -0.5t28.5 -1t28.5 -1t19.5 -0.5q46 0 91 11.5t80.5 35t58 61t22.5 90.5q0 39 -18 74.5t-47.5 65.5t-67.5 54t-78.5 41.5t-81 26.5t-75.5 9z M280 755q17 15 25.5 24t15.5 16t14.5 15t22.5 23q8 -3 15.5 -4t13 -2t9 -2.5t3.5 -6.5q-16 -15 -29.5 -30.5t-26 -30t-27 -28t-34.5 -25.5l-143 117l31 9q15 -10 28 -19t26.5 -17.5t27 -17.5t28.5 -21z" />
<glyph unicode="&#x10f;" horiz-adv-x="425" d="M3 145q0 27 9 59.5t26 60t41 45.5t56 18q24 0 42.5 -4.5t35 -15t31 -25t30.5 -33.5l-6 513q27 10 33.5 8t6.5 -17q0 -2 -0.5 -6t-0.5 -5q-1 -19 -1.5 -54t0 -81t1.5 -99.5t2 -108t2.5 -108t2 -99.5t0 -81.5t-1.5 -53.5q-11 -23 -30.5 -35t-42 -17.5t-46.5 -6.5t-45 -1 q-67 0 -106 39.5t-39 107.5zM43 172q0 -25 4 -49.5t14 -43.5t28 -30.5t46 -11.5h41t46 5.5t37 17.5t15 34q0 26 -7.5 59.5t-23 64t-39 52t-55.5 21.5q-21 0 -40 -11t-33.5 -28t-23.5 -38t-9 -42zM348 691q0 5 8 12t12 7q25 -16 32 -42.5t7 -54.5q0 -6 0.5 -14.5t-0.5 -17 t-5.5 -15.5t-14.5 -10q-8 3 -15 22t-12.5 42t-8.5 44t-3 27z" />
<glyph unicode="&#x110;" horiz-adv-x="538" d="M-22 286h77l-17 213q-2 2 -5 7t-6 11.5t-5.5 12t-2.5 8.5q0 9 8 14t18 6t19.5 1h11.5q3 0 8.5 -0.5t12 -1t11.5 -1t7 -0.5q33 -12 75.5 -28t87.5 -37t88 -47.5t77 -60t55 -73.5t21 -89q0 -42 -16 -75.5t-42.5 -58t-61.5 -42t-71.5 -28t-73.5 -15.5t-69 -5q-7 0 -24 0.5 t-35 1.5t-32.5 1.5t-15.5 0.5l-2 37l-17 202h-9q-25 1 -46 3.5t-33 9.5zM95 504v-8q0 -6 0.5 -13.5t0.5 -13.5v-9q1 -15 2.5 -48t2.5 -75q2 -24 2 -50l115 2v-43q-7 2 -25 1.5t-41 -2.5q-21 -1 -46 -3q2 -42 3 -80q3 -41 4.5 -74.5t1.5 -49.5q6 0 19.5 -0.5t28.5 -1t28.5 -1 t19.5 -0.5q46 0 91 11.5t80.5 35t58 61t22.5 90.5q0 39 -18 74.5t-47.5 65.5t-67.5 54t-78.5 41.5t-81 26.5t-75.5 9z" />
<glyph unicode="&#x111;" horiz-adv-x="334" d="M191 505q1 1 15 4.5t37 7.5q13 2 28 5l-3 241q27 10 33.5 8t6.5 -17q0 -2 -0.5 -6t-0.5 -5q-1 -19 -1.5 -54t-0.5 -82q1 -37 2 -80q22 4 45 7q3 0 10.5 0.5t16 1t16 1t10.5 0.5q0 -14 -3.5 -25t-11.5 -17q-16 -2 -39 -6q-20 -4 -44 -8l2 -81q1 -54 2.5 -107.5t2 -99.5 t0 -81.5t-1.5 -53.5q-11 -23 -30.5 -35t-42 -17.5t-46.5 -6.5t-45 -1q-67 0 -106 39.5t-39 107.5q0 27 9 59.5t26 60t41 45.5t56 18q24 0 42.5 -4.5t35 -15t31 -25t30.5 -33.5l-3 225q-8 0 -16 -2q-23 -4 -39 -6q-1 0 -6 -0.5t-8 -0.5q-8 0 -13.5 2t-10.5 19zM43 172 q0 -25 4 -49.5t14 -43.5t28 -30.5t46 -11.5h41t46 5.5t37 17.5t15 34q0 26 -7.5 59.5t-23 64t-39 52t-55.5 21.5q-21 0 -40 -11t-33.5 -28t-23.5 -38t-9 -42z" />
<glyph unicode="&#x112;" horiz-adv-x="504" d="M14 538q16 23 42.5 39.5t59 27.5t70 17t73.5 9t70 4t60 1q2 0 9 -0.5t15 -1t14.5 -0.5h9.5q4 -22 -4.5 -30.5t-22 -10t-28.5 1t-22 0.5q-10 -1 -31.5 -5.5t-47.5 -10t-55.5 -12t-56 -12t-47.5 -10.5t-31 -7q-16 -6 -18 -15t-2 -21q0 -21 2.5 -47t6 -51.5t7 -46.5t4.5 -31 q4 -1 15 -1h15q23 0 45 4t44 9t45 8.5t47 3.5v-37q-10 0 -28 -1.5t-39.5 -5.5t-43.5 -8.5t-40 -9.5t-29.5 -10t-11.5 -10v-208q47 0 93.5 3t93.5 6.5t94 6.5t94 3q0 -12 -8 -19.5t-18.5 -12t-22.5 -6.5l-18 -3q-4 -1 -25 -3t-52 -6t-69 -8t-75 -8t-70 -7.5t-55 -5.5 q-3 -1 -9 -1q0 134 -8.5 270.5t-40.5 268.5zM77 786l360 3v-38q-10 2 -36.5 1.5t-61.5 -1.5t-75 -3t-78 -1.5t-70 2.5t-51 9z" />
<glyph unicode="&#x113;" horiz-adv-x="337" d="M26 235q0 30 13 66.5t35.5 68t51 53t59.5 21.5q17 0 33.5 -7t32 -18.5t28 -26t19.5 -30.5t7.5 -31t-8.5 -26l-211 -39q-4 -1 -7 -9.5t-5 -21.5t-3.5 -28.5t-2.5 -30t-1 -26v-17.5q0 -28 13.5 -45.5t34.5 -26.5t47.5 -12t52.5 -3t49 2t38 2q0 -4 -3 -9t-7 -9.5t-8 -8 t-5 -4.5q-8 -2 -24.5 -5.5t-35 -6.5t-34.5 -5t-22 -2q-31 -6 -54 1t-39 24t-26 41.5t-15 52.5t-5.5 58t2.5 58zM171 406q-9 0 -23.5 -9.5t-27 -24t-21 -31t-5.5 -28.5q26 -3 54 1t51 12.5t38 20t14.5 23.5t-19 21.5t-61.5 14.5zM34.2441 520.683l286.699 3.03906v-38.4941 q-7.96289 2.02539 -29.0674 1.51953q-21.1045 -0.506836 -48.9775 -1.51953q-27.874 -1.01367 -59.7295 -3.03906q-31.8555 -2.02637 -62.1182 -1.51953q-30.2627 0.505859 -55.7471 2.53223t-40.6162 9.11719z" />
<glyph unicode="&#x114;" horiz-adv-x="504" d="M14 538q16 23 42.5 39.5t59 27.5t70 17t73.5 9t70 4t60 1q2 0 9 -0.5t15 -1t14.5 -0.5h9.5q4 -22 -4.5 -30.5t-22 -10t-28.5 1t-22 0.5q-10 -1 -31.5 -5.5t-47.5 -10t-55.5 -12t-56 -12t-47.5 -10.5t-31 -7q-16 -6 -18 -15t-2 -21q0 -21 2.5 -47t6 -51.5t7 -46.5t4.5 -31 q4 -1 15 -1h15q23 0 45 4t44 9t45 8.5t47 3.5v-37q-10 0 -28 -1.5t-39.5 -5.5t-43.5 -8.5t-40 -9.5t-29.5 -10t-11.5 -10v-208q47 0 93.5 3t93.5 6.5t94 6.5t94 3q0 -12 -8 -19.5t-18.5 -12t-22.5 -6.5l-18 -3q-4 -1 -25 -3t-52 -6t-69 -8t-75 -8t-70 -7.5t-55 -5.5 q-3 -1 -9 -1q0 134 -8.5 270.5t-40.5 268.5zM275 775q6 -8 5.5 -19t-0.5 -22q0 -8 -3 -18.5t-9.5 -20t-16.5 -15.5t-25 -6q-17 0 -28.5 6t-18.5 15t-10 20.5t-3 21.5q0 6 1 14.5t3 16.5h20q-3 -5 -4.5 -12.5t1.5 -18.5q9 -26 19.5 -33.5t19.5 -3.5t15.5 15.5t10.5 24.5 q-2 9 -2.5 17.5t-5.5 13.5z" />
<glyph unicode="&#x115;" horiz-adv-x="337" d="M26 235q0 30 13 66.5t35.5 68t51 53t59.5 21.5q17 0 33.5 -7t32 -18.5t28 -26t19.5 -30.5t7.5 -31t-8.5 -26l-211 -39q-4 -1 -7 -9.5t-5 -21.5t-3.5 -28.5t-2.5 -30t-1 -26v-17.5q0 -28 13.5 -45.5t34.5 -26.5t47.5 -12t52.5 -3t49 2t38 2q0 -4 -3 -9t-7 -9.5t-8 -8 t-5 -4.5q-8 -2 -24.5 -5.5t-35 -6.5t-34.5 -5t-22 -2q-31 -6 -54 1t-39 24t-26 41.5t-15 52.5t-5.5 58t2.5 58zM171 406q-9 0 -23.5 -9.5t-27 -24t-21 -31t-5.5 -28.5q26 -3 54 1t51 12.5t38 20t14.5 23.5t-19 21.5t-61.5 14.5zM204 612q6 -8 5.5 -19t-0.5 -22 q0 -8 -3 -18.5t-9.5 -20t-16.5 -15.5t-25 -6q-17 0 -28.5 6t-18.5 15t-10 20.5t-3 21.5q0 6 1 14.5t3 16.5h20q-3 -5 -4.5 -12.5t1.5 -18.5q9 -26 19.5 -33.5t19.5 -3.5t15.5 15.5t10.5 24.5q-2 9 -2.5 17.5t-5.5 13.5z" />
<glyph unicode="&#x116;" horiz-adv-x="504" d="M14 538q16 23 42.5 39.5t59 27.5t70 17t73.5 9t70 4t60 1q2 0 9 -0.5t15 -1t14.5 -0.5h9.5q4 -22 -4.5 -30.5t-22 -10t-28.5 1t-22 0.5q-10 -1 -31.5 -5.5t-47.5 -10t-55.5 -12t-56 -12t-47.5 -10.5t-31 -7q-16 -6 -18 -15t-2 -21q0 -21 2.5 -47t6 -51.5t7 -46.5t4.5 -31 q4 -1 15 -1h15q23 0 45 4t44 9t45 8.5t47 3.5v-37q-10 0 -28 -1.5t-39.5 -5.5t-43.5 -8.5t-40 -9.5t-29.5 -10t-11.5 -10v-208q47 0 93.5 3t93.5 6.5t94 6.5t94 3q0 -12 -8 -19.5t-18.5 -12t-22.5 -6.5l-18 -3q-4 -1 -25 -3t-52 -6t-69 -8t-75 -8t-70 -7.5t-55 -5.5 q-3 -1 -9 -1q0 134 -8.5 270.5t-40.5 268.5zM221 698q-3 15 -1.5 25.5t6 17t11.5 9t14 2.5q8 0 15 -2.5t12 -8.5t6.5 -16t-2.5 -25q-4 -13 -9.5 -21.5t-21.5 -8.5q-15 0 -20.5 7.5t-9.5 20.5z" />
<glyph unicode="&#x117;" horiz-adv-x="337" d="M26 235q0 30 13 66.5t35.5 68t51 53t59.5 21.5q17 0 33.5 -7t32 -18.5t28 -26t19.5 -30.5t7.5 -31t-8.5 -26l-211 -39q-4 -1 -7 -9.5t-5 -21.5t-3.5 -28.5t-2.5 -30t-1 -26v-17.5q0 -28 13.5 -45.5t34.5 -26.5t47.5 -12t52.5 -3t49 2t38 2q0 -4 -3 -9t-7 -9.5t-8 -8 t-5 -4.5q-8 -2 -24.5 -5.5t-35 -6.5t-34.5 -5t-22 -2q-31 -6 -54 1t-39 24t-26 41.5t-15 52.5t-5.5 58t2.5 58zM171 406q-9 0 -23.5 -9.5t-27 -24t-21 -31t-5.5 -28.5q26 -3 54 1t51 12.5t38 20t14.5 23.5t-19 21.5t-61.5 14.5zM143 510q-3 15 -1.5 25.5t6 17t11.5 9t14 2.5 q8 0 15 -2.5t12 -8.5t6.5 -16t-2.5 -25q-4 -13 -9.5 -21.5t-21.5 -8.5q-15 0 -20.5 7.5t-9.5 20.5z" />
<glyph unicode="&#x118;" horiz-adv-x="504" d="M426 -92q-5 -1 -20.5 -6t-36 -10t-44.5 -8t-43 2.5t-31.5 20t-12.5 43.5t11 49q4 8 10 16l-66 -8q-37 -3 -70 -6.5t-55 -5.5q-3 -1 -9 -1q0 134 -8.5 270t-40.5 268q16 24 42.5 40.5t59.5 27t70 16.5t73.5 9.5t70 4.5t59.5 1q3 0 9.5 -0.5t14.5 -1t14.5 -1t9.5 -0.5 q4 -21 -4.5 -29.5t-22 -10t-28 1t-22.5 0.5q-10 -1 -31 -5.5t-47.5 -10.5t-55.5 -12t-56 -12t-48 -10.5t-30 -7.5q-17 -5 -19 -14.5t-2 -21.5q0 -20 3 -46t6 -51.5t6.5 -46.5t5.5 -31q3 -1 14 -1h15q23 0 45 4t44.5 8.5t45 8.5t46.5 4v-37q-9 0 -27.5 -2t-40 -5.5t-43.5 -8 t-40 -9.5t-29.5 -10t-11.5 -10v-208q48 0 94.5 3t93 6.5t93.5 6.5t94 3q0 -13 -7.5 -20.5t-18.5 -11.5t-22.5 -6t-18.5 -3q-4 -1 -22 -3l-1 -1h-10q-17 -2 -40 -5q-16 -4 -29 -11q-17 -10 -27 -26.5t-10 -42.5q0 -20 13 -25.5t33.5 -2.5t47 12.5t55.5 19.5z" />
<glyph unicode="&#x119;" horiz-adv-x="337" d="M293 -131q-5 -1 -22.5 -6.5t-40 -11.5t-48 -8.5t-46.5 3t-34.5 21.5t-13.5 48t12 54q9 17 22 29q-7 1 -13 3q-23 7 -39 24t-26 41.5t-15 52.5t-5.5 58t2.5 58q0 30 13 66.5t35.5 68t51 53t59.5 21.5q17 0 33.5 -7t32 -18.5t28 -26t19.5 -30.5t7.5 -31t-8.5 -26l-211 -39 q-4 -1 -7 -9.5t-5 -21.5t-3.5 -28.5t-2.5 -30t-1 -26v-17.5q0 -28 13.5 -45.5t34.5 -26.5t47.5 -12t52.5 -3t49 2t38 2q0 -4 -3 -9t-7 -9.5t-8 -8t-5 -4.5q-8 -2 -25 -6q-4 0 -8 -1l2 -2q5 -5 7.5 -6.5t0.5 -2.5q-24 0 -46.5 -3.5t-40.5 -14t-29.5 -28.5t-11.5 -47 q0 -21 14 -27.5t36.5 -3t51.5 14t60 21.5zM171 406q-9 0 -23.5 -9.5t-27 -24t-21 -31t-5.5 -28.5q26 -3 54 1t51 12.5t38 20t14.5 23.5t-19 21.5t-61.5 14.5z" />
<glyph unicode="&#x11a;" horiz-adv-x="504" d="M14 538q16 23 42.5 39.5t59 27.5t70 17t73.5 9t70 4t60 1q2 0 9 -0.5t15 -1t14.5 -0.5h9.5q4 -22 -4.5 -30.5t-22 -10t-28.5 1t-22 0.5q-10 -1 -31.5 -5.5t-47.5 -10t-55.5 -12t-56 -12t-47.5 -10.5t-31 -7q-16 -6 -18 -15t-2 -21q0 -21 2.5 -47t6 -51.5t7 -46.5t4.5 -31 q4 -1 15 -1h15q23 0 45 4t44 9t45 8.5t47 3.5v-37q-10 0 -28 -1.5t-39.5 -5.5t-43.5 -8.5t-40 -9.5t-29.5 -10t-11.5 -10v-208q47 0 93.5 3t93.5 6.5t94 6.5t94 3q0 -12 -8 -19.5t-18.5 -12t-22.5 -6.5l-18 -3q-4 -1 -25 -3t-52 -6t-69 -8t-75 -8t-70 -7.5t-55 -5.5 q-3 -1 -9 -1q0 134 -8.5 270.5t-40.5 268.5zM262 755q17 15 25.5 24t15.5 16t14.5 15t22.5 23q8 -3 15.5 -4t13 -2t9 -2.5t3.5 -6.5q-16 -15 -29.5 -30.5t-26 -30t-27 -28t-34.5 -25.5l-143 117l31 9q15 -10 28 -19t26.5 -17.5t27 -17.5t28.5 -21z" />
<glyph unicode="&#x11b;" horiz-adv-x="337" d="M26 235q0 30 13 66.5t35.5 68t51 53t59.5 21.5q17 0 33.5 -7t32 -18.5t28 -26t19.5 -30.5t7.5 -31t-8.5 -26l-211 -39q-4 -1 -7 -9.5t-5 -21.5t-3.5 -28.5t-2.5 -30t-1 -26v-17.5q0 -28 13.5 -45.5t34.5 -26.5t47.5 -12t52.5 -3t49 2t38 2q0 -4 -3 -9t-7 -9.5t-8 -8 t-5 -4.5q-8 -2 -24.5 -5.5t-35 -6.5t-34.5 -5t-22 -2q-31 -6 -54 1t-39 24t-26 41.5t-15 52.5t-5.5 58t2.5 58zM171 406q-9 0 -23.5 -9.5t-27 -24t-21 -31t-5.5 -28.5q26 -3 54 1t51 12.5t38 20t14.5 23.5t-19 21.5t-61.5 14.5zM179 601q17 15 25.5 24t15.5 16t14.5 15 t22.5 23q8 -3 15.5 -4t13 -2t9 -2.5t3.5 -6.5q-16 -15 -29.5 -30.5t-26 -30t-27 -28t-34.5 -25.5l-143 117l31 9q15 -10 28 -19t26.5 -17.5t27 -17.5t28.5 -21z" />
<glyph unicode="&#x11c;" horiz-adv-x="562" d="M480 66q-39 -20 -69 -32t-58 -18.5t-56.5 -8.5t-65.5 -2q-49 0 -88 11.5t-66.5 35t-42.5 60t-15 88.5q0 47 9.5 99t28 103.5t46 99t64.5 83.5t83 57.5t102 21.5q21 0 50 -4.5t55.5 -15t44.5 -30t18 -49.5q0 -11 -10.5 -10.5t-26 7.5t-35 18t-37.5 21t-33 17t-23 5 q-48 0 -87 -18.5t-70.5 -49.5t-55 -71.5t-39 -84.5t-23 -87.5t-7.5 -82.5q-7 -47 5.5 -81.5t37.5 -57t60 -33.5t72.5 -12.5t74.5 7t67.5 25.5t50 42t22.5 56q0 32 -12.5 54t-33 37t-47 24t-54 14t-55 7t-50.5 5v18q0 2 26.5 7t63 11t75.5 12t66 9l5 0.5t11 0.5h12h10h7.5 h11.5t11.5 -0.5t7.5 -0.5q1 -14 2.5 -44.5t3.5 -68t4 -79.5t4 -79.5t3.5 -67.5t2.5 -45v-15t0.5 -23.5t0.5 -23v-15.5h-21zM480 277v61q-15 0 -31 -7.5t-27 -14.5zM322 842q-13 -17 -26 -31t-25 -27.5t-24.5 -27.5t-26.5 -31l-29 15l134 182q18 -18 31.5 -39t25.5 -44 t24 -47t27 -48q0 -7 -3 -9.5t-8.5 -4t-12 -3t-14.5 -5.5q-13 22 -20.5 35t-13.5 24.5t-14.5 24.5t-24.5 36z" />
<glyph unicode="&#x11d;" horiz-adv-x="355" d="M-122 -237q0 27 9 41t42 14q-3 -14 -7.5 -28t-8 -26t-3 -19t7.5 -5q32 -21 70 -30t75 -9q56 1 96.5 23t67 57t41 80.5t18 94t-2.5 97.5t-19 90q-17 -19 -34.5 -40t-37.5 -37.5t-42.5 -27.5t-50.5 -11q-29 0 -43.5 10t-19.5 27.5t-4.5 40.5t0.5 49q0 24 1.5 54t7 60.5 t15 60t25.5 53t40 37.5t57 14q21 0 40.5 -3.5t36 -12.5t28.5 -24t19 -38q4 -45 10 -97.5t10 -109t4 -113.5t-7.5 -110t-25 -99.5t-49 -82t-78.5 -57t-113 -23.5q-28 0 -59 3.5t-57 14t-42.5 30t-16.5 52.5zM70 154q0 -11 -1 -25t1 -28t8.5 -24t21.5 -11q24 0 44.5 11t37 30 t29 42.5t21 48.5t13 48.5t4.5 41.5q3 19 0.5 38t-11.5 34t-24 24.5t-36 9.5q-24 0 -42 -13.5t-30 -34.5t-19 -47.5t-10.5 -53t-5 -51t-1.5 -40.5zM188 676q-13 -17 -26 -31t-25 -27.5t-24.5 -27.5t-26.5 -31l-29 15l134 182q18 -18 31.5 -39t25.5 -44t24 -47t27 -48 q0 -7 -3 -9.5t-8.5 -4t-12 -3t-14.5 -5.5q-13 22 -20.5 35t-13.5 24.5t-14.5 24.5t-24.5 36z" />
<glyph unicode="&#x11e;" horiz-adv-x="562" d="M480 66q-39 -20 -69 -32t-58 -18.5t-56.5 -8.5t-65.5 -2q-49 0 -88 11.5t-66.5 35t-42.5 60t-15 88.5q0 47 9.5 99t28 103.5t46 99t64.5 83.5t83 57.5t102 21.5q21 0 50 -4.5t55.5 -15t44.5 -30t18 -49.5q0 -11 -10.5 -10.5t-26 7.5t-35 18t-37.5 21t-33 17t-23 5 q-48 0 -87 -18.5t-70.5 -49.5t-55 -71.5t-39 -84.5t-23 -87.5t-7.5 -82.5q-7 -47 5.5 -81.5t37.5 -57t60 -33.5t72.5 -12.5t74.5 7t67.5 25.5t50 42t22.5 56q0 32 -12.5 54t-33 37t-47 24t-54 14t-55 7t-50.5 5v18q0 2 26.5 7t63 11t75.5 12t66 9l5 0.5t11 0.5h12h10h7.5 h11.5t11.5 -0.5t7.5 -0.5q1 -14 2.5 -44.5t3.5 -68t4 -79.5t4 -79.5t3.5 -67.5t2.5 -45v-15t0.5 -23.5t0.5 -23v-15.5h-21zM480 277v61q-15 0 -31 -7.5t-27 -14.5zM328 814q6 -8 5.5 -19t-0.5 -22q0 -8 -3 -18.5t-9.5 -20t-16.5 -15.5t-25 -6q-17 0 -28.5 6t-18.5 15 t-10 20.5t-3 21.5q0 6 1 14.5t3 16.5h20q-3 -5 -4.5 -12.5t1.5 -18.5q9 -26 19.5 -33.5t19.5 -3.5t15.5 15.5t10.5 24.5q-2 9 -2.5 17.5t-5.5 13.5z" />
<glyph unicode="&#x11f;" horiz-adv-x="355" d="M-122 -237q0 27 9 41t42 14q-3 -14 -7.5 -28t-8 -26t-3 -19t7.5 -5q32 -21 70 -30t75 -9q56 1 96.5 23t67 57t41 80.5t18 94t-2.5 97.5t-19 90q-17 -19 -34.5 -40t-37.5 -37.5t-42.5 -27.5t-50.5 -11q-29 0 -43.5 10t-19.5 27.5t-4.5 40.5t0.5 49q0 24 1.5 54t7 60.5 t15 60t25.5 53t40 37.5t57 14q21 0 40.5 -3.5t36 -12.5t28.5 -24t19 -38q4 -45 10 -97.5t10 -109t4 -113.5t-7.5 -110t-25 -99.5t-49 -82t-78.5 -57t-113 -23.5q-28 0 -59 3.5t-57 14t-42.5 30t-16.5 52.5zM70 154q0 -11 -1 -25t1 -28t8.5 -24t21.5 -11q24 0 44.5 11t37 30 t29 42.5t21 48.5t13 48.5t4.5 41.5q3 19 0.5 38t-11.5 34t-24 24.5t-36 9.5q-24 0 -42 -13.5t-30 -34.5t-19 -47.5t-10.5 -53t-5 -51t-1.5 -40.5zM234 597q6 -8 5.5 -19t-0.5 -22q0 -8 -3 -18.5t-9.5 -20t-16.5 -15.5t-25 -6q-17 0 -28.5 6t-18.5 15t-10 20.5t-3 21.5 q0 6 1 14.5t3 16.5h20q-3 -5 -4.5 -12.5t1.5 -18.5q9 -26 19.5 -33.5t19.5 -3.5t15.5 15.5t10.5 24.5q-2 9 -2.5 17.5t-5.5 13.5z" />
<glyph unicode="&#x120;" horiz-adv-x="562" d="M480 66q-39 -20 -69 -32t-58 -18.5t-56.5 -8.5t-65.5 -2q-49 0 -88 11.5t-66.5 35t-42.5 60t-15 88.5q0 47 9.5 99t28 103.5t46 99t64.5 83.5t83 57.5t102 21.5q21 0 50 -4.5t55.5 -15t44.5 -30t18 -49.5q0 -11 -10.5 -10.5t-26 7.5t-35 18t-37.5 21t-33 17t-23 5 q-48 0 -87 -18.5t-70.5 -49.5t-55 -71.5t-39 -84.5t-23 -87.5t-7.5 -82.5q-7 -47 5.5 -81.5t37.5 -57t60 -33.5t72.5 -12.5t74.5 7t67.5 25.5t50 42t22.5 56q0 32 -12.5 54t-33 37t-47 24t-54 14t-55 7t-50.5 5v18q0 2 26.5 7t63 11t75.5 12t66 9l5 0.5t11 0.5h12h10h7.5 h11.5t11.5 -0.5t7.5 -0.5q1 -14 2.5 -44.5t3.5 -68t4 -79.5t4 -79.5t3.5 -67.5t2.5 -45v-15t0.5 -23.5t0.5 -23v-15.5h-21zM480 277v61q-15 0 -31 -7.5t-27 -14.5zM249 698q-3 15 -1.5 25.5t6 17t11.5 9t14 2.5q8 0 15 -2.5t12 -8.5t6.5 -16t-2.5 -25q-4 -13 -9.5 -21.5 t-21.5 -8.5q-15 0 -20.5 7.5t-9.5 20.5z" />
<glyph unicode="&#x121;" horiz-adv-x="355" d="M-122 -237q0 27 9 41t42 14q-3 -14 -7.5 -28t-8 -26t-3 -19t7.5 -5q32 -21 70 -30t75 -9q56 1 96.5 23t67 57t41 80.5t18 94t-2.5 97.5t-19 90q-17 -19 -34.5 -40t-37.5 -37.5t-42.5 -27.5t-50.5 -11q-29 0 -43.5 10t-19.5 27.5t-4.5 40.5t0.5 49q0 24 1.5 54t7 60.5 t15 60t25.5 53t40 37.5t57 14q21 0 40.5 -3.5t36 -12.5t28.5 -24t19 -38q4 -45 10 -97.5t10 -109t4 -113.5t-7.5 -110t-25 -99.5t-49 -82t-78.5 -57t-113 -23.5q-28 0 -59 3.5t-57 14t-42.5 30t-16.5 52.5zM70 154q0 -11 -1 -25t1 -28t8.5 -24t21.5 -11q24 0 44.5 11t37 30 t29 42.5t21 48.5t13 48.5t4.5 41.5q3 19 0.5 38t-11.5 34t-24 24.5t-36 9.5q-24 0 -42 -13.5t-30 -34.5t-19 -47.5t-10.5 -53t-5 -51t-1.5 -40.5zM146 510q-3 15 -1.5 25.5t6 17t11.5 9t14 2.5q8 0 15 -2.5t12 -8.5t6.5 -16t-2.5 -25q-4 -13 -9.5 -21.5t-21.5 -8.5 q-15 0 -20.5 7.5t-9.5 20.5z" />
<glyph unicode="&#x122;" horiz-adv-x="562" d="M480 66q-39 -20 -69 -32t-58 -18.5t-56.5 -8.5t-65.5 -2q-49 0 -88 11.5t-66.5 35t-42.5 60t-15 88.5q0 47 9.5 99t28 103.5t46 99t64.5 83.5t83 57.5t102 21.5q21 0 50 -4.5t55.5 -15t44.5 -30t18 -49.5q0 -11 -10.5 -10.5t-26 7.5t-35 18t-37.5 21t-33 17t-23 5 q-48 0 -87 -18.5t-70.5 -49.5t-55 -71.5t-39 -84.5t-23 -87.5t-7.5 -82.5q-7 -47 5.5 -81.5t37.5 -57t60 -33.5t72.5 -12.5t74.5 7t67.5 25.5t50 42t22.5 56q0 32 -12.5 54t-33 37t-47 24t-54 14t-55 7t-50.5 5v18q0 2 26.5 7t63 11t75.5 12t66 9l5 0.5t11 0.5h12h10h7.5 h11.5t11.5 -0.5t7.5 -0.5q1 -14 2.5 -44.5t3.5 -68t4 -79.5t4 -79.5t3.5 -67.5t2.5 -45v-15t0.5 -23.5t0.5 -23v-15.5h-21zM480 277v61q-15 0 -31 -7.5t-27 -14.5zM278 -98q0 3 -5 9.5t-11 12.5t-12.5 11t-9.5 6q6 12 11.5 16t16.5 4q28 0 40 -12t12 -37q0 -31 -13 -50 t-48 -36q-1 2 -1 9v10v10.5t1 8.5q0 2 3.5 7.5t7 12t6 12t2.5 6.5z" />
<glyph unicode="&#x123;" horiz-adv-x="355" d="M-122 -237q0 27 9 41t42 14q-3 -14 -7.5 -28t-8 -26t-3 -19t7.5 -5q32 -21 70 -30t75 -9q56 1 96.5 23t67 57t41 80.5t18 94t-2.5 97.5t-19 90q-17 -19 -34.5 -40t-37.5 -37.5t-42.5 -27.5t-50.5 -11q-29 0 -43.5 10t-19.5 27.5t-4.5 40.5t0.5 49q0 24 1.5 54t7 60.5 t15 60t25.5 53t40 37.5t57 14q21 0 40.5 -3.5t36 -12.5t28.5 -24t19 -38q4 -45 10 -97.5t10 -109t4 -113.5t-7.5 -110t-25 -99.5t-49 -82t-78.5 -57t-113 -23.5q-28 0 -59 3.5t-57 14t-42.5 30t-16.5 52.5zM70 154q0 -11 -1 -25t1 -28t8.5 -24t21.5 -11q24 0 44.5 11t37 30 t29 42.5t21 48.5t13 48.5t4.5 41.5q3 19 0.5 38t-11.5 34t-24 24.5t-36 9.5q-24 0 -42 -13.5t-30 -34.5t-19 -47.5t-10.5 -53t-5 -51t-1.5 -40.5zM150 627q0 5 8 12t12 7q25 -16 32 -42.5t7 -54.5q0 -6 0.5 -14.5t-0.5 -17t-5.5 -15.5t-14.5 -10q-8 3 -15 22t-12.5 42 t-8.5 44t-3 27z" />
<glyph unicode="&#x124;" horiz-adv-x="386" d="M22 201q0 72 0.5 136t3 126.5t6.5 127t11 139.5h29v-384h218q-1 36 -1 77.5t-1 84t-1.5 83t-0.5 76.5v63v42q3 0 10.5 -1.5t15 -4t13.5 -7t6 -11.5v-749l-31 6q-2 0 -3 13t-1.5 32.5t-1 45t-1 50t-1 46.5t-0.5 37v38t-1 55l-219 -39l-2 -285h-48v14v32.5v43v45.5v40v28z M203 948q-13 -17 -26 -31t-25 -27.5t-24.5 -27.5t-26.5 -31l-29 15l134 182q18 -18 31.5 -39t25.5 -44t24 -47t27 -48q0 -7 -3 -9.5t-8.5 -4t-12 -3t-14.5 -5.5q-13 22 -20.5 35t-13.5 24.5t-14.5 24.5t-24.5 36z" />
<glyph unicode="&#x125;" horiz-adv-x="345" d="M60 686l26 -328q7 6 18 18t26 22.5t33 18t39 6.5q41 -4 65.5 -33t37 -71t16.5 -91.5t2.5 -94.5t-5 -80t-5.5 -48l-36 5q0 9 0.5 28.5t1.5 46t1 55.5t0.5 54.5t0 45.5t-1.5 28q1 28 -11 54t-32 39.5t-48 9t-60 -39.5q-28 -42 -41 -82.5t-17 -80t-3 -81t0 -87.5l-39 6 q3 11 4.5 40.5t2.5 71t1.5 92.5t0 105.5t-1.5 109.5t-2.5 105t-3 92t-2.5 69zM227 703q-13 -17 -26 -31t-25 -27.5t-24.5 -27.5t-26.5 -31l-29 15l134 182q18 -18 31.5 -39t25.5 -44t24 -47t27 -48q0 -7 -3 -9.5t-8.5 -4t-12 -3t-14.5 -5.5q-13 22 -20.5 35t-13.5 24.5 t-14.5 24.5t-24.5 36z" />
<glyph unicode="&#x127;" horiz-adv-x="345" d="M-48 514l81 1q-1 8 -1 14q-1 51 -2.5 93t-2.5 69l33 -5l13 -170l96 1v-36q-6 2 -22.5 1t-37.5 -2q-15 -1 -33 -2l10 -120q7 6 18 18t26 22.5t33 18t39 6.5q41 -4 65.5 -33t37 -71t16.5 -91.5t2.5 -94.5t-5 -80t-5.5 -48l-36 5q0 9 0.5 28.5t1.5 46t1 55.5t0.5 54.5 t0 45.5t-1.5 28q1 28 -11 54t-32 39.5t-48 9t-60 -39.5q-28 -42 -41 -82.5t-17 -80t-3 -81t0 -87.5l-39 6q3 11 4.5 40.5t2.5 71t1.5 92.5t0 105.5t-2.5 108.5v51h-17q-22 1 -41.5 3.5t-30.5 8.5z" />
<glyph unicode="&#x128;" horiz-adv-x="100" d="M14 703q0 12 8.5 19.5t20.5 7.5h5h5q5 -84 9 -159.5t6.5 -148.5t3.5 -145.5t1 -151.5q0 -11 1.5 -30t3 -37t3 -32.5t1.5 -15.5l-43 -8q-2 41 -4 94.5t-3.5 114t-3 125t-4 127.5t-5 121.5t-5.5 106.5v12zM4 822q-11 8 -17.5 2.5t-11.5 -17t-9 -25t-8 -21.5t-9 -6.5 t-11 19.5q0 47 15 66t49 19q19 -9 31.5 -21.5l23 -23t19 -16.5t18.5 -2t23 20.5t31 51.5q6 0 13.5 -5t7.5 -15q-16 -41 -31.5 -61.5t-29.5 -26t-28 0.5t-27 17t-25 23t-24 21z" />
<glyph unicode="&#x129;" horiz-adv-x="145" d="M67 388q12 0 20.5 1t14.5 -10q3 -45 7 -91.5t8 -93.5t5.5 -94.5t0.5 -92.5q0 -6 -3 -7.5t-8.5 -1t-13 1t-16.5 -1.5zM25 550q-11 8 -17.5 2.5t-11.5 -17t-9 -25t-8 -21.5t-9 -6.5t-11 19.5q0 47 15 66t49 19q19 -9 31.5 -21.5l23 -23t19 -16.5t18.5 -2t23 20.5t31 51.5 q6 0 13.5 -5t7.5 -15q-16 -41 -31.5 -61.5t-29.5 -26t-28 0.5t-27 17t-25 23t-24 21z" />
<glyph unicode="&#x12b;" horiz-adv-x="145" d="M67 388q12 0 20.5 1t14.5 -10q3 -45 7 -91.5t8 -93.5t5.5 -94.5t0.5 -92.5q0 -6 -3 -7.5t-8.5 -1t-13 1t-16.5 -1.5zM-100 514l360 3v-38q-10 2 -36.5 1.5t-61.5 -1.5t-75 -3t-78 -1.5t-70 2.5t-51 9z" />
<glyph unicode="&#x12c;" horiz-adv-x="100" d="M14 703q0 12 8.5 19.5t20.5 7.5h5h5q5 -84 9 -159.5t6.5 -148.5t3.5 -145.5t1 -151.5q0 -11 1.5 -30t3 -37t3 -32.5t1.5 -15.5l-43 -8q-2 41 -4 94.5t-3.5 114t-3 125t-4 127.5t-5 121.5t-5.5 106.5v12zM113 853q6 -8 5.5 -19t-0.5 -22q0 -8 -3 -18.5t-9.5 -20 t-16.5 -15.5t-25 -6q-17 0 -28.5 6t-18.5 15t-10 20.5t-3 21.5q0 6 1 14.5t3 16.5h20q-3 -5 -4.5 -12.5t1.5 -18.5q9 -26 19.5 -33.5t19.5 -3.5t15.5 15.5t10.5 24.5q-2 9 -2.5 17.5t-5.5 13.5z" />
<glyph unicode="&#x12f;" horiz-adv-x="145" d="M140 -116q-5 -1 -22.5 -6.5t-40 -11.5t-48 -8.5t-46.5 3t-34.5 21.5t-13.5 48t12 54t32 37t46 24q26 8 54 13l-12 330q12 0 20.5 1t14.5 -10q3 -45 7 -91.5t8 -93.5t5.5 -94.5t0.5 -92.5q0 -6 -3 -7.5t-8.5 -1t-13 1t-16.5 -1.5l-1 18q-12 -2 -25 -3q-22 -4 -40 -14.5 t-29.5 -28.5t-11.5 -47q0 -21 14 -27.5t36.5 -3t51.5 14t60 21.5zM9 567q0 7 1 15.5t4.5 15.5t9 12t13.5 5q12 0 24 -1t23 -4.5t18 -11t7 -21.5q0 -24 -18 -42.5t-44 -18.5q-20 0 -29 15.5t-9 35.5zM67 562q-3 0 -3 -5t3 -5q4 0 4 5t-4 5z" />
<glyph unicode="&#x130;" horiz-adv-x="100" d="M14 703q0 12 8.5 19.5t20.5 7.5h5h5q5 -84 9 -159.5t6.5 -148.5t3.5 -145.5t1 -151.5q0 -11 1.5 -30t3 -37t3 -32.5t1.5 -15.5l-43 -8q-2 41 -4 94.5t-3.5 114t-3 125t-4 127.5t-5 121.5t-5.5 106.5v12zM2 802q-3 15 -1.5 25.5t6 17t11.5 9t14 2.5q8 0 15 -2.5t12 -8.5 t6.5 -16t-2.5 -25q-4 -13 -9.5 -21.5t-21.5 -8.5q-15 0 -20.5 7.5t-9.5 20.5z" />
<glyph unicode="&#x131;" horiz-adv-x="145" d="M67 388q12 0 20.5 1t14.5 -10q3 -45 7 -91.5t8 -93.5t5.5 -94.5t0.5 -92.5q0 -6 -3 -7.5t-8.5 -1t-13 1t-16.5 -1.5z" />
<glyph unicode="&#x134;" horiz-adv-x="451" d="M19 154q0 13 1.5 23t17.5 15q17 -7 25 -21.5t13.5 -32.5t10 -37t13.5 -34t26 -23.5t46 -5.5q52 5 88 18.5t59.5 33.5t37 47t20 60t8 71.5t1.5 82.5q0 45 -6.5 89t-14 87.5t-14 87t-6.5 87.5q0 5 0.5 8.5t5 5t12 0.5t21.5 -6q1 -1 4.5 -13.5t7.5 -31.5t8 -42t7.5 -46 t6.5 -43.5t4 -34.5q4 -60 10 -122t5 -120t-12.5 -107.5t-41.5 -85t-83 -54t-136 -12.5q-30 0 -56.5 13.5t-46 35.5t-31 50t-11.5 57zM398 969q-13 -17 -26 -31t-25 -27.5t-24.5 -27.5t-26.5 -31l-29 15l134 182q18 -18 31.5 -39t25.5 -44t24 -47t27 -48q0 -7 -3 -9.5 t-8.5 -4t-12 -3t-14.5 -5.5q-13 22 -20.5 35t-13.5 24.5t-14.5 24.5t-24.5 36z" />
<glyph unicode="&#x135;" horiz-adv-x="211" d="M-224 -315q0 10 1.5 17t6 8t12.5 -4.5t20 -21.5q0 -13 18.5 -21t42.5 -12.5t48.5 -5.5t35.5 -1q49 0 83.5 17.5t57 47t33 69t10.5 82.5q0 62 -8.5 119.5t-22.5 115t-32 117t-36 125.5q-7 30 -4 45t10.5 19.5t17 1.5t15.5 -9q17 -63 34 -129.5t32 -135.5t24 -139t9 -138 q0 -47 -12 -91.5t-37.5 -78.5t-63.5 -55t-91 -21q-24 0 -59 1t-67.5 8.5t-55 23t-22.5 46.5zM116 676q-13 -17 -26 -31t-25.5 -27.5t-24.5 -27.5t-26 -31l-29 15l133 182q18 -18 31.5 -39t25.5 -44t24 -47t27 -48q0 -7 -3 -9.5t-8 -4t-12 -3t-14 -5.5q-14 22 -21 35 t-13.5 24.5t-14.5 24.5t-24 36z" />
<glyph unicode="&#x136;" horiz-adv-x="475" d="M33 582v28.5v43.5t0.5 43.5t0.5 28.5h27l1 -20.5t2.5 -55t3.5 -81t4.5 -99t5 -108t5 -108t4.5 -99.5t4 -82v-6.5t-0.5 -13t-1 -13.5t-0.5 -9q0 -9 -0.5 -14.5t-4 -9.5t-12 -6.5t-22.5 -4.5q-1 13 -3 52.5t-4.5 93.5t-4.5 117t-3.5 123t-2.5 113t1 87zM302 288 q-29 49 -60 67.5t-59.5 17.5t-52.5 -17t-39 -34v42l269 366h38l-211 -308q17 -4 41 -16.5t47 -28.5t41.5 -34.5t24.5 -35.5l96 -293q-6 0 -11.5 -2t-11 -3.5t-10 -0.5t-6.5 6zM236 -98q0 3 -5 9.5t-11 12.5t-12.5 11t-9.5 6q6 12 11.5 16t16.5 4q28 0 40 -12t12 -37 q0 -31 -13 -50t-48 -36q-1 2 -1 9v10v10.5t1 8.5q0 2 3.5 7.5t7 12t6 12t2.5 6.5z" />
<glyph unicode="&#x137;" horiz-adv-x="387" d="M56 27q-1 21 -4.5 64.5t-7.5 98t-8 115.5t-7.5 115.5t-6.5 98t-4 64.5q-1 9 -1.5 31.5t-1.5 48t-1.5 48t-0.5 31.5q14 0 25 -5.5t18 -18.5q2 -21 4.5 -59.5t5.5 -88.5t6.5 -107t6.5 -113q3 5 6 9t4 5q11 12 26 28t31.5 33t33 33.5l30 30t22.5 21.5t11 8l38 -19 q-17 -15 -39 -35t-43 -42.5t-40.5 -47t-31.5 -48.5q0 -1 -0.5 -4.5t-0.5 -5.5q0 -1 0.5 -4.5t0.5 -4.5l231 -269q0 -1 0.5 -4t0.5 -5q0 -19 -20 -29l-250 288q-1 1 -2.5 3.5t-3.5 5.5l11 -194q0 -5 0.5 -19t1 -30.5t1 -31t0.5 -19.5q-13 0 -24 5.5t-17 18.5zM191 -98 q0 3 -5 9.5t-11 12.5t-12.5 11t-9.5 6q6 12 11.5 16t16.5 4q28 0 40 -12t12 -37q0 -31 -13 -50t-48 -36q-1 2 -1 9v10v10.5t1 8.5q0 2 3.5 7.5t7 12t6 12t2.5 6.5z" />
<glyph unicode="&#x139;" horiz-adv-x="490" d="M62 672l38 -634q89 0 178.5 11.5t183.5 21.5l4 -33q-1 0 -18.5 -2.5t-46 -6t-64.5 -7.5l-72 -8t-69 -8t-57 -6q-1 0 -5 -0.5t-9 -0.5h-10h-8q-22 0 -36 23.5t-23 64t-13 93t-6 109.5t-1.5 115t0.5 109.5t-0.5 93.5t-3.5 65h38zM277 819q-13 -18 -26 -31.5t-25.5 -27 t-24.5 -28t-26 -30.5l-29 15q35 45 54 73l28.5 42t12.5 16.5t5.5 -1.5t8.5 -12.5t22 -15.5z" />
<glyph unicode="&#x13a;" horiz-adv-x="145" d="M44 777q14 -2 24.5 -7.5t16.5 -19.5q0 -19 1.5 -52.5t3 -77.5t3.5 -95t4 -103t3.5 -103t3 -95t2.5 -78t2 -52q0 -2 -0.5 -7t-1 -12t-1 -13.5t-0.5 -9.5q-1 -6 -1 -14.5t-2 -16.5t-6.5 -14.5t-14.5 -7.5l-17 21q-1 1 -2.5 37.5t-4 95t-4.5 132t-4.5 148.5t-4.5 144t-3 119 q0 4 0.5 16t1 24.5t1 24t0.5 16.5zM145 921q-13 -18 -26 -31.5t-25.5 -27t-24.5 -28t-26 -30.5l-29 15q35 45 54 73l28.5 42t12.5 16.5t5.5 -1.5t8.5 -12.5t22 -15.5z" />
<glyph unicode="&#x13b;" horiz-adv-x="490" d="M62 672l38 -634q89 0 178.5 11.5t183.5 21.5l4 -33q-1 0 -18.5 -2.5t-46 -6t-64.5 -7.5l-72 -8t-69 -8t-57 -6q-1 0 -5 -0.5t-9 -0.5h-10h-8q-22 0 -36 23.5t-23 64t-13 93t-6 109.5t-1.5 115t0.5 109.5t-0.5 93.5t-3.5 65h38zM242 -98q0 3 -5 9.5t-11 12.5t-12.5 11 t-9.5 6q6 12 11.5 16t16.5 4q28 0 40 -12t12 -37q0 -31 -13 -50t-48 -36q-1 2 -1 9v10v10.5t1 8.5q0 2 3.5 7.5t7 12t6 12t2.5 6.5z" />
<glyph unicode="&#x13c;" horiz-adv-x="145" d="M44 777q14 -2 24.5 -7.5t16.5 -19.5q0 -19 1.5 -52.5t3 -77.5t3.5 -95t4 -103t3.5 -103t3 -95t2.5 -78t2 -52q0 -2 -0.5 -7t-1 -12t-1 -13.5t-0.5 -9.5q-1 -6 -1 -14.5t-2 -16.5t-6.5 -14.5t-14.5 -7.5l-17 21q-1 1 -2.5 37.5t-4 95t-4.5 132t-4.5 148.5t-4.5 144t-3 119 q0 4 0.5 16t1 24.5t1 24t0.5 16.5zM70 -98q0 3 -5 9.5t-11 12.5t-12.5 11t-9.5 6q6 12 11.5 16t16.5 4q28 0 40 -12t12 -37q0 -31 -13 -50t-48 -36q-1 2 -1 9v10v10.5t1 8.5q0 2 3.5 7.5t7 12t6 12t2.5 6.5z" />
<glyph unicode="&#x13d;" horiz-adv-x="490" d="M62 672l38 -634q89 0 178.5 11.5t183.5 21.5l4 -33q-1 0 -18.5 -2.5t-46 -6t-64.5 -7.5l-72 -8t-69 -8t-57 -6q-1 0 -5 -0.5t-9 -0.5h-10h-8q-22 0 -36 23.5t-23 64t-13 93t-6 109.5t-1.5 115t0.5 109.5t-0.5 93.5t-3.5 65h38zM209 751q17 15 25.5 24t15.5 16t14.5 15 t22.5 23q8 -3 15.5 -4t13 -2t9 -2.5t3.5 -6.5q-16 -15 -29.5 -30.5t-26 -30t-27 -28t-34.5 -25.5l-143 117l31 9q15 -10 28 -19t26.5 -17.5t27 -17.5t28.5 -21z" />
<glyph unicode="&#x13e;" horiz-adv-x="236" d="M44 777q14 -2 24.5 -7.5t16.5 -19.5q0 -19 1.5 -52.5t3 -77.5t3.5 -95t4 -103t3.5 -103t3 -95t2.5 -78t2 -52q0 -2 -0.5 -7t-1 -12t-1 -13.5t-0.5 -9.5q-1 -6 -1 -14.5t-2 -16.5t-6.5 -14.5t-14.5 -7.5l-17 21q-1 1 -2.5 37.5t-4 95t-4.5 132t-4.5 148.5t-4.5 144t-3 119 q0 4 0.5 16t1 24.5t1 24t0.5 16.5zM159 691q0 5 8 12t12 7q25 -16 32 -42.5t7 -54.5q0 -6 0.5 -14.5t-0.5 -17t-5.5 -15.5t-14.5 -10q-8 3 -15 22t-12.5 42t-8.5 44t-3 27z" />
<glyph unicode="&#x13f;" horiz-adv-x="490" d="M62 672l38 -634q89 0 178.5 11.5t183.5 21.5l4 -33q-1 0 -18.5 -2.5t-46 -6t-64.5 -7.5l-72 -8t-69 -8t-57 -6q-1 0 -5 -0.5t-9 -0.5h-10h-8q-22 0 -36 23.5t-23 64t-13 93t-6 109.5t-1.5 115t0.5 109.5t-0.5 93.5t-3.5 65h38zM268 166q-24 14 -33 31t-7.5 32.5t11 27 t23 13t29 -8t27.5 -35.5q0 -11 -3.5 -21.5t-10 -19t-16 -14t-20.5 -5.5zM277 225q-5 1 -6.5 -2t-1.5 -7.5t1.5 -8t6.5 -2.5q9 3 9 10.5t-9 9.5z" />
<glyph unicode="&#x140;" horiz-adv-x="237" d="M44 777q14 -2 24.5 -7.5t16.5 -19.5q0 -19 1.5 -52.5t3 -77.5t3.5 -95t4 -103t3.5 -103t3 -95t2.5 -78t2 -52q0 -2 -0.5 -7t-1 -12t-1 -13.5t-0.5 -9.5q-1 -6 -1 -14.5t-2 -16.5t-6.5 -14.5t-14.5 -7.5l-17 21q-1 1 -2.5 37.5t-4 95t-4.5 132t-4.5 148.5t-4.5 144t-3 119 q0 4 0.5 16t1 24.5t1 24t0.5 16.5zM178 286q-24 14 -33 31t-7.5 32.5t11 27t23 13t29 -8t27.5 -35.5q0 -11 -3.5 -21.5t-10 -19t-16 -14t-20.5 -5.5zM187 345q-5 1 -6.5 -2t-1.5 -7.5t1.5 -8t6.5 -2.5q9 3 9 10.5t-9 9.5z" />
<glyph unicode="&#x141;" horiz-adv-x="553" d="M25 267q1 1 23 4q18 3 44 6q0 6 -1 12q-1 57 -0.5 115t0.5 109.5t-0.5 93.5t-3.5 65h38l23 -389q18 2 36 3q45 5 90 9q4 0 15.5 0.5t24.5 1t24.5 1t16.5 0.5q0 -13 -5.5 -24.5t-18.5 -17.5q-24 -2 -59.5 -5.5t-73.5 -8.5q-24 -2 -47 -5l12 -199q89 0 178.5 11.5 t183.5 21.5l4 -33q-1 0 -18.5 -2.5t-46 -6t-64.5 -7.5l-72 -8t-69 -8t-57 -6q-1 0 -5 -0.5t-10 -0.5h-17q-22 0 -36 23.5t-23 64t-14 92.5q-1 26 -3 52q-17 -2 -30 -2q-2 0 -10 -0.5t-11 -0.5q-13 0 -22 2t-15 18z" />
<glyph unicode="&#x142;" horiz-adv-x="145" d="M-83 230q1 1 23 4.5t58 6.5q25 3 56 6q0 18 -1 37q-2 74 -4.5 149t-4.5 144t-3 119q0 4 0.5 16t1 24.5t1 24t0.5 16.5q14 -2 24.5 -7.5t16.5 -19.5q0 -19 1.5 -52.5t3 -77.5t3.5 -95t4 -103t3 -103q1 -36 2 -67q31 3 64 6q4 0 15.5 0.5t24.5 1t24.5 1t16.5 0.5 q0 -13 -5.5 -24t-18.5 -17q-24 -3 -60 -6q-28 -3 -60 -7q2 -34 3 -61q1 -34 2 -52q0 -2 -0.5 -7t-1 -12t-1 -13.5t-0.5 -9.5q-1 -6 -1 -14.5t-2 -16.5t-6.5 -14.5t-14.5 -7.5l-17 21q-1 1 -2.5 37.5t-3.5 94.5q-1 23 -3 50q-20 -3 -39 -4q-36 -4 -60 -6q-2 0 -10 -0.5 t-11 -0.5q-13 0 -22 2t-15 18z" />
<glyph unicode="&#x143;" horiz-adv-x="533" d="M72 595q0 -3 -0.5 -13t-0.5 -20.5v-20v-12.5q0 -65 3 -130t7 -130.5t7 -131.5t3 -132l-36 2q-1 19 -3.5 53t-6 78.5t-7.5 95.5t-8.5 103.5t-7.5 103.5t-5.5 94.5t-3.5 77t0 51.5q0 12 9 20t21 8t27.5 -5.5t20.5 -14.5l360 -581q0 46 -2.5 99t-4.5 109t-2.5 112.5t2 110 t10 101.5t21.5 87q14 5 22 5.5t12 -0.5t4.5 -5t0.5 -8v-6v-5q-2 -6 -4.5 -22t-6.5 -47.5t-7 -81.5t-6 -124t-4.5 -176t-0.5 -238l-29 -2zM327 863q-13 -18 -26 -31.5t-25.5 -27t-24.5 -28t-26 -30.5l-29 15q35 45 54 73l28.5 42t12.5 16.5t5.5 -1.5t8.5 -12.5t22 -15.5z" />
<glyph unicode="&#x144;" horiz-adv-x="405" d="M34 5q-2 16 -3.5 46.5t-3 69t-2.5 80.5t-2 80t-2.5 68.5t-4.5 46.5q0 1 -0.5 5t-1 9t-0.5 8.5v5.5q15 12 25.5 8t17.5 -17.5t10 -33.5t4.5 -40t1.5 -36.5v-23.5q2 17 6 40t12 47t19.5 47.5t28.5 41.5t38.5 28t49.5 8q44 -2 72.5 -24t45 -59t24 -85t10 -102t1.5 -109.5 t-1 -106.5q-9 -2 -18 -6.5t-15 -4t-8.5 9t1.5 33.5q1 18 3.5 55.5t2 83.5t-5.5 95t-18.5 89.5t-38.5 66t-65 25.5q-41 -17 -68.5 -64t-44 -110t-24 -136.5t-8.5 -143.5q-2 1 -7.5 1t-12 0.5t-12 1.5t-6.5 2zM262 619q-13 -18 -26 -31.5t-25.5 -27t-24.5 -28t-26 -30.5 l-29 15q35 45 54 73l28.5 42t12.5 16.5t5.5 -1.5t8.5 -12.5t22 -15.5z" />
<glyph unicode="&#x145;" horiz-adv-x="533" d="M72 595q0 -3 -0.5 -13t-0.5 -20.5v-20v-12.5q0 -65 3 -130t7 -130.5t7 -131.5t3 -132l-36 2q-1 19 -3.5 53t-6 78.5t-7.5 95.5t-8.5 103.5t-7.5 103.5t-5.5 94.5t-3.5 77t0 51.5q0 12 9 20t21 8t27.5 -5.5t20.5 -14.5l360 -581q0 46 -2.5 99t-4.5 109t-2.5 112.5t2 110 t10 101.5t21.5 87q14 5 22 5.5t12 -0.5t4.5 -5t0.5 -8v-6v-5q-2 -6 -4.5 -22t-6.5 -47.5t-7 -81.5t-6 -124t-4.5 -176t-0.5 -238l-29 -2zM264 -98q0 3 -5 9.5t-11 12.5t-12.5 11t-9.5 6q6 12 11.5 16t16.5 4q28 0 40 -12t12 -37q0 -31 -13 -50t-48 -36q-1 2 -1 9v10v10.5 t1 8.5q0 2 3.5 7.5t7 12t6 12t2.5 6.5z" />
<glyph unicode="&#x146;" horiz-adv-x="405" d="M34 5q-2 16 -3.5 46.5t-3 69t-2.5 80.5t-2 80t-2.5 68.5t-4.5 46.5q0 1 -0.5 5t-1 9t-0.5 8.5v5.5q15 12 25.5 8t17.5 -17.5t10 -33.5t4.5 -40t1.5 -36.5v-23.5q2 17 6 40t12 47t19.5 47.5t28.5 41.5t38.5 28t49.5 8q44 -2 72.5 -24t45 -59t24 -85t10 -102t1.5 -109.5 t-1 -106.5q-9 -2 -18 -6.5t-15 -4t-8.5 9t1.5 33.5q1 18 3.5 55.5t2 83.5t-5.5 95t-18.5 89.5t-38.5 66t-65 25.5q-41 -17 -68.5 -64t-44 -110t-24 -136.5t-8.5 -143.5q-2 1 -7.5 1t-12 0.5t-12 1.5t-6.5 2zM200 -98q0 3 -5 9.5t-11 12.5t-12.5 11t-9.5 6q6 12 11.5 16 t16.5 4q28 0 40 -12t12 -37q0 -31 -13 -50t-48 -36q-1 2 -1 9v10v10.5t1 8.5q0 2 3.5 7.5t7 12t6 12t2.5 6.5z" />
<glyph unicode="&#x147;" horiz-adv-x="533" d="M72 595q0 -3 -0.5 -13t-0.5 -20.5v-20v-12.5q0 -65 3 -130t7 -130.5t7 -131.5t3 -132l-36 2q-1 19 -3.5 53t-6 78.5t-7.5 95.5t-8.5 103.5t-7.5 103.5t-5.5 94.5t-3.5 77t0 51.5q0 12 9 20t21 8t27.5 -5.5t20.5 -14.5l360 -581q0 46 -2.5 99t-4.5 109t-2.5 112.5t2 110 t10 101.5t21.5 87q14 5 22 5.5t12 -0.5t4.5 -5t0.5 -8v-6v-5q-2 -6 -4.5 -22t-6.5 -47.5t-7 -81.5t-6 -124t-4.5 -176t-0.5 -238l-29 -2zM277 755q17 15 25.5 24t15.5 16t14.5 15t22.5 23q8 -3 15.5 -4t13 -2t9 -2.5t3.5 -6.5q-16 -15 -29.5 -30.5t-26 -30t-27 -28 t-34.5 -25.5l-143 117l31 9q15 -10 28 -19t26.5 -17.5t27 -17.5t28.5 -21z" />
<glyph unicode="&#x148;" horiz-adv-x="405" d="M34 5q-2 16 -3.5 46.5t-3 69t-2.5 80.5t-2 80t-2.5 68.5t-4.5 46.5q0 1 -0.5 5t-1 9t-0.5 8.5v5.5q15 12 25.5 8t17.5 -17.5t10 -33.5t4.5 -40t1.5 -36.5v-23.5q2 17 6 40t12 47t19.5 47.5t28.5 41.5t38.5 28t49.5 8q44 -2 72.5 -24t45 -59t24 -85t10 -102t1.5 -109.5 t-1 -106.5q-9 -2 -18 -6.5t-15 -4t-8.5 9t1.5 33.5q1 18 3.5 55.5t2 83.5t-5.5 95t-18.5 89.5t-38.5 66t-65 25.5q-41 -17 -68.5 -64t-44 -110t-24 -136.5t-8.5 -143.5q-2 1 -7.5 1t-12 0.5t-12 1.5t-6.5 2zM214 601q17 15 25.5 24t15.5 16t14.5 15t22.5 23q8 -3 15.5 -4 t13 -2t9 -2.5t3.5 -6.5q-16 -15 -29.5 -30.5t-26 -30t-27 -28t-34.5 -25.5l-143 117l31 9q15 -10 28 -19t26.5 -17.5t27 -17.5t28.5 -21z" />
<glyph unicode="&#x149;" horiz-adv-x="405" d="M31 -10q-2 16 -3.5 46.5t-3 69t-2.5 80.5t-2 80t-2.5 68.5t-4.5 46.5q0 1 -0.5 5t-1 9t-0.5 8.5v5.5q15 12 25.5 8t17.5 -17.5t10 -33.5t4.5 -40t1.5 -36.5v-23.5q2 17 6 40t12 47t19.5 47.5t28.5 41.5t38.5 28t49.5 8q44 -2 72.5 -24t45 -59t24 -85t10 -102t1.5 -109.5 t-1 -106.5q-9 -2 -18 -6.5t-15 -4t-8.5 9t1.5 33.5q1 18 3.5 55.5t2 83.5t-5.5 95t-18.5 89.5t-38.5 66t-65 25.5q-41 -17 -68.5 -64t-44 -110t-24 -136.5t-8.5 -143.5q-2 1 -7.5 1t-12 0.5t-12 1.5t-6.5 2zM61 585q0 3 -5 9.5t-11 12.5t-12.5 11t-9.5 6q6 12 11.5 16 t16.5 4q28 0 40 -12t12 -37q0 -31 -13 -50t-48 -36q-1 2 -1 9v10v10.5t1 8.5q0 2 3.5 7.5t7 12t6 12t2.5 6.5z" />
<glyph unicode="&#x14b;" horiz-adv-x="106" d="M49 19q-3 21 -6 64.5t-7 98.5t-8 115.5t-8 115.5t-7 98.5t-3 64.5q-1 9 -2 31.5t-1.5 47.5t-1 47.5t-0.5 31.5q14 0 25.5 -5t18.5 -19q1 -23 4.5 -71t7 -108.5t8 -127.5t8 -127.5t6 -108.5t4.5 -71q0 -5 0.5 -19.5t0.5 -31t0.5 -30.5t0.5 -20q-13 0 -23.5 6t-16.5 18z " />
<glyph unicode="&#x14c;" horiz-adv-x="442" d="M18 332q0 33 4.5 70t15 72.5t27 68t40 57t55 39t71.5 14.5q35 0 62 -19.5t47 -51t33 -71.5t21.5 -80.5t11.5 -78t3 -64.5q-4 -59 -17 -108.5t-35.5 -87t-55.5 -61.5t-80 -32q-45 0 -77 16t-55 42t-37 60t-21.5 71t-10 74.5t-2.5 69.5zM56 332q0 -24 1 -54t5.5 -60.5 t13.5 -60t24.5 -52t39 -36.5t56.5 -14q48 -3 79 12t50 46t29 75t16 100q0 22 -2 55t-7.5 69t-15 72.5t-25 66t-37 47.5t-51.5 18q-31 0 -56 -14.5t-44.5 -38t-34 -53.5t-23.5 -61.5t-13.5 -62t-4.5 -54.5zM46 786l360 3v-38q-10 2 -36.5 1.5t-61.5 -1.5t-75 -3t-78 -1.5 t-70 2.5t-51 9z" />
<glyph unicode="&#x14d;" horiz-adv-x="371" d="M24 183q0 23 4 53.5t13 61.5t22.5 61t32.5 53.5t44 38t56 14.5q32 0 59.5 -22t47 -57t29.5 -78t8 -84q0 -60 -23 -107t-58.5 -76t-76 -39t-76 5.5t-59 58.5t-23.5 117zM61 179q3 -61 21 -94t43.5 -43.5t55.5 -0.5t56 35.5t44.5 64t20.5 86.5q2 36 -5.5 70t-21 60.5 t-33 42t-44.5 15.5q-24 0 -43 -12t-34.5 -32.5t-26.5 -46.5t-18.5 -52t-11 -50.5t-3.5 -42.5zM14 541l360 3v-38q-10 2 -36.5 1.5t-61.5 -1.5t-75 -3t-78 -1.5t-70 2.5t-51 9z" />
<glyph unicode="&#x14e;" horiz-adv-x="442" d="M18 332q0 33 4.5 70t15 72.5t27 68t40 57t55 39t71.5 14.5q35 0 62 -19.5t47 -51t33 -71.5t21.5 -80.5t11.5 -78t3 -64.5q-4 -59 -17 -108.5t-35.5 -87t-55.5 -61.5t-80 -32q-45 0 -77 16t-55 42t-37 60t-21.5 71t-10 74.5t-2.5 69.5zM56 332q0 -24 1 -54t5.5 -60.5 t13.5 -60t24.5 -52t39 -36.5t56.5 -14q48 -3 79 12t50 46t29 75t16 100q0 22 -2 55t-7.5 69t-15 72.5t-25 66t-37 47.5t-51.5 18q-31 0 -56 -14.5t-44.5 -38t-34 -53.5t-23.5 -61.5t-13.5 -62t-4.5 -54.5zM271 830q6 -8 5.5 -19t-0.5 -22q0 -8 -3 -18.5t-9.5 -20 t-16.5 -15.5t-25 -6q-17 0 -28.5 6t-18.5 15t-10 20.5t-3 21.5q0 6 1 14.5t3 16.5h20q-3 -5 -4.5 -12.5t1.5 -18.5q9 -26 19.5 -33.5t19.5 -3.5t15.5 15.5t10.5 24.5q-2 9 -2.5 17.5t-5.5 13.5z" />
<glyph unicode="&#x14f;" horiz-adv-x="371" d="M24 183q0 23 4 53.5t13 61.5t22.5 61t32.5 53.5t44 38t56 14.5q32 0 59.5 -22t47 -57t29.5 -78t8 -84q0 -60 -23 -107t-58.5 -76t-76 -39t-76 5.5t-59 58.5t-23.5 117zM61 179q3 -61 21 -94t43.5 -43.5t55.5 -0.5t56 35.5t44.5 64t20.5 86.5q2 36 -5.5 70t-21 60.5 t-33 42t-44.5 15.5q-24 0 -43 -12t-34.5 -32.5t-26.5 -46.5t-18.5 -52t-11 -50.5t-3.5 -42.5zM230 666q6 -8 5.5 -19t-0.5 -22q0 -8 -3 -18.5t-9.5 -20t-16.5 -15.5t-25 -6q-17 0 -28.5 6t-18.5 15t-10 20.5t-3 21.5q0 6 1 14.5t3 16.5h20q-3 -5 -4.5 -12.5t1.5 -18.5 q9 -26 19.5 -33.5t19.5 -3.5t15.5 15.5t10.5 24.5q-2 9 -2.5 17.5t-5.5 13.5z" />
<glyph unicode="&#x150;" horiz-adv-x="442" d="M18 332q0 33 4.5 70t15 72.5t27 68t40 57t55 39t71.5 14.5q35 0 62 -19.5t47 -51t33 -71.5t21.5 -80.5t11.5 -78t3 -64.5q-4 -59 -17 -108.5t-35.5 -87t-55.5 -61.5t-80 -32q-45 0 -77 16t-55 42t-37 60t-21.5 71t-10 74.5t-2.5 69.5zM56 332q0 -24 1 -54t5.5 -60.5 t13.5 -60t24.5 -52t39 -36.5t56.5 -14q48 -3 79 12t50 46t29 75t16 100q0 22 -2 55t-7.5 69t-15 72.5t-25 66t-37 47.5t-51.5 18q-31 0 -56 -14.5t-44.5 -38t-34 -53.5t-23.5 -61.5t-13.5 -62t-4.5 -54.5zM240 908q-13 -17 -26 -31.5t-25 -28t-24.5 -27.5t-26.5 -31l-29 16 q35 46 54.5 73.5t29 41.5t12 16.5t5.5 -1.5t9 -12.5t21 -15.5zM321 891q-13 -18 -26 -31.5t-25 -27t-24.5 -28t-26.5 -30.5l-29 15q35 45 54.5 73t28.5 42t12 16.5t6 -1.5t9 -12.5t21 -15.5z" />
<glyph unicode="&#x151;" horiz-adv-x="371" d="M24 183q0 23 4 53.5t13 61.5t22.5 61t32.5 53.5t44 38t56 14.5q32 0 59.5 -22t47 -57t29.5 -78t8 -84q0 -60 -23 -107t-58.5 -76t-76 -39t-76 5.5t-59 58.5t-23.5 117zM61 179q3 -61 21 -94t43.5 -43.5t55.5 -0.5t56 35.5t44.5 64t20.5 86.5q2 36 -5.5 70t-21 60.5 t-33 42t-44.5 15.5q-24 0 -43 -12t-34.5 -32.5t-26.5 -46.5t-18.5 -52t-11 -50.5t-3.5 -42.5zM205 636q-13 -17 -26 -31.5t-25 -28t-24.5 -27.5t-26.5 -31l-29 16q35 46 54.5 73.5t29 41.5t12 16.5t5.5 -1.5t9 -12.5t21 -15.5zM286 619q-13 -18 -26 -31.5t-25 -27t-24.5 -28 t-26.5 -30.5l-29 15q35 45 54.5 73t28.5 42t12 16.5t6 -1.5t9 -12.5t21 -15.5z" />
<glyph unicode="&#x152;" horiz-adv-x="817" d="M18 332q0 33 4.5 70t15 72.5t27 68t40 57t55 39t71.5 14.5q35 0 62 -19.5t47 -50.5q3 -5 5 -9q12 12 27 22q27 17 59.5 27.5t69.5 16.5t73.5 9.5t70.5 4.5t60 1q2 0 9 -0.5t14.5 -1t14.5 -1t10 -0.5q4 -21 -5 -29.5t-22.5 -10t-28 1t-21.5 0.5q-10 -1 -31.5 -5.5 t-47.5 -10.5t-55.5 -12t-56 -12t-47.5 -10.5t-31 -7.5q-16 -5 -18 -14.5t-2 -21.5q0 -20 2 -46l5 -41v-3q9 -40 12 -78v-3l1 -4q4 -1 14 -1h15q24 0 46 4t44 8.5t45 8.5t47 4v-37q-10 0 -28.5 -2t-39.5 -5.5t-43.5 -8t-40.5 -9.5t-29 -10t-11 -10v-208q47 0 93.5 3t93.5 6.5 t94 6.5t94 3q0 -13 -8 -20.5t-19 -11.5t-22.5 -6t-18.5 -3q-3 -1 -24 -3t-52.5 -6t-69 -8l-75 -8t-70.5 -7.5t-54 -5.5q-3 -1 -9 -1q0 57 -2 115q-9 -22 -20 -41q-23 -37 -56 -61t-80 -32q-45 0 -77 16t-55 42t-37 60t-21.5 71t-10 74.5t-2.5 69.5zM56 332q0 -24 1 -54 t5.5 -60.5t13.5 -60t24.5 -52t39 -36.5t56.5 -14q48 -3 79 12t50 46t29 75t16 100v7q-7 99 -26 195q-10 33 -24 60q-15 30 -36.5 48t-51.5 18q-31 0 -56 -14.5t-44.5 -38t-34 -53.5t-23.5 -61.5t-13.5 -62t-4.5 -54.5z" />
<glyph unicode="&#x153;" horiz-adv-x="606" d="M24 183q0 23 4 53.5t13 61.5t22.5 61t32.5 53.5t44 38t56 14.5q32 0 59.5 -22t46.5 -58q14 -25 23 -54q11 20 24 39q22 31 51 52.5t60 21.5q16 0 33 -7t32.5 -18.5t27.5 -26t19.5 -30.5t7.5 -31t-9 -26l-210 -39q-4 -1 -7 -9.5t-5.5 -21.5t-4 -28.5t-2 -30t-1 -26 t-0.5 -17.5q0 -28 13.5 -45.5t34.5 -26.5t47.5 -12t52.5 -3t49.5 2t38.5 2q0 -4 -3 -9t-7.5 -9.5l-8 -8t-5.5 -4.5q-7 -2 -24 -5.5t-35.5 -6.5t-34.5 -5t-21 -2q-32 -6 -54.5 1t-39 24t-26.5 41q-6 16 -11 33q-21 -35 -48 -58q-36 -29 -76.5 -39t-76 5.5t-59 58.5t-23.5 117 zM301 235v20q0 22 -5 42q-7 34 -20.5 60.5t-33 42t-44.5 15.5q-24 0 -43 -12t-34.5 -32.5t-26.5 -46.5t-18.5 -52t-11 -50.5t-3.5 -42.5q3 -61 21 -94t43.5 -43.5t55.5 -0.5t56 35.5t44 63.5q12 24 17 52q0 22 3 43zM445 406q-9 0 -23 -9.5t-27 -24t-21 -31t-6 -28.5 q26 -3 54.5 1t51 12.5t37.5 20t15 23.5t-18.5 21.5t-62.5 14.5z" />
<glyph unicode="&#x154;" d="M425 -2q-4 18 -10 47.5t-15.5 64t-23 69.5t-32.5 63.5t-43.5 46.5t-57.5 18q-13 0 -34 -2t-41 -6.5t-35 -12.5t-15 -19v-254q-4 0 -12 2t-16 5.5t-14 7.5t-6 9v499q-12 -2 -21 -10.5t-14.5 -20.5t-8.5 -24t-4 -22q-4 0 -11 4.5t-13 10.5t-10.5 12.5t-4.5 11.5 q0 25 15 48.5t39 43t53.5 35t59.5 26.5t57 17t46 6q28 0 53 -2t43.5 -11.5t29.5 -29.5t11 -54q0 -31 -11 -60.5t-28 -56.5t-38 -51.5t-42 -45.5q47 -29 76 -58.5t47 -59t27.5 -59t15 -60.5t11 -63t15.5 -65h-38zM257 634q-7 0 -19.5 -0.5t-28.5 -2.5t-31.5 -6t-29 -11 t-22 -16.5t-8.5 -23.5v-254q24 0 50 12t51.5 32.5t49.5 46t42 52.5t29 54t11 48q0 23 -7.5 36.5t-20.5 21t-30 9.5t-36 2zM257 809q-13 -18 -26 -31.5t-25.5 -27t-24.5 -28t-26 -30.5l-29 15q35 45 54 73l28.5 42t12.5 16.5t5.5 -1.5t8.5 -12.5t22 -15.5z" />
<glyph unicode="&#x155;" horiz-adv-x="306" d="M13 390q12 5 21 2t15 -11t9 -18.5t5 -20.5q13 22 37.5 35.5t52.5 18t56 2t47.5 -12t27.5 -26t-4 -38.5q-26 15 -54.5 24t-55.5 6t-50 -20.5t-38 -55.5t-18.5 -100.5t8.5 -155.5h-38l-1.5 16.5t-3 43.5t-4 60t-4.5 67t-3.5 65.5t-3.5 54.5q0 3 -0.5 12t-0.5 19.5v19.5v13z M213 619q-13 -18 -26 -31.5t-25.5 -27t-24.5 -28t-26 -30.5l-29 15q35 45 54 73l28.5 42t12.5 16.5t5.5 -1.5t8.5 -12.5t22 -15.5z" />
<glyph unicode="&#x156;" d="M425 -2q-4 18 -10 47.5t-15.5 64t-23 69.5t-32.5 63.5t-43.5 46.5t-57.5 18q-13 0 -34 -2t-41 -6.5t-35 -12.5t-15 -19v-254q-4 0 -12 2t-16 5.5t-14 7.5t-6 9v499q-12 -2 -21 -10.5t-14.5 -20.5t-8.5 -24t-4 -22q-4 0 -11 4.5t-13 10.5t-10.5 12.5t-4.5 11.5 q0 25 15 48.5t39 43t53.5 35t59.5 26.5t57 17t46 6q28 0 53 -2t43.5 -11.5t29.5 -29.5t11 -54q0 -31 -11 -60.5t-28 -56.5t-38 -51.5t-42 -45.5q47 -29 76 -58.5t47 -59t27.5 -59t15 -60.5t11 -63t15.5 -65h-38zM257 634q-7 0 -19.5 -0.5t-28.5 -2.5t-31.5 -6t-29 -11 t-22 -16.5t-8.5 -23.5v-254q24 0 50 12t51.5 32.5t49.5 46t42 52.5t29 54t11 48q0 23 -7.5 36.5t-20.5 21t-30 9.5t-36 2zM257 -98q0 3 -5 9.5t-11 12.5t-12.5 11t-9.5 6q6 12 11.5 16t16.5 4q28 0 40 -12t12 -37q0 -31 -13 -50t-48 -36q-1 2 -1 9v10v10.5t1 8.5 q0 2 3.5 7.5t7 12t6 12t2.5 6.5z" />
<glyph unicode="&#x157;" horiz-adv-x="306" d="M13 390q12 5 21 2t15 -11t9 -18.5t5 -20.5q13 22 37.5 35.5t52.5 18t56 2t47.5 -12t27.5 -26t-4 -38.5q-26 15 -54.5 24t-55.5 6t-50 -20.5t-38 -55.5t-18.5 -100.5t8.5 -155.5h-38l-1.5 16.5t-3 43.5t-4 60t-4.5 67t-3.5 65.5t-3.5 54.5q0 3 -0.5 12t-0.5 19.5v19.5v13z M151 -98q0 3 -5 9.5t-11 12.5t-12.5 11t-9.5 6q6 12 11.5 16t16.5 4q28 0 40 -12t12 -37q0 -31 -13 -50t-48 -36q-1 2 -1 9v10v10.5t1 8.5q0 2 3.5 7.5t7 12t6 12t2.5 6.5z" />
<glyph unicode="&#x158;" d="M425 -2q-4 18 -10 47.5t-15.5 64t-23 69.5t-32.5 63.5t-43.5 46.5t-57.5 18q-13 0 -34 -2t-41 -6.5t-35 -12.5t-15 -19v-254q-4 0 -12 2t-16 5.5t-14 7.5t-6 9v499q-12 -2 -21 -10.5t-14.5 -20.5t-8.5 -24t-4 -22q-4 0 -11 4.5t-13 10.5t-10.5 12.5t-4.5 11.5 q0 25 15 48.5t39 43t53.5 35t59.5 26.5t57 17t46 6q28 0 53 -2t43.5 -11.5t29.5 -29.5t11 -54q0 -31 -11 -60.5t-28 -56.5t-38 -51.5t-42 -45.5q47 -29 76 -58.5t47 -59t27.5 -59t15 -60.5t11 -63t15.5 -65h-38zM257 634q-7 0 -19.5 -0.5t-28.5 -2.5t-31.5 -6t-29 -11 t-22 -16.5t-8.5 -23.5v-254q24 0 50 12t51.5 32.5t49.5 46t42 52.5t29 54t11 48q0 23 -7.5 36.5t-20.5 21t-30 9.5t-36 2zM270 755q17 15 25.5 24t15.5 16t14.5 15t22.5 23q8 -3 15.5 -4t13 -2t9 -2.5t3.5 -6.5q-16 -15 -29.5 -30.5t-26 -30t-27 -28t-34.5 -25.5l-143 117 l31 9q15 -10 28 -19t26.5 -17.5t27 -17.5t28.5 -21z" />
<glyph unicode="&#x159;" horiz-adv-x="306" d="M13 390q12 5 21 2t15 -11t9 -18.5t5 -20.5q13 22 37.5 35.5t52.5 18t56 2t47.5 -12t27.5 -26t-4 -38.5q-26 15 -54.5 24t-55.5 6t-50 -20.5t-38 -55.5t-18.5 -100.5t8.5 -155.5h-38l-1.5 16.5t-3 43.5t-4 60t-4.5 67t-3.5 65.5t-3.5 54.5q0 3 -0.5 12t-0.5 19.5v19.5v13z M163 601q17 15 25.5 24t15.5 16t14.5 15t22.5 23q8 -3 15.5 -4t13 -2t9 -2.5t3.5 -6.5q-16 -15 -29.5 -30.5t-26 -30t-27 -28t-34.5 -25.5l-143 117l31 9q15 -10 28 -19t26.5 -17.5t27 -17.5t28.5 -21z" />
<glyph unicode="&#x15a;" horiz-adv-x="490" d="M53 76q5 12 15.5 15t22.5 -15q0 -2 9.5 -5.5t24 -8t34 -9t38.5 -8t37 -6t31 -2.5q34 0 62.5 14.5t49 37.5t31.5 52.5t11 60.5q0 9 -3 31.5t-10 45t-18.5 40.5t-27.5 18q-104 -12 -170.5 -9.5t-105.5 15.5t-54.5 35.5t-16.5 51.5q0 36 18 69.5t46 59.5t62.5 41.5 t68.5 15.5q28 0 58.5 -7t56.5 -21.5t42.5 -38t16.5 -56.5q-24 0 -44 13.5t-40 28.5t-42 28.5t-51 13.5q-24 0 -48.5 -12t-44 -31t-32 -42.5t-12.5 -48.5q0 -10 0.5 -21.5t4.5 -22t12.5 -17.5t24.5 -7h269q17 0 29.5 -10.5t21 -26.5t14 -36t9 -39t4.5 -35.5t1 -25.5 q0 -39 -11 -73.5t-33 -62t-55 -45t-76 -21.5q-21 -2 -54.5 1t-67.5 11.5t-64 24t-44 39.5zM306 773q-13 -18 -26 -31.5t-25.5 -27t-24.5 -28t-26 -30.5l-29 15q35 45 54 73l28.5 42t12.5 16.5t5.5 -1.5t8.5 -12.5t22 -15.5z" />
<glyph unicode="&#x15b;" horiz-adv-x="394" d="M72 81q18 0 33.5 -7t30.5 -15.5t30.5 -15t33.5 -6.5q21 0 43.5 7.5t41.5 21t31 33t12 42.5q1 7 0.5 17t-6.5 20.5t-20 20t-40.5 14.5t-66.5 5.5t-99 -7.5q-15 0 -29 8.5t-25 21t-18 27t-7 27.5q0 39 16.5 63.5t42.5 39t58 20.5t65 6q15 0 34.5 -1.5t36 -8t28 -20.5 t11.5 -39q-2 -17 -5.5 -20.5t-10 2t-15.5 15.5t-21.5 19.5t-30 14.5t-39.5 0q-23 0 -46 -4.5t-41.5 -15.5t-30 -30t-11.5 -48q0 -15 13.5 -20.5t36 -5.5t51 1.5t58.5 1.5t58 -4.5t49.5 -18t33.5 -38.5t9 -65q0 -29 -16.5 -55t-42 -45.5t-56.5 -30.5t-60 -8q-12 1 -32.5 6.5 t-40 15.5t-33.5 24.5t-14 34.5zM257 619q-13 -18 -26 -31.5t-25.5 -27t-24.5 -28t-26 -30.5l-29 15q35 45 54 73l28.5 42t12.5 16.5t5.5 -1.5t8.5 -12.5t22 -15.5z" />
<glyph unicode="&#x15c;" horiz-adv-x="490" d="M53 76q5 12 15.5 15t22.5 -15q0 -2 9.5 -5.5t24 -8t34 -9t38.5 -8t37 -6t31 -2.5q34 0 62.5 14.5t49 37.5t31.5 52.5t11 60.5q0 9 -3 31.5t-10 45t-18.5 40.5t-27.5 18q-104 -12 -170.5 -9.5t-105.5 15.5t-54.5 35.5t-16.5 51.5q0 36 18 69.5t46 59.5t62.5 41.5 t68.5 15.5q28 0 58.5 -7t56.5 -21.5t42.5 -38t16.5 -56.5q-24 0 -44 13.5t-40 28.5t-42 28.5t-51 13.5q-24 0 -48.5 -12t-44 -31t-32 -42.5t-12.5 -48.5q0 -10 0.5 -21.5t4.5 -22t12.5 -17.5t24.5 -7h269q17 0 29.5 -10.5t21 -26.5t14 -36t9 -39t4.5 -35.5t1 -25.5 q0 -39 -11 -73.5t-33 -62t-55 -45t-76 -21.5q-21 -2 -54.5 1t-67.5 11.5t-64 24t-44 39.5zM248 807q-13 -17 -26 -31t-25 -27.5t-24.5 -27.5t-26.5 -31l-29 15l134 182q18 -18 31.5 -39t25.5 -44t24 -47t27 -48q0 -7 -3 -9.5t-8.5 -4t-12 -3t-14.5 -5.5q-13 22 -20.5 35 t-13.5 24.5t-14.5 24.5t-24.5 36z" />
<glyph unicode="&#x15d;" horiz-adv-x="394" d="M72 81q18 0 33.5 -7t30.5 -15.5t30.5 -15t33.5 -6.5q21 0 43.5 7.5t41.5 21t31 33t12 42.5q1 7 0.5 17t-6.5 20.5t-20 20t-40.5 14.5t-66.5 5.5t-99 -7.5q-15 0 -29 8.5t-25 21t-18 27t-7 27.5q0 39 16.5 63.5t42.5 39t58 20.5t65 6q15 0 34.5 -1.5t36 -8t28 -20.5 t11.5 -39q-2 -17 -5.5 -20.5t-10 2t-15.5 15.5t-21.5 19.5t-30 14.5t-39.5 0q-23 0 -46 -4.5t-41.5 -15.5t-30 -30t-11.5 -48q0 -15 13.5 -20.5t36 -5.5t51 1.5t58.5 1.5t58 -4.5t49.5 -18t33.5 -38.5t9 -65q0 -29 -16.5 -55t-42 -45.5t-56.5 -30.5t-60 -8q-12 1 -32.5 6.5 t-40 15.5t-33.5 24.5t-14 34.5zM206 676q-13 -17 -26 -31t-25 -27.5t-24.5 -27.5t-26.5 -31l-29 15l134 182q18 -18 31.5 -39t25.5 -44t24 -47t27 -48q0 -7 -3 -9.5t-8.5 -4t-12 -3t-14.5 -5.5q-13 22 -20.5 35t-13.5 24.5t-14.5 24.5t-24.5 36z" />
<glyph unicode="&#x15e;" horiz-adv-x="490" d="M179 -158q12 0 22.5 -5t21 -12t21 -12t22.5 -5q14 -2 31 5.5t30.5 20t19.5 27t-2.5 24.5t-35.5 14t-80 -3q-9 0 -19 6t-17.5 16.5t-12 22t-4.5 21.5q-5 28 2 46l-18 4q-33 9 -63 24.5t-44 39.5q5 12 15.5 15t22.5 -15q0 -2 9.5 -5.5t24 -8t34 -9t38.5 -8t37 -6t31 -2.5 q34 0 62.5 14.5t49 37.5t31.5 52.5t11 60.5q0 9 -3 31.5t-10 45t-18.5 40.5t-27.5 18q-104 -12 -170.5 -9.5t-105.5 15.5t-54.5 35.5t-16.5 51.5q0 36 18 69.5t46 59.5t62.5 41.5t68.5 15.5q28 0 58.5 -7t56.5 -21.5t42.5 -38t16.5 -56.5q-24 0 -44 13.5t-40 28.5t-42 28.5 t-51 13.5q-24 0 -48.5 -12t-44 -31t-32 -42.5t-12.5 -48.5q0 -10 0.5 -21.5t4.5 -22t12.5 -17.5t24.5 -7h269q17 0 29.5 -10.5t21 -26.5t14 -36t9 -39t4.5 -35.5t1 -25.5q0 -39 -11 -73.5t-33 -62t-55 -45t-76 -21.5q-21 -2 -55 1l-15 1q-1 -16 -10 -46q0 -15 12.5 -18.5 t31 -2.5t40.5 2.5t40.5 -4t31 -22t12.5 -51.5q0 -22 -10 -38.5t-26 -27t-35.5 -14.5t-38.5 -1q-8 0 -22 4.5t-27 12t-23 19.5t-10 27z" />
<glyph unicode="&#x15f;" horiz-adv-x="394" d="M144 -158q12 0 22.5 -5t21 -12t21 -12t22.5 -5q13 -2 30.5 5.5t31 20t19.5 27t-2.5 24.5t-35.5 14t-80 -3q-10 0 -19.5 6t-17 16.5t-12 22t-4.5 21.5q-5 30 3 48v1q-12 5 -24 11q-20 10 -34 24.5t-14 34.5q18 0 33.5 -7t30.5 -15.5t30.5 -15t33.5 -6.5q21 0 43.5 7.5 t41.5 21t31 33t12 42.5q1 7 0.5 17t-6.5 20.5t-20 20t-40.5 14.5t-66.5 5.5t-99 -7.5q-15 0 -29 8.5t-25 21t-18 27t-7 27.5q0 39 16.5 63.5t42.5 39t58 20.5t65 6q15 0 34.5 -1.5t36 -8t28 -20.5t11.5 -39q-2 -17 -5.5 -20.5t-10 2t-15.5 15.5t-21.5 19.5t-30 14.5t-39.5 0 q-23 0 -46 -4.5t-41.5 -15.5t-30 -30t-11.5 -48q0 -15 13.5 -20.5t36 -5.5t51 1.5t58.5 1.5t58 -4.5t49.5 -18t33.5 -38.5t9 -65q0 -29 -16.5 -55t-42 -45.5t-56.5 -30.5t-60 -8q-6 0 -14 1q-1 -16 -10 -45q0 -15 12.5 -18.5t31 -2.5t40.5 2.5t40.5 -4t31 -22t12.5 -51.5 q0 -22 -10 -38.5t-26 -27t-35.5 -14.5t-38.5 -1q-9 0 -22.5 4.5t-27 12t-23 19.5t-9.5 27z" />
<glyph unicode="&#x160;" horiz-adv-x="490" d="M53 76q5 12 15.5 15t22.5 -15q0 -2 9.5 -5.5t24 -8t34 -9t38.5 -8t37 -6t31 -2.5q34 0 62.5 14.5t49 37.5t31.5 52.5t11 60.5q0 9 -3 31.5t-10 45t-18.5 40.5t-27.5 18q-104 -12 -170.5 -9.5t-105.5 15.5t-54.5 35.5t-16.5 51.5q0 36 18 69.5t46 59.5t62.5 41.5 t68.5 15.5q28 0 58.5 -7t56.5 -21.5t42.5 -38t16.5 -56.5q-24 0 -44 13.5t-40 28.5t-42 28.5t-51 13.5q-24 0 -48.5 -12t-44 -31t-32 -42.5t-12.5 -48.5q0 -10 0.5 -21.5t4.5 -22t12.5 -17.5t24.5 -7h269q17 0 29.5 -10.5t21 -26.5t14 -36t9 -39t4.5 -35.5t1 -25.5 q0 -39 -11 -73.5t-33 -62t-55 -45t-76 -21.5q-21 -2 -54.5 1t-67.5 11.5t-64 24t-44 39.5zM256 755q17 15 25.5 24t15.5 16t14.5 15t22.5 23q8 -3 15.5 -4t13 -2t9 -2.5t3.5 -6.5q-16 -15 -29.5 -30.5t-26 -30t-27 -28t-34.5 -25.5l-143 117l31 9q15 -10 28 -19t26.5 -17.5 t27 -17.5t28.5 -21z" />
<glyph unicode="&#x161;" horiz-adv-x="394" d="M72 81q18 0 33.5 -7t30.5 -15.5t30.5 -15t33.5 -6.5q21 0 43.5 7.5t41.5 21t31 33t12 42.5q1 7 0.5 17t-6.5 20.5t-20 20t-40.5 14.5t-66.5 5.5t-99 -7.5q-15 0 -29 8.5t-25 21t-18 27t-7 27.5q0 39 16.5 63.5t42.5 39t58 20.5t65 6q15 0 34.5 -1.5t36 -8t28 -20.5 t11.5 -39q-2 -17 -5.5 -20.5t-10 2t-15.5 15.5t-21.5 19.5t-30 14.5t-39.5 0q-23 0 -46 -4.5t-41.5 -15.5t-30 -30t-11.5 -48q0 -15 13.5 -20.5t36 -5.5t51 1.5t58.5 1.5t58 -4.5t49.5 -18t33.5 -38.5t9 -65q0 -29 -16.5 -55t-42 -45.5t-56.5 -30.5t-60 -8q-12 1 -32.5 6.5 t-40 15.5t-33.5 24.5t-14 34.5zM190 529q17 15 25.5 24t15.5 16t14.5 15t22.5 23q8 -3 15.5 -4t13 -2t9 -2.5t3.5 -6.5q-16 -15 -29.5 -30.5t-26 -30t-27 -28t-34.5 -25.5l-143 117l31 9q15 -10 28 -19t26.5 -17.5t27 -17.5t28.5 -21z" />
<glyph unicode="&#x162;" horiz-adv-x="384" d="M3 543l16 52q1 1 15.5 2.5t38.5 4t54 5.5t61.5 6t62 6t56.5 6h9h20h21h13q24 0 33 -9t9 -39l-182 -21q-2 -63 2 -132t10 -139.5t11.5 -139.5t5.5 -132q0 -9 -5.5 -12.5t-13 -4.5t-15.5 0.5t-14 3.5q-3 13 -6 45t-6 75t-6 93l-6 100t-6 95.5t-5 80t-3.5 53.5t-2.5 14z M238 -116q0 3 -5 9.5t-11 12.5t-12.5 11t-9.5 6q6 12 11.5 16t16.5 4q28 0 40 -12t12 -37q0 -31 -13 -50t-48 -36q-1 2 -1 9v10v10.5t1 8.5q0 2 3.5 7.5t7 12t6 12t2.5 6.5z" />
<glyph unicode="&#x163;" horiz-adv-x="380" d="M142 363q-9 3 -24.5 2.5t-33 -2t-33.5 -3.5t-27 -2q-5 0 -6.5 14.5t-4.5 39.5l141 10q3 35 4 50t0.5 25.5t-1 24t-0.5 42.5q26 4 39.5 2.5t18.5 -7.5t4.5 -17.5t-3 -28.5t-4 -41t1.5 -54l120 4v-49q-8 0 -25 -1t-36.5 -2t-36 -2t-24.5 -4q-8 -36 -17 -77t-12 -81t2 -74.5 t25 -57t57 -31t98 5.5q-2 -15 -11.5 -24.5t-22 -15t-26.5 -8t-25 -2.5q-51 0 -81 18.5t-45 48.5t-19 68.5t-2.5 78.5t5.5 79t4 71zM188 -98q0 3 -5 9.5t-11 12.5t-12.5 11t-9.5 6q6 12 11.5 16t16.5 4q28 0 40 -12t12 -37q0 -31 -13 -50t-48 -36q-1 2 -1 9v10v10.5t1 8.5 q0 2 3.5 7.5t7 12t6 12t2.5 6.5z" />
<glyph unicode="&#x164;" horiz-adv-x="384" d="M3 543l16 52q1 1 15.5 2.5t38.5 4t54 5.5t61.5 6t62 6t56.5 6h9h20h21h13q24 0 33 -9t9 -39l-182 -21q-2 -63 2 -132t10 -139.5t11.5 -139.5t5.5 -132q0 -9 -5.5 -12.5t-13 -4.5t-15.5 0.5t-14 3.5q-3 13 -6 45t-6 75t-6 93l-6 100t-6 95.5t-5 80t-3.5 53.5t-2.5 14z M202 755q17 15 25.5 24t15.5 16t14.5 15t22.5 23q8 -3 15.5 -4t13 -2t9 -2.5t3.5 -6.5q-16 -15 -29.5 -30.5t-26 -30t-27 -28t-34.5 -25.5l-143 117l31 9q15 -10 28 -19t26.5 -17.5t27 -17.5t28.5 -21z" />
<glyph unicode="&#x165;" horiz-adv-x="375" d="M142 363q-9 3 -24.5 2.5t-33 -2t-33.5 -3.5t-27 -2q-5 0 -6.5 14.5t-4.5 39.5l141 10q3 35 4 50t0.5 25.5t-1 24t-0.5 42.5q26 4 39.5 2.5t18.5 -7.5t4.5 -17.5t-3 -28.5t-4 -41t1.5 -54l120 4v-49q-8 0 -25 -1t-36.5 -2t-36 -2t-24.5 -4q-8 -36 -17 -77t-12 -81t2 -74.5 t25 -57t57 -31t98 5.5q-2 -15 -11.5 -24.5t-22 -15t-26.5 -8t-25 -2.5q-51 0 -81 18.5t-45 48.5t-19 68.5t-2.5 78.5t5.5 79t4 71zM280 688q0 5 8 12t12 7q25 -16 32 -42.5t7 -54.5q0 -6 0.5 -14.5t-0.5 -17t-5.5 -15.5t-14.5 -10q-8 3 -15 22t-12.5 42t-8.5 44t-3 27z" />
<glyph unicode="&#x168;" d="M398 250q-40 -101 -79 -156t-76 -73.5t-70 -4.5t-60.5 51.5t-47 94.5t-31 125t-12 142.5t11.5 146.5l39 -4q-11 -128 -2.5 -222.5t27.5 -157.5t44 -96t48 -38q34 0 60.5 18t47 47t35 66t23.5 75t13 73.5t4 61.5q0 34 -2 60.5t-6.5 52.5t-10 53.5t-12.5 63.5l49 36 q23 -145 39.5 -248.5t28.5 -173t19 -111t11.5 -65t6 -33t1.5 -15.5h-41zM209 822q-11 8 -17.5 2.5t-11.5 -17t-9 -25t-8 -21.5t-9 -6.5t-11 19.5q0 47 15 66t49 19q19 -9 31.5 -21.5l23 -23t19 -16.5t18.5 -2t23 20.5t31 51.5q6 0 13.5 -5t7.5 -15q-16 -41 -31.5 -61.5 t-29.5 -26t-28 0.5t-27 17t-25 23t-24 21z" />
<glyph unicode="&#x169;" horiz-adv-x="458" d="M19 388q0 5 6.5 10t16 8t18.5 4t13 -3q6 -124 23.5 -197.5t40 -107.5t48.5 -34.5t51 22t46.5 61.5t35 84t16.5 90t-8 80l60 7q1 -15 5.5 -49.5t10 -78t12.5 -90.5t12 -87.5t9 -69t4 -35.5h-43l-47 173q-14 -35 -34 -67t-43.5 -56t-49.5 -37.5t-51.5 -11t-49.5 23.5 t-44.5 66.5t-35.5 117.5t-22 177zM179 550q-11 8 -17.5 2.5t-11.5 -17t-9 -25t-8 -21.5t-9 -6.5t-11 19.5q0 47 15 66t49 19q19 -9 31.5 -21.5l23 -23t19 -16.5t18.5 -2t23 20.5t31 51.5q6 0 13.5 -5t7.5 -15q-16 -41 -31.5 -61.5t-29.5 -26t-28 0.5t-27 17t-25 23t-24 21z " />
<glyph unicode="&#x16a;" d="M398 250q-40 -101 -79 -156t-76 -73.5t-70 -4.5t-60.5 51.5t-47 94.5t-31 125t-12 142.5t11.5 146.5l39 -4q-11 -128 -2.5 -222.5t27.5 -157.5t44 -96t48 -38q34 0 60.5 18t47 47t35 66t23.5 75t13 73.5t4 61.5q0 34 -2 60.5t-6.5 52.5t-10 53.5t-12.5 63.5l49 36 q23 -145 39.5 -248.5t28.5 -173t19 -111t11.5 -65t6 -33t1.5 -15.5h-41zM84 786l360 3v-38q-10 2 -36.5 1.5t-61.5 -1.5t-75 -3t-78 -1.5t-70 2.5t-51 9z" />
<glyph unicode="&#x16b;" horiz-adv-x="458" d="M19 388q0 5 6.5 10t16 8t18.5 4t13 -3q6 -124 23.5 -197.5t40 -107.5t48.5 -34.5t51 22t46.5 61.5t35 84t16.5 90t-8 80l60 7q1 -15 5.5 -49.5t10 -78t12.5 -90.5t12 -87.5t9 -69t4 -35.5h-43l-47 173q-14 -35 -34 -67t-43.5 -56t-49.5 -37.5t-51.5 -11t-49.5 23.5 t-44.5 66.5t-35.5 117.5t-22 177zM54 514l360 3v-38q-10 2 -36.5 1.5t-61.5 -1.5t-75 -3t-78 -1.5t-70 2.5t-51 9z" />
<glyph unicode="&#x16c;" d="M398 250q-40 -101 -79 -156t-76 -73.5t-70 -4.5t-60.5 51.5t-47 94.5t-31 125t-12 142.5t11.5 146.5l39 -4q-11 -128 -2.5 -222.5t27.5 -157.5t44 -96t48 -38q34 0 60.5 18t47 47t35 66t23.5 75t13 73.5t4 61.5q0 34 -2 60.5t-6.5 52.5t-10 53.5t-12.5 63.5l49 36 q23 -145 39.5 -248.5t28.5 -173t19 -111t11.5 -65t6 -33t1.5 -15.5h-41zM225 755q6 -8 5.5 -19t-0.5 -22q0 -8 -3 -18.5t-9.5 -20t-16.5 -15.5t-25 -6q-17 0 -28.5 6t-18.5 15t-10 20.5t-3 21.5q0 6 1 14.5t3 16.5h20q-3 -5 -4.5 -12.5t1.5 -18.5q9 -26 19.5 -33.5 t19.5 -3.5t15.5 15.5t10.5 24.5q-2 9 -2.5 17.5t-5.5 13.5z" />
<glyph unicode="&#x16d;" horiz-adv-x="458" d="M19 388q0 5 6.5 10t16 8t18.5 4t13 -3q6 -124 23.5 -197.5t40 -107.5t48.5 -34.5t51 22t46.5 61.5t35 84t16.5 90t-8 80l60 7q1 -15 5.5 -49.5t10 -78t12.5 -90.5t12 -87.5t9 -69t4 -35.5h-43l-47 173q-14 -35 -34 -67t-43.5 -56t-49.5 -37.5t-51.5 -11t-49.5 23.5 t-44.5 66.5t-35.5 117.5t-22 177zM237 594q6 -8 5.5 -19t-0.5 -22q0 -8 -3 -18.5t-9.5 -20t-16.5 -15.5t-25 -6q-17 0 -28.5 6t-18.5 15t-10 20.5t-3 21.5q0 6 1 14.5t3 16.5h20q-3 -5 -4.5 -12.5t1.5 -18.5q9 -26 19.5 -33.5t19.5 -3.5t15.5 15.5t10.5 24.5q-2 9 -2.5 17.5 t-5.5 13.5z" />
<glyph unicode="&#x16e;" d="M398 250q-40 -101 -79 -156t-76 -73.5t-70 -4.5t-60.5 51.5t-47 94.5t-31 125t-12 142.5t11.5 146.5l39 -4q-11 -128 -2.5 -222.5t27.5 -157.5t44 -96t48 -38q34 0 60.5 18t47 47t35 66t23.5 75t13 73.5t4 61.5q0 34 -2 60.5t-6.5 52.5t-10 53.5t-12.5 63.5l49 36 q23 -145 39.5 -248.5t28.5 -173t19 -111t11.5 -65t6 -33t1.5 -15.5h-41zM172 715q0 8 1.5 19t6 21.5t12 18t21.5 7.5q37 0 55 -21t18 -48q0 -8 -3 -18.5t-9.5 -20t-16.5 -15.5t-25 -6q-17 0 -28.5 6t-18.5 15t-10 20.5t-3 21.5zM193 715q9 -26 19.5 -33.5t19.5 -3.5 t15.5 15.5t10.5 24.5q-3 21 -15.5 31t-25 9t-21 -11.5t-3.5 -31.5z" />
<glyph unicode="&#x16f;" horiz-adv-x="458" d="M19 388q0 5 6.5 10t16 8t18.5 4t13 -3q6 -124 23.5 -197.5t40 -107.5t48.5 -34.5t51 22t46.5 61.5t35 84t16.5 90t-8 80l60 7q1 -15 5.5 -49.5t10 -78t12.5 -90.5t12 -87.5t9 -69t4 -35.5h-43l-47 173q-14 -35 -34 -67t-43.5 -56t-49.5 -37.5t-51.5 -11t-49.5 23.5 t-44.5 66.5t-35.5 117.5t-22 177zM157 547q0 8 1.5 19t6 21.5t12 18t21.5 7.5q37 0 55 -21t18 -48q0 -8 -3 -18.5t-9.5 -20t-16.5 -15.5t-25 -6q-17 0 -28.5 6t-18.5 15t-10 20.5t-3 21.5zM178 547q9 -26 19.5 -33.5t19.5 -3.5t15.5 15.5t10.5 24.5q-3 21 -15.5 31t-25 9 t-21 -11.5t-3.5 -31.5z" />
<glyph unicode="&#x170;" d="M398 250q-40 -101 -79 -156t-76 -73.5t-70 -4.5t-60.5 51.5t-47 94.5t-31 125t-12 142.5t11.5 146.5l39 -4q-11 -128 -2.5 -222.5t27.5 -157.5t44 -96t48 -38q34 0 60.5 18t47 47t35 66t23.5 75t13 73.5t4 61.5q0 34 -2 60.5t-6.5 52.5t-10 53.5t-12.5 63.5l49 36 q23 -145 39.5 -248.5t28.5 -173t19 -111t11.5 -65t6 -33t1.5 -15.5h-41zM278 908q-13 -17 -26 -31.5t-25 -28t-24.5 -27.5t-26.5 -31l-29 16q35 46 54.5 73.5t29 41.5t12 16.5t5.5 -1.5t9 -12.5t21 -15.5zM359 891q-13 -18 -26 -31.5t-25 -27t-24.5 -28t-26.5 -30.5l-29 15 q35 45 54.5 73t28.5 42t12 16.5t6 -1.5t9 -12.5t21 -15.5z" />
<glyph unicode="&#x171;" horiz-adv-x="458" d="M19 388q0 5 6.5 10t16 8t18.5 4t13 -3q6 -124 23.5 -197.5t40 -107.5t48.5 -34.5t51 22t46.5 61.5t35 84t16.5 90t-8 80l60 7q1 -15 5.5 -49.5t10 -78t12.5 -90.5t12 -87.5t9 -69t4 -35.5h-43l-47 173q-14 -35 -34 -67t-43.5 -56t-49.5 -37.5t-51.5 -11t-49.5 23.5 t-44.5 66.5t-35.5 117.5t-22 177zM248 636q-13 -17 -26 -31.5t-25 -28t-24.5 -27.5t-26.5 -31l-29 16q35 46 54.5 73.5t29 41.5t12 16.5t5.5 -1.5t9 -12.5t21 -15.5zM329 619q-13 -18 -26 -31.5t-25 -27t-24.5 -28t-26.5 -30.5l-29 15q35 45 54.5 73t28.5 42t12 16.5t6 -1.5 t9 -12.5t21 -15.5z" />
<glyph unicode="&#x172;" d="M518 -104q-5 -1 -22.5 -6.5t-40 -11.5t-48 -8.5t-46.5 3t-34.5 21.5t-13.5 48t12 54t32 37t46 24q20 6 41 10l-46 183q-40 -101 -79 -156t-76 -73.5t-70 -4.5t-60.5 51.5t-47 94.5t-31 125t-12 142.5t11.5 146.5l39 -4q-11 -128 -2.5 -222.5t27.5 -157.5t44 -96t48 -38 q34 0 60.5 18t47 47t35 66t23.5 75t13 73.5t4 61.5q0 34 -2 60.5t-6.5 52.5t-10 53.5t-12.5 63.5l49 36q23 -145 39.5 -248.5t28.5 -173t19 -111t11.5 -65t6 -33t1.5 -15.5h-41l-2 8l-20 -2q-22 -4 -40 -14.5t-29.5 -28.5t-11.5 -47q0 -21 14 -27.5t36.5 -3t51.5 14t60 21.5 z" />
<glyph unicode="&#x173;" horiz-adv-x="458" d="M478 -134q-6 -1 -23 -6.5t-39.5 -11.5t-48 -8.5t-46.5 3t-35 21.5t-14 48t12 54t32.5 37t46.5 24q12 4 24 7l-38 141q-14 -35 -34 -67t-43.5 -56t-49.5 -37.5t-51.5 -11t-49.5 23.5t-44.5 66.5t-35.5 117.5t-22 177q0 5 6.5 10t16 8t18.5 4t13 -3q6 -124 23.5 -197.5 t40 -107.5t48.5 -34.5t51 22t46.5 61.5t35 84t16.5 90t-8 80l60 7q1 -15 5.5 -49.5t10 -78t12.5 -90.5t12 -87.5t9 -69t4 -35.5v-4q-22 0 -45 -3.5t-41 -14t-29 -28.5t-11 -47q0 -21 13.5 -27.5t36 -3t52 14t60.5 21.5z" />
<glyph unicode="&#x174;" horiz-adv-x="614" d="M293 360q-3 -11 -9.5 -35t-15 -54t-18 -63t-18.5 -63t-16 -53.5t-10 -33.5q-2 -10 -6 -21.5t-9 -17.5t-11 -3t-12 22l-154 692q3 0 10 1.5t10 1.5q20 0 26.5 -8.5t11.5 -33.5l115 -519l77 250q4 12 11.5 16t17.5 4q8 -8 23 -29.5t32.5 -50t36.5 -61t36.5 -61.5 t31.5 -52.5t22 -33.5q3 -5 10.5 -13.5t16.5 -17.5t18 -17t13 -10q-1 33 -3 78.5t-4 98.5t-2.5 110.5t2 114t8.5 109t16 96.5q2 7 5.5 10.5t8 4.5t12 0.5t16.5 -0.5q0 -11 -1 -26.5t-3 -44t-4 -76.5t-4.5 -124t-4.5 -185.5t-4 -261.5q-43 34 -80 76t-70 89.5t-64.5 97 t-63.5 97.5zM317 948q-13 -17 -26 -31t-25 -27.5t-24.5 -27.5t-26.5 -31l-29 15l134 182q18 -18 31.5 -39t25.5 -44t24 -47t27 -48q0 -7 -3 -9.5t-8.5 -4t-12 -3t-14.5 -5.5q-13 22 -20.5 35t-13.5 24.5t-14.5 24.5t-24.5 36z" />
<glyph unicode="&#x175;" horiz-adv-x="567" d="M209 13l-195 447l26 27l166 -372l76 245l193 -264q9 49 11.5 98.5t2 99t-1 100.5t2.5 102l43 -16v-127v-87.5t-0.5 -57.5t-1 -38t-2.5 -29.5t-5 -30t-7 -40.5t-10 -63q-31 24 -60 60t-54.5 72t-48.5 66.5t-42 44.5zM293 676q-13 -17 -26 -31t-25 -27.5t-24.5 -27.5 t-26.5 -31l-29 15l134 182q18 -18 31.5 -39t25.5 -44t24 -47t27 -48q0 -7 -3 -9.5t-8.5 -4t-12 -3t-14.5 -5.5q-13 22 -20.5 35t-13.5 24.5t-14.5 24.5t-24.5 36z" />
<glyph unicode="&#x176;" horiz-adv-x="454" d="M292 326q-15 22 -40.5 54t-54.5 69.5t-60 77.5t-57.5 77.5t-46.5 70t-29 55.5l20 18q37 -40 64.5 -73.5t49.5 -63t40 -56.5t37.5 -54.5t42.5 -56t54 -60.5q6 28 11.5 62.5t11.5 71.5t13 75.5t16 74t19.5 66.5t24.5 53q1 1 4.5 1h5.5q3 0 8.5 -1t10.5 -3.5t8 -6.5t1 -9 q-11 -23 -22.5 -62t-22 -87.5t-19.5 -105t-16.5 -114.5t-13.5 -115.5t-9 -107.5t-2.5 -91t4.5 -66q-2 -11 -3.5 -16.5t-6.5 -8.5t-15 -3.5t-28 -0.5v336zM237 948q-13 -17 -26 -31t-25 -27.5t-24.5 -27.5t-26.5 -31l-29 15l134 182q18 -18 31.5 -39t25.5 -44t24 -47t27 -48 q0 -7 -3 -9.5t-8.5 -4t-12 -3t-14.5 -5.5q-13 22 -20.5 35t-13.5 24.5t-14.5 24.5t-24.5 36z" />
<glyph unicode="&#x177;" horiz-adv-x="384" d="M214 -410q0 50 9 103t18.5 106t16 106t1.5 104l-249 422q22 20 35 22.5t15 0.5q7 -10 23.5 -37t38 -63t45.5 -76t45.5 -76t37 -64t21.5 -39l46 371l50 -25l-108 -858zM202 676q-13 -17 -26 -31t-25 -27.5t-24.5 -27.5t-26.5 -31l-29 15l134 182q18 -18 31.5 -39t25.5 -44 t24 -47t27 -48q0 -7 -3 -9.5t-8.5 -4t-12 -3t-14.5 -5.5q-13 22 -20.5 35t-13.5 24.5t-14.5 24.5t-24.5 36z" />
<glyph unicode="&#x178;" horiz-adv-x="454" d="M292 326q-15 22 -40.5 54t-54.5 69.5t-60 77.5t-57.5 77.5t-46.5 70t-29 55.5l20 18q37 -40 64.5 -73.5t49.5 -63t40 -56.5t37.5 -54.5t42.5 -56t54 -60.5q6 28 11.5 62.5t11.5 71.5t13 75.5t16 74t19.5 66.5t24.5 53q1 1 4.5 1h5.5q3 0 8.5 -1t10.5 -3.5t8 -6.5t1 -9 q-11 -23 -22.5 -62t-22 -87.5t-19.5 -105t-16.5 -114.5t-13.5 -115.5t-9 -107.5t-2.5 -91t4.5 -66q-2 -11 -3.5 -16.5t-6.5 -8.5t-15 -3.5t-28 -0.5v336zM99 826q-3 15 1 23t12 12t18 5t18 1t17.5 -1t17.5 -5t12 -12t0 -23q-3 -14 -17 -27t-30 -13q-8 0 -16 3.5t-14.5 9.5 t-11 13t-7.5 14zM247 826q-4 15 0.5 23t12.5 12t18 5t18 1q7 0 17 -1t18 -5t12 -12t0 -23q-1 -7 -6 -14t-11.5 -13t-14.5 -9.5t-15 -3.5q-17 0 -31 13t-18 27z" />
<glyph unicode="&#x179;" horiz-adv-x="658" d="M148 28v5t1 5l104 320l-159 -11l15 47l171 24l138 234h-11.5t-17.5 0.5t-17.5 0.5h-11.5q-39 0 -77.5 -3t-77.5 -7t-77.5 -7t-77.5 -3q-12 0 -21 2t-15 17l20 20l20.5 2t53.5 5.5t75 7.5t84.5 8.5t82 8t68.5 6.5q1 0 9.5 0.5t11.5 0.5h10t14 -2t11.5 -6t0.5 -12 l-123 -269h132q7 -16 2 -26t-17 -16t-30.5 -8.5t-38.5 -4.5t-39 -4t-33 -5q-19 -33 -38 -70t-35.5 -75t-29 -77.5t-19.5 -77.5q2 0 8 -0.5l12 -1t11.5 -0.5h7.5q49 0 96 8t94.5 17t95 17t98.5 8v-39q-56 0 -110 -10.5t-107.5 -23.5t-107 -23.5t-108.5 -10.5q-6 0 -15 1.5 t-16 5t-12 8.5t-5 14zM377 858q-13 -18 -26 -31.5t-25.5 -27t-24.5 -28t-26 -30.5l-29 15q35 45 54 73l28.5 42t12.5 16.5t5.5 -1.5t8.5 -12.5t22 -15.5z" />
<glyph unicode="&#x17a;" horiz-adv-x="480" d="M110 211l-4 45l95 5l82 161l-264 -17l-5 37q1 0 20.5 2.5t50 6.5t68 9t74.5 9t70 7.5t55 4.5l-89 -220l95 7l2 -47l-140 -10l-58 -165q73 -3 144.5 -1.5t144.5 1.5v-33q-3 0 -24 -1t-54 -3t-72 -4t-78 -3.5t-73.5 -1.5t-55.5 2l71 209h-55zM300 619q-13 -18 -26 -31.5 t-25.5 -27t-24.5 -28t-26 -30.5l-29 15q35 45 54 73l28.5 42t12.5 16.5t5.5 -1.5t8.5 -12.5t22 -15.5z" />
<glyph unicode="&#x17b;" horiz-adv-x="658" d="M148 28v5t1 5l104 320l-159 -11l15 47l171 24l138 234h-11.5t-17.5 0.5t-17.5 0.5h-11.5q-39 0 -77.5 -3t-77.5 -7t-77.5 -7t-77.5 -3q-12 0 -21 2t-15 17l20 20l20.5 2t53.5 5.5t75 7.5t84.5 8.5t82 8t68.5 6.5q1 0 9.5 0.5t11.5 0.5h10t14 -2t11.5 -6t0.5 -12 l-123 -269h132q7 -16 2 -26t-17 -16t-30.5 -8.5t-38.5 -4.5t-39 -4t-33 -5q-19 -33 -38 -70t-35.5 -75t-29 -77.5t-19.5 -77.5q2 0 8 -0.5l12 -1t11.5 -0.5h7.5q49 0 96 8t94.5 17t95 17t98.5 8v-39q-56 0 -110 -10.5t-107.5 -23.5t-107 -23.5t-108.5 -10.5q-6 0 -15 1.5 t-16 5t-12 8.5t-5 14zM228 759q-3 15 -1.5 25.5t6 17t11.5 9t14 2.5q8 0 15 -2.5t12 -8.5t6.5 -16t-2.5 -25q-4 -13 -9.5 -21.5t-21.5 -8.5q-15 0 -20.5 7.5t-9.5 20.5z" />
<glyph unicode="&#x17c;" horiz-adv-x="480" d="M110 211l-4 45l95 5l82 161l-264 -17l-5 37q1 0 20.5 2.5t50 6.5t68 9t74.5 9t70 7.5t55 4.5l-89 -220l95 7l2 -47l-140 -10l-58 -165q73 -3 144.5 -1.5t144.5 1.5v-33q-3 0 -24 -1t-54 -3t-72 -4t-78 -3.5t-73.5 -1.5t-55.5 2l71 209h-55zM187 519q-3 15 -1.5 25.5t6 17 t11.5 9t14 2.5q8 0 15 -2.5t12 -8.5t6.5 -16t-2.5 -25q-4 -13 -9.5 -21.5t-21.5 -8.5q-15 0 -20.5 7.5t-9.5 20.5z" />
<glyph unicode="&#x17d;" horiz-adv-x="658" d="M148 28v5t1 5l104 320l-159 -11l15 47l171 24l138 234h-11.5t-17.5 0.5t-17.5 0.5h-11.5q-39 0 -77.5 -3t-77.5 -7t-77.5 -7t-77.5 -3q-12 0 -21 2t-15 17l20 20l20.5 2t53.5 5.5t75 7.5t84.5 8.5t82 8t68.5 6.5q1 0 9.5 0.5t11.5 0.5h10t14 -2t11.5 -6t0.5 -12 l-123 -269h132q7 -16 2 -26t-17 -16t-30.5 -8.5t-38.5 -4.5t-39 -4t-33 -5q-19 -33 -38 -70t-35.5 -75t-29 -77.5t-19.5 -77.5q2 0 8 -0.5l12 -1t11.5 -0.5h7.5q49 0 96 8t94.5 17t95 17t98.5 8v-39q-56 0 -110 -10.5t-107.5 -23.5t-107 -23.5t-108.5 -10.5q-6 0 -15 1.5 t-16 5t-12 8.5t-5 14zM326 791q17 15 25.5 24t15.5 16t14.5 15t22.5 23q8 -3 15.5 -4t13 -2t9 -2.5t3.5 -6.5q-16 -15 -29.5 -30.5t-26 -30t-27 -28t-34.5 -25.5l-143 117l31 9q15 -10 28 -19t26.5 -17.5t27 -17.5t28.5 -21z" />
<glyph unicode="&#x17e;" horiz-adv-x="480" d="M110 211l-4 45l95 5l82 161l-264 -17l-5 37q1 0 20.5 2.5t50 6.5t68 9t74.5 9t70 7.5t55 4.5l-89 -220l95 7l2 -47l-140 -10l-58 -165q73 -3 144.5 -1.5t144.5 1.5v-33q-3 0 -24 -1t-54 -3t-72 -4t-78 -3.5t-73.5 -1.5t-55.5 2l71 209h-55zM220 565q17 15 25.5 24 t15.5 16t14.5 15t22.5 23q8 -3 15.5 -4t13 -2t9 -2.5t3.5 -6.5q-16 -15 -29.5 -30.5t-26 -30t-27 -28t-34.5 -25.5l-143 117l31 9q15 -10 28 -19t26.5 -17.5t27 -17.5t28.5 -21z" />
<glyph unicode="&#x192;" horiz-adv-x="373" d="M133 -116q9 64 11 125t1.5 114t-2 95.5t-0.5 68.5q-13 0 -28 -6t-31 -13.5t-31.5 -13.5t-28.5 -6q-5 0 -6.5 4t-2.5 10t-1.5 12.5t-3.5 13.5l135 58q-19 150 -13.5 250.5t29 162t62 90t85.5 35.5q37 0 70.5 -14.5t59 -39.5t41 -58t15.5 -70q-16 0 -29.5 10.5t-25.5 26.5 t-24 34.5t-26.5 34.5t-31.5 26.5t-40 10.5q-20 -4 -39.5 -16.5t-36 -35.5t-29.5 -58.5t-20 -87.5t-7.5 -122.5t8.5 -161.5l124 1q3 -13 3.5 -22.5t-14.5 -15.5q-11 -4 -28 -7.5t-34.5 -6t-32.5 -4t-21 -2.5q-1 -32 -0.5 -72.5t0.5 -85.5v-90.5t-1.5 -86.5t-5 -74.5 t-9.5 -53.5l-8.5 -0.5t-21.5 -0.5h-27t-26.5 -0.5t-21 -0.5h-8.5q-5 0 -11 7.5t-2.5 16.5t22 15.5t63.5 3.5z" />
<glyph unicode="&#x1fc;" horiz-adv-x="794" d="M298 538q16 23 42.5 39.5t59.5 27.5t70 17t73.5 9t70 4t59.5 1q3 0 9.5 -0.5t14.5 -1t14.5 -0.5h9.5q4 -22 -4.5 -30.5t-22 -10t-28 1t-22.5 0.5q-10 -1 -31 -5.5t-47.5 -10t-55.5 -12t-56 -12t-48 -10.5t-30 -7q-17 -6 -19 -15t-2 -21q0 -21 3 -47t6 -51.5t6.5 -46.5 t5.5 -31q3 -1 14 -1h15q23 0 45 4t44.5 9t45 8.5t46.5 3.5v-37q-9 0 -27.5 -1.5t-40 -5.5t-43.5 -8.5t-40 -9.5t-29.5 -10t-11.5 -10v-208q48 0 94.5 3t93 6.5t93.5 6.5t94 3q0 -12 -7.5 -19.5t-18.5 -12t-22.5 -6.5t-18.5 -3q-4 -1 -25 -3t-52 -6t-69 -8t-75 -8t-70 -7.5 t-55 -5.5q-3 -1 -9 -1v37l-35 194q-5 5 -22.5 6t-41 -1t-51 -5.5t-52 -5t-44.5 -1t-29 6.5v-211h-51q0 3 0.5 11.5t0.5 17.5t1 17t1 11q6 58 9.5 117.5t8.5 115.5t13.5 107t24.5 92.5t40 71t60 43.5q37 0 64.5 -21.5t47.5 -57.5l7 -12q0 2 -1 6zM196 577q-26 0 -43.5 -18.5 t-28.5 -48t-17 -65.5t-8 -70.5t-2.5 -64t-0.5 -45.5q49 0 100 7.5t96 15.5q1 4 1.5 13t1 20t1 21t0.5 13q0 33 -3.5 63t-14 58.5t-30 53.5t-52.5 47zM439 852q-13 -18 -26 -31.5t-25.5 -27t-24.5 -28t-26 -30.5l-29 15q35 45 54 73l28.5 42t12.5 16.5t5.5 -1.5t8.5 -12.5 t22 -15.5z" />
<glyph unicode="&#x1fd;" horiz-adv-x="580" d="M19 86q0 57 31.5 83t82.5 26q20 0 37.5 -1t33.5 -5t31.5 -12t32.5 -23q0 3 0.5 12.5t0.5 20.5v34q-1 18 -1 46.5t-4.5 58.5t-18 57t-43.5 41q-21 0 -39 -7t-36 -15t-36 -14.5t-39 -6.5q0 25 15.5 41.5t37.5 25.5t46 12t42 3q18 -3 33.5 -7t29 -16t25 -36.5t19.5 -69.5 l2 -10q11 24 26 46q23 31 52 52.5t59 21.5q17 0 34 -7t32 -18.5t27.5 -26t19.5 -30.5t7.5 -31t-8.5 -26l-211 -39q-3 -1 -6 -9.5t-5.5 -21.5t-4 -28.5t-2.5 -30.5q0 -12 -1 -22q1 -21 3 -45q3 -12 10 -21q14 -18 35 -27t47.5 -12t52.5 -3t49 2t38 2q0 -4 -3 -9t-7 -9.5 t-7.5 -8t-5.5 -4.5q-7 -2 -24 -5.5t-35.5 -6.5t-34.5 -5t-21 -2q-32 -6 -55 1t-39 24q-4 4 -8 9q-10 -9 -27 -15q-18 -6 -40.5 -10.5t-45.5 -6.5t-44 -3t-35 -1q-18 0 -36.5 6t-34 17.5t-25 28t-9.5 36.5zM149 156q-50 -14 -70 -33.5t-17.5 -37.5t23.5 -32.5t51 -19t65 5 t67 37.5q-12 29 -24 44.5t-26 23.5t-31 10t-38 2zM425 406q-9 0 -23 -9.5t-27 -24t-21 -31t-6 -28.5q26 -3 54 1t51 12.5t38 20t14.5 23.5t-18.5 21.5t-62 14.5zM350 619q-13 -18 -26 -31.5t-25.5 -27t-24.5 -28t-26 -30.5l-29 15q35 45 54 73l28.5 42t12.5 16.5t5.5 -1.5 t8.5 -12.5t22 -15.5z" />
<glyph unicode="&#x1fe;" horiz-adv-x="442" d="M18 332q0 33 4.5 70t15 72.5t27 68t40 57t55 39t71.5 14.5q35 0 62 -19q14 -11 27 -25l2 3q3 8 8.5 11t13.5 -2t19 -24l-11 -35q12 -24 21 -51q13 -40 21.5 -80.5t11.5 -78t3 -64.5q-4 -59 -17 -108.5t-35.5 -87t-55.5 -61.5t-80 -32q-30 0 -54 7l-5 -17l-38 34l1 2 q-20 13 -37 32q-22 26 -36 60t-21.5 71t-10 74.5t-2.5 69.5zM56 332q0 -24 1 -54t5.5 -60.5t13.5 -60t24.5 -52t38.5 -36.5l168 502q-11 15 -24 27q-21 18 -51 18q-31 0 -56 -14.5t-44.5 -38t-34 -53.5t-23.5 -61.5t-13.5 -62t-4.5 -54.5zM196 55q48 -3 79 12t50 46t29 75 t16 100q0 22 -2 55t-7.5 69t-14.5 72q-5 17 -10 31l-152 -460h12zM281 891q-13 -17 -26 -31t-25.5 -27.5t-24.5 -28t-26 -30.5l-29 15q35 46 54 73.5t28.5 41.5t12.5 16.5t5.5 -1.5t8.5 -12.5t22 -15.5z" />
<glyph unicode="&#x1ff;" horiz-adv-x="371" d="M277 433q2 6 5.5 12t9.5 8t13.5 -1.5t18.5 -18.5l-22 -48q20 -35 29 -77q11 -43 9 -84q0 -60 -23 -107t-58.5 -76t-76.5 -39q-27 -6 -52 -1l-4 -11l-37 24l1 2q-25 17 -43 50q-23 43 -23 117q0 23 4 53.5t13 61.5t22.5 61t32.5 53.5t44 38t56 14.5q32 0 59 -23 q10 -7 19 -17zM61 179q3 -61 21 -94q11 -20 24 -32l150 333q-6 8 -14 14q-19 15 -44 15q-24 0 -43 -12t-34.5 -32.5t-26.5 -46.5t-18.5 -52t-11 -50.5t-3.5 -42.5zM181 41q30 10 56 35.5t44.5 64t20.5 86.5q2 36 -6 70q-5 25 -13 45l-137 -305q17 -2 35 4zM246 619 q-14 -18 -26.5 -31.5l-25 -27t-25 -28t-25.5 -30.5l-29 15q35 45 54 73l28.5 42t12.5 16.5t5.5 -1.5t8.5 -12.5t22 -15.5z" />
<glyph unicode="&#x218;" horiz-adv-x="490" d="M53 76q5 12 15.5 15t22.5 -15q0 -2 9.5 -5.5t24 -8t34 -9t38.5 -8t37 -6t31 -2.5q34 0 62.5 14.5t49 37.5t31.5 52.5t11 60.5q0 9 -3 31.5t-10 45t-18.5 40.5t-27.5 18q-104 -12 -170.5 -9.5t-105.5 15.5t-54.5 35.5t-16.5 51.5q0 36 18 69.5t46 59.5t62.5 41.5 t68.5 15.5q28 0 58.5 -7t56.5 -21.5t42.5 -38t16.5 -56.5q-24 0 -44 13.5t-40 28.5t-42 28.5t-51 13.5q-24 0 -48.5 -12t-44 -31t-32 -42.5t-12.5 -48.5q0 -10 0.5 -21.5t4.5 -22t12.5 -17.5t24.5 -7h269q17 0 29.5 -10.5t21 -26.5t14 -36t9 -39t4.5 -35.5t1 -25.5 q0 -39 -11 -73.5t-33 -62t-55 -45t-76 -21.5q-21 -2 -54.5 1t-67.5 11.5t-64 24t-44 39.5zM257 -98q0 3 -5 9.5t-11 12.5t-12.5 11t-9.5 6q6 12 11.5 16t16.5 4q28 0 40 -12t12 -37q0 -31 -13 -50t-48 -36q-1 2 -1 9v10v10.5t1 8.5q0 2 3.5 7.5t7 12t6 12t2.5 6.5z" />
<glyph unicode="&#x219;" horiz-adv-x="394" d="M72 81q18 0 33.5 -7t30.5 -15.5t30.5 -15t33.5 -6.5q21 0 43.5 7.5t41.5 21t31 33t12 42.5q1 7 0.5 17t-6.5 20.5t-20 20t-40.5 14.5t-66.5 5.5t-99 -7.5q-15 0 -29 8.5t-25 21t-18 27t-7 27.5q0 39 16.5 63.5t42.5 39t58 20.5t65 6q15 0 34.5 -1.5t36 -8t28 -20.5 t11.5 -39q-2 -17 -5.5 -20.5t-10 2t-15.5 15.5t-21.5 19.5t-30 14.5t-39.5 0q-23 0 -46 -4.5t-41.5 -15.5t-30 -30t-11.5 -48q0 -15 13.5 -20.5t36 -5.5t51 1.5t58.5 1.5t58 -4.5t49.5 -18t33.5 -38.5t9 -65q0 -29 -16.5 -55t-42 -45.5t-56.5 -30.5t-60 -8q-12 1 -32.5 6.5 t-40 15.5t-33.5 24.5t-14 34.5zM194 -98q0 3 -5 9.5t-11 12.5t-12.5 11t-9.5 6q6 12 11.5 16t16.5 4q28 0 40 -12t12 -37q0 -31 -13 -50t-48 -36q-1 2 -1 9v10v10.5t1 8.5q0 2 3.5 7.5t7 12t6 12t2.5 6.5z" />
<glyph unicode="&#x2c6;" horiz-adv-x="298" d="M154 676q-13 -17 -26 -31t-25 -27.5t-24.5 -27.5t-26.5 -31l-29 15l134 182q18 -18 31.5 -39t25.5 -44t24 -47t27 -48q0 -7 -3 -9.5t-8.5 -4t-12 -3t-14.5 -5.5q-13 22 -20.5 35t-13.5 24.5t-14.5 24.5t-24.5 36z" />
<glyph unicode="&#x2c7;" horiz-adv-x="298" d="M159 601q17 15 25.5 24t15.5 16t14.5 15t22.5 23q8 -3 15.5 -4t13 -2t9 -2.5t3.5 -6.5q-16 -15 -29.5 -30.5t-26 -30t-27 -28t-34.5 -25.5l-143 117l31 9q15 -10 28 -19t26.5 -17.5t27 -17.5t28.5 -21z" />
<glyph unicode="&#x2d8;" horiz-adv-x="241" d="M161 453q6 -8 5.5 -19t-0.5 -22q0 -8 -3 -18.5t-9.5 -20t-16.5 -15.5t-25 -6q-17 0 -28.5 6t-18.5 15t-10 20.5t-3 21.5q0 6 1 14.5t3 16.5h20q-3 -5 -4.5 -12.5t1.5 -18.5q9 -26 19.5 -33.5t19.5 -3.5t15.5 15.5t10.5 24.5q-2 9 -2.5 17.5t-5.5 13.5z" />
<glyph unicode="&#x2d9;" horiz-adv-x="153" d="M46 426q-3 15 -1.5 25.5t6 17t11.5 9t14 2.5q8 0 15 -2.5t12 -8.5t6.5 -16t-2.5 -25q-4 -13 -9.5 -21.5t-21.5 -8.5q-15 0 -20.5 7.5t-9.5 20.5z" />
<glyph unicode="&#x2da;" horiz-adv-x="241" d="M52 415q0 8 1.5 19t6 21.5t12 18t21.5 7.5q37 0 55 -21t18 -48q0 -8 -3 -18.5t-9.5 -20t-16.5 -15.5t-25 -6q-17 0 -28.5 6t-18.5 15t-10 20.5t-3 21.5zM73 415q9 -26 19.5 -33.5t19.5 -3.5t15.5 15.5t10.5 24.5q-3 21 -15.5 31t-25 9t-21 -11.5t-3.5 -31.5z" />
<glyph unicode="&#x2db;" horiz-adv-x="283" d="M257 -134q-5 -1 -22.5 -6.5t-40 -11.5t-48 -8.5t-46.5 3t-34.5 21.5t-13.5 48t12 54t32 37t46.5 24t56.5 13q0 -13 4.5 -21t9 -12.5t7 -6t0.5 -2.5q-24 0 -46.5 -3.5t-40.5 -14t-29.5 -28.5t-11.5 -47q0 -21 14 -27.5t36.5 -3t51.5 14t60 21.5z" />
<glyph unicode="&#x2dc;" horiz-adv-x="311" d="M109 550q-11 8 -17.5 2.5t-11.5 -17t-9 -25t-8 -21.5t-9 -6.5t-11 19.5q0 47 15 66t49 19q19 -9 31.5 -21.5l23 -23t19 -16.5t18.5 -2t23 20.5t31 51.5q6 0 13.5 -5t7.5 -15q-16 -41 -31.5 -61.5t-29.5 -26t-28 0.5t-27 17t-25 23t-24 21z" />
<glyph unicode="&#x2dd;" horiz-adv-x="252" d="M142 636q-13 -17 -26 -31.5t-25 -28t-24.5 -27.5t-26.5 -31l-29 16q35 46 54.5 73.5t29 41.5t12 16.5t5.5 -1.5t9 -12.5t21 -15.5zM223 619q-13 -18 -26 -31.5t-25 -27t-24.5 -28t-26.5 -30.5l-29 15q35 45 54.5 73t28.5 42t12 16.5t6 -1.5t9 -12.5t21 -15.5z" />
<glyph unicode="&#x1e80;" horiz-adv-x="614" d="M293 360q-3 -11 -9.5 -35t-15 -54t-18 -63t-18.5 -63t-16 -53.5t-10 -33.5q-2 -10 -6 -21.5t-9 -17.5t-11 -3t-12 22l-154 692q3 0 10 1.5t10 1.5q20 0 26.5 -8.5t11.5 -33.5l115 -519l77 250q4 12 11.5 16t17.5 4q8 -8 23 -29.5t32.5 -50t36.5 -61t36.5 -61.5 t31.5 -52.5t22 -33.5q3 -5 10.5 -13.5t16.5 -17.5t18 -17t13 -10q-1 33 -3 78.5t-4 98.5t-2.5 110.5t2 114t8.5 109t16 96.5q2 7 5.5 10.5t8 4.5t12 0.5t16.5 -0.5q0 -11 -1 -26.5t-3 -44t-4 -76.5t-4.5 -124t-4.5 -185.5t-4 -261.5q-43 34 -80 76t-70 89.5t-64.5 97 t-63.5 97.5zM280 926q18 -18 27.5 -32.5t16.5 -29t15 -31.5t23 -41q0 -7 -3 -9.5t-8.5 -4t-12 -3t-14.5 -5.5q-13 22 -20 35t-13.5 24t-15 24.5t-23.5 36.5z" />
<glyph unicode="&#x1e81;" horiz-adv-x="567" d="M209 13l-195 447l26 27l166 -372l76 245l193 -264q9 49 11.5 98.5t2 99t-1 100.5t2.5 102l43 -16v-127v-87.5t-0.5 -57.5t-1 -38t-2.5 -29.5t-5 -30t-7 -40.5t-10 -63q-31 24 -60 60t-54.5 72t-48.5 66.5t-42 44.5zM256 654q18 -18 27.5 -32.5t16.5 -29t15 -31.5t23 -41 q0 -7 -3 -9.5t-8.5 -4t-12 -3t-14.5 -5.5q-13 22 -20 35t-13.5 24t-15 24.5t-23.5 36.5z" />
<glyph unicode="&#x1e82;" horiz-adv-x="614" d="M293 360q-3 -11 -9.5 -35t-15 -54t-18 -63t-18.5 -63t-16 -53.5t-10 -33.5q-2 -10 -6 -21.5t-9 -17.5t-11 -3t-12 22l-154 692q3 0 10 1.5t10 1.5q20 0 26.5 -8.5t11.5 -33.5l115 -519l77 250q4 12 11.5 16t17.5 4q8 -8 23 -29.5t32.5 -50t36.5 -61t36.5 -61.5 t31.5 -52.5t22 -33.5q3 -5 10.5 -13.5t16.5 -17.5t18 -17t13 -10q-1 33 -3 78.5t-4 98.5t-2.5 110.5t2 114t8.5 109t16 96.5q2 7 5.5 10.5t8 4.5t12 0.5t16.5 -0.5q0 -11 -1 -26.5t-3 -44t-4 -76.5t-4.5 -124t-4.5 -185.5t-4 -261.5q-43 34 -80 76t-70 89.5t-64.5 97 t-63.5 97.5zM367 891q-13 -18 -26 -31.5t-25.5 -27t-24.5 -28t-26 -30.5l-29 15q35 45 54 73l28.5 42t12.5 16.5t5.5 -1.5t8.5 -12.5t22 -15.5z" />
<glyph unicode="&#x1e83;" horiz-adv-x="567" d="M209 13l-195 447l26 27l166 -372l76 245l193 -264q9 49 11.5 98.5t2 99t-1 100.5t2.5 102l43 -16v-127v-87.5t-0.5 -57.5t-1 -38t-2.5 -29.5t-5 -30t-7 -40.5t-10 -63q-31 24 -60 60t-54.5 72t-48.5 66.5t-42 44.5zM344 619q-13 -18 -26 -31.5t-25.5 -27t-24.5 -28 t-26 -30.5l-29 15q35 45 54 73l28.5 42t12.5 16.5t5.5 -1.5t8.5 -12.5t22 -15.5z" />
<glyph unicode="&#x1e84;" horiz-adv-x="614" d="M293 360q-3 -11 -9.5 -35t-15 -54t-18 -63t-18.5 -63t-16 -53.5t-10 -33.5q-2 -10 -6 -21.5t-9 -17.5t-11 -3t-12 22l-154 692q3 0 10 1.5t10 1.5q20 0 26.5 -8.5t11.5 -33.5l115 -519l77 250q4 12 11.5 16t17.5 4q8 -8 23 -29.5t32.5 -50t36.5 -61t36.5 -61.5 t31.5 -52.5t22 -33.5q3 -5 10.5 -13.5t16.5 -17.5t18 -17t13 -10q-1 33 -3 78.5t-4 98.5t-2.5 110.5t2 114t8.5 109t16 96.5q2 7 5.5 10.5t8 4.5t12 0.5t16.5 -0.5q0 -11 -1 -26.5t-3 -44t-4 -76.5t-4.5 -124t-4.5 -185.5t-4 -261.5q-43 34 -80 76t-70 89.5t-64.5 97 t-63.5 97.5zM185 816q-3 15 1 23t12 12t18 5t18 1t17.5 -1t17.5 -5t12 -12t0 -23q-3 -14 -17 -27t-30 -13q-8 0 -16 3.5t-14.5 9.5t-11 13t-7.5 14zM333 816q-4 15 0.5 23t12.5 12t18 5t18 1q7 0 17 -1t18 -5t12 -12t0 -23q-1 -7 -6 -14t-11.5 -13t-14.5 -9.5t-15 -3.5 q-17 0 -31 13t-18 27z" />
<glyph unicode="&#x1e85;" horiz-adv-x="567" d="M209 13l-195 447l26 27l166 -372l76 245l193 -264q9 49 11.5 98.5t2 99t-1 100.5t2.5 102l43 -16v-127v-87.5t-0.5 -57.5t-1 -38t-2.5 -29.5t-5 -30t-7 -40.5t-10 -63q-31 24 -60 60t-54.5 72t-48.5 66.5t-42 44.5zM161 544q-3 15 1 23t12 12t18 5t18 1t17.5 -1t17.5 -5 t12 -12t0 -23q-3 -14 -17 -27t-30 -13q-8 0 -16 3.5t-14.5 9.5t-11 13t-7.5 14zM309 544q-4 15 0.5 23t12.5 12t18 5t18 1q7 0 17 -1t18 -5t12 -12t0 -23q-1 -7 -6 -14t-11.5 -13t-14.5 -9.5t-15 -3.5q-17 0 -31 13t-18 27z" />
<glyph unicode="&#x1ef2;" horiz-adv-x="454" d="M292 326q-15 22 -40.5 54t-54.5 69.5t-60 77.5t-57.5 77.5t-46.5 70t-29 55.5l20 18q37 -40 64.5 -73.5t49.5 -63t40 -56.5t37.5 -54.5t42.5 -56t54 -60.5q6 28 11.5 62.5t11.5 71.5t13 75.5t16 74t19.5 66.5t24.5 53q1 1 4.5 1h5.5q3 0 8.5 -1t10.5 -3.5t8 -6.5t1 -9 q-11 -23 -22.5 -62t-22 -87.5t-19.5 -105t-16.5 -114.5t-13.5 -115.5t-9 -107.5t-2.5 -91t4.5 -66q-2 -11 -3.5 -16.5t-6.5 -8.5t-15 -3.5t-28 -0.5v336zM200 926q18 -18 27.5 -32.5t16.5 -29t15 -31.5t23 -41q0 -7 -3 -9.5t-8.5 -4t-12 -3t-14.5 -5.5q-13 22 -20 35 t-13.5 24t-15 24.5t-23.5 36.5z" />
<glyph unicode="&#x1ef3;" horiz-adv-x="384" d="M214 -410q0 50 9 103t18.5 106t16 106t1.5 104l-249 422q22 20 35 22.5t15 0.5q7 -10 23.5 -37t38 -63t45.5 -76t45.5 -76t37 -64t21.5 -39l46 371l50 -25l-108 -858zM165 654q18 -18 27.5 -32.5t16.5 -29t15 -31.5t23 -41q0 -7 -3 -9.5t-8.5 -4t-12 -3t-14.5 -5.5 q-13 22 -20 35t-13.5 24t-15 24.5t-23.5 36.5z" />
<glyph unicode="&#x2013;" horiz-adv-x="309" d="M34 230q0 1 9 2t28.5 2.5t50.5 4t76 5.5q4 0 16 1t25 1.5t24.5 0.5h16.5q0 -13 -6 -24t-18 -18q-48 -4 -92 -6.5t-92 -6.5q-2 0 -9.5 -0.5t-11.5 -0.5q-13 0 -22 2t-15 18z" />
<glyph unicode="&#x2014;" horiz-adv-x="439" d="M10 230q2 2 27 3t63.5 1.5t86 1.5t93.5 2t86 3t65 5q0 -14 -5 -24.5t-18 -17.5q-19 -1 -49.5 -1.5t-66.5 -2t-75.5 -3t-75.5 -3t-66 -2.5t-47 -1q-6 0 -11.5 0.5t-8.5 4t-2.5 11.5t4.5 23z" />
<glyph unicode="&#x2018;" horiz-adv-x="91" d="M14 691q0 5 8 12t12 7q25 -16 32 -42.5t7 -54.5q0 -6 0.5 -14.5t-0.5 -17t-5.5 -15.5t-14.5 -10q-8 3 -15 22t-12.5 42t-8.5 44t-3 27z" />
<glyph unicode="&#x2019;" horiz-adv-x="91" d="M14 691q0 5 8 12t12 7q25 -16 32 -42.5t7 -54.5q0 -6 0.5 -14.5t-0.5 -17t-5.5 -15.5t-14.5 -10q-8 3 -15 22t-12.5 42t-8.5 44t-3 27z" />
<glyph unicode="&#x201a;" horiz-adv-x="123" d="M28 67q0 5 7.5 12.5t11.5 7.5q26 -17 33.5 -43t7.5 -54v-15t-1 -17.5t-6 -15.5t-14 -9q-9 2 -15.5 21t-12 42t-8.5 44t-3 27z" />
<glyph unicode="&#x201c;" horiz-adv-x="216" d="M133 633v19t3.5 20.5t10.5 16.5t20 7q0 -6 1 -20.5t1.5 -30.5t1.5 -30t1 -20q0 -2 3.5 -10.5t7 -18t6.5 -18t3 -10.5q0 -3 -2.5 -6t-5.5 -6t-6 -5.5t-6 -2.5q-13 17 -21 30.5t-12 26.5t-5 26.5t-1 31.5zM19 604q0 13 1.5 32t8 36.5t18 30t29.5 12.5v-170q-27 0 -42 16.5 t-15 42.5z" />
<glyph unicode="&#x201d;" horiz-adv-x="250" d="M19 634q0 4 7.5 11t11.5 7q31 -18 45 -49.5t14 -65.5q0 -8 -1 -18t-4 -19.5t-9 -15.5t-16 -6q-1 0 -4.5 0.5t-4.5 1.5q-1 7 -3.5 23.5t-5.5 34.5t-6 34.5t-5 22.5q0 2 -3 7.5t-6.5 12t-6.5 12t-3 7.5zM130 659q28 0 47 -17.5t30.5 -42.5t16.5 -52.5t5 -47.5h-37 q-2 24 -12 44t-21 39t-20 37t-9 40z" />
<glyph unicode="&#x201e;" horiz-adv-x="216" d="M133 63v19t3.5 20.5t10.5 16.5t20 7q0 -6 1 -20.5t1.5 -30.5t1.5 -30t1 -20q0 -2 3.5 -10t7 -18t6.5 -18.5t3 -10.5q0 -3 -2.5 -6t-5.5 -6t-6 -5.5t-6 -2.5q-13 17 -21 30.5t-12 26.5t-5 27t-1 31zM22 95q2 23 4 41t5 27t7.5 6t9.5 -24t12 -62t16 -108q-13 0 -23 14 t-17.5 33t-10.5 39.5t-3 33.5z" />
<glyph unicode="&#x2020;" horiz-adv-x="384" d="M37 476q1 1 11 2.5t26.5 3.5t39 5t48.5 5q-2 43 -2 83t-1 74q0 2 0.5 10t0.5 17.5t1 19t1 14.5v14t3.5 22t12.5 17t27 -1l1 -20.5t2 -56.5t2 -84t3 -103q17 1 35.5 2.5t37.5 3.5q4 0 15.5 0.5t24.5 1t24.5 1t16.5 0.5q0 -14 -5.5 -24.5t-18.5 -16.5q-23 -3 -57.5 -7 t-71.5 -8q1 -56 2.5 -115t2.5 -117t2 -112t2 -100q-2 -18 -8.5 -26.5t-32.5 -8.5q-1 1 -2 21t-3 54t-3.5 79.5t-3.5 98t-4 109.5t-3 112q-26 -2 -48.5 -4.5t-38.5 -3.5q-2 0 -10 -0.5t-11 -0.5q-13 0 -22 2t-14 18z" />
<glyph unicode="&#x2021;" horiz-adv-x="384" d="M58 353q23 3 50.5 6t57.5 6q-2 56 -2.5 108.5t-1.5 100.5q0 2 0.5 10t0.5 17t1 19t1 15v14t3.5 22t12.5 16.5t28 -1.5l1 -25.5t2 -68.5t2 -100.5t3 -121.5q26 2 52.5 3.5t51.5 1.5v-41l-104 -4q1 -36 1.5 -70.5t1.5 -70.5q42 1 74.5 0t38.5 -8v-24l-9 -0.5t-25 -1t-36 -1 t-43 -1.5q1 -38 1.5 -75t1.5 -71q-2 -18 -8.5 -26.5t-32.5 -8.5q-1 1 -1.5 14.5t-2 37.5t-3 56.5t-3.5 70.5q-32 -1 -60.5 -3t-47.5 -5v4v9.5t-0.5 10t-2.5 5.5q13 3 44 7t67 7q-2 34 -2.5 69.5t-2.5 72.5l-109 -4v29z" />
<glyph unicode="&#x2022;" horiz-adv-x="192" d="M60 223q-4 15 0 27.5t11.5 22.5t16.5 15t17 5q7 0 17 -4t18 -12t12.5 -19.5t0.5 -26.5q-2 -7 -7 -15t-12 -16t-15.5 -13.5t-15.5 -5.5q-16 0 -27.5 14t-15.5 28z" />
<glyph unicode="&#x2026;" horiz-adv-x="442" d="M32 38q-4 15 0.5 23.5t12.5 12.5t18 4.5t18 0.5q7 0 17 -0.5t18 -4.5t12 -12.5t0 -23.5q-1 -7 -6 -13.5t-11.5 -12.5t-14.5 -10t-15 -4q-8 0 -16 4t-15 10t-11.5 12.5t-6.5 13.5zM180 38q-4 15 0 23.5t12 12.5t18 4.5t18 0.5q7 0 17 -0.5t18 -4.5t12.5 -12.5t0.5 -23.5 q-2 -7 -6.5 -13.5t-11.5 -12.5t-15 -10t-15 -4q-17 0 -30.5 13.5t-17.5 26.5zM327 38q-4 15 0 23.5t12.5 12.5t18 4.5t18.5 0.5q7 0 17 -0.5t17.5 -4.5t12 -12.5t0.5 -23.5q-2 -7 -6.5 -13.5t-11 -12.5t-14.5 -10t-15 -4q-9 0 -16.5 4t-14.5 10t-12 12.5t-6 13.5z" />
<glyph unicode="&#x2039;" horiz-adv-x="360" d="M32 163q0 2 0.5 5.5t1.5 3.5l211 288h23q0 -24 -10.5 -51t-27 -53.5t-37.5 -51.5t-40.5 -46.5t-36 -38.5t-25.5 -27v-38q9 -3 25.5 -10.5t37.5 -17t43.5 -19.5t43.5 -20t37.5 -18t23.5 -11q3 -2 9 -7t12 -11t11.5 -12t6.5 -9q-6 -12 -12 -16t-16 -4q-8 0 -32 11t-55 27.5 t-65 36t-62.5 38t-47.5 32.5t-19 19z" />
<glyph unicode="&#x203a;" horiz-adv-x="326" d="M259 268l-230 192v58q8 -7 24.5 -20.5t37.5 -30.5t43.5 -36t43.5 -35.5t37.5 -30t25.5 -19.5q9 -7 22 -12.5t25.5 -13t21.5 -17t9 -24.5q0 -2 -0.5 -5.5t-1.5 -5.5q-7 -9 -20 -28.5t-30 -44t-36 -52t-36 -52t-30.5 -44t-19.5 -28.5q-9 -11 -17 -17.5t-22 -6.5v43z" />
<glyph unicode="&#x2044;" horiz-adv-x="216" d="M158 538q2 6 5 13.5t7.5 10t10.5 -2t15 -21.5l-162 -549l-30 30z" />
<glyph unicode="&#x20ac;" horiz-adv-x="496" d="M11 339q26 3 59 7l16 1q6 29 16 59q13 40 32.5 77.5t45 67t58 47.5t71.5 18q37 -6 71.5 -16.5t55.5 -23t24 -26t-21 -26.5q-22 0 -37.5 8.5t-30 18t-31.5 18t-42 8.5q-33 0 -58.5 -18t-44.5 -46.5t-31.5 -64.5t-20.5 -72l-4 -24q33 3 67 6q35 2 68 2v-41l-141 -5v-7 q-3 -34 -3 -57q0 -1 -1 -3q16 2 31 3q32 2 58.5 2t45.5 -2t23 -7v-25q0 -1 -15 -1t-39 -0.5t-55 -2.5l-51 -1q0 -17 2 -34q4 -36 17 -66.5t38 -51t66 -23.5q26 0 58 8.5t63.5 20t60.5 25t49 23.5v-39q-1 -3 -12.5 -10.5t-31 -16.5t-43 -18.5t-48 -17.5t-47 -12t-39.5 -2 q-55 0 -90.5 23.5t-56.5 61t-29 84.5q-4 21 -5 43l-17 -2q-26 -2 -43 -4q-1 0 -1 4v10q0 5 -1 10q-1 3 -2 4q10 3 34 6q12 2 27 3v17q0 24 4 53l-69 -2v29z" />
<glyph unicode="&#x2122;" horiz-adv-x="864" d="M614 268h-38l-96 192v-441l-44 -6q-2 30 -3.5 72.5t-2.5 92.5t-2 104.5t-2.5 108t-2.5 103t-2 89.5l-191 -27q-2 -63 2 -132t10 -139.5t11.5 -139.5t5.5 -132q0 -9 -5.5 -12.5t-13 -4.5t-15.5 0.5t-14 3.5q-3 13 -6 45t-6 75t-6 93l-6 100t-6 95.5t-5 80t-3.5 53.5 t-2.5 14l-167 -13l16 52q1 1 15.5 2.5t38.5 4t54 5.5t61.5 6t62 6t56.5 6l15 1.5t33 4t33.5 4t18.5 1.5q4 0 7 -0.5t6 -0.5q0 6 -0.5 11.5t-0.5 11.5q7 0 13.5 1t11.5 1.5t9 -1.5t7 -9l135 -304l115 288q2 5 7.5 8.5t12 6.5t13.5 4.5t12 1.5q1 0 1 -3t2 -21t6.5 -56.5 t14.5 -109t25.5 -179t39.5 -267.5q-4 -9 -10.5 -12t-12 -2t-10 4.5t-5.5 9.5l-76 537z" />
<glyph unicode="&#x2212;" horiz-adv-x="284" d="M34 230q0 1 9 2t28.5 2.5t50.5 4t76 5.5q4 0 13 1t18.5 1.5t18 1.5t13.5 1q0 -14 -5.5 -24.5t-18.5 -17.5q-24 -2 -43.5 -4t-38.5 -4t-39 -3.5t-44 -3.5q-2 0 -9.5 -0.5t-11.5 -0.5q-13 0 -22 2t-15 18z" />
<glyph unicode="&#xe000;" horiz-adv-x="500" d="M0 500h500v-500h-500v500z" />
<glyph unicode="&#xf6c3;" horiz-adv-x="156" d="M70 -98q0 3 -5 9.5t-11 12.5t-12.5 11t-9.5 6q6 12 11.5 16t16.5 4q28 0 40 -12t12 -37q0 -31 -13 -50t-48 -36q-1 2 -1 9v10v10.5t1 8.5q0 2 3.5 7.5t7 12t6 12t2.5 6.5z" />
<glyph unicode="&#xfb01;" horiz-adv-x="472" d="M304 382q12 0 20.5 0.5t14.5 -10.5q3 -44 7 -90.5t8 -94t5.5 -94.5t0.5 -92q0 -6 -3 -7.5t-8.5 -1.5t-13 0.5t-16.5 -1.5l-13 335q-11 -4 -28 -7.5t-34.5 -6t-32.5 -4t-21 -2.5q-1 -47 1 -89.5t3 -81t-0.5 -72t-10.5 -64.5h-29q-4 0 -8.5 -1t-8 -1.5t-5.5 1t-2 7.5 q9 64 12 106t2.5 72.5t-1.5 54t0 49.5q-13 0 -28 -6t-31 -13.5t-31.5 -13.5t-28.5 -6q-5 0 -6.5 4t-2.5 10t-1.5 12.5t-3.5 13.5l135 58q-19 150 -13.5 250.5t29 162t62 90t85.5 35.5q37 0 70.5 -14.5t59 -39.5t41 -58t15.5 -70q-16 0 -29.5 10.5t-25.5 26.5t-24 34.5 t-26.5 34.5t-31.5 26.5t-40 10.5q-20 -4 -39.5 -16.5t-36 -35.5t-29.5 -58.5t-20 -87.5t-7.5 -122.5t8.5 -161.5l111 1v18zM246 560q0 7 1 15.5t4.5 15.5t9 12t13.5 5q12 0 24 -0.5t23 -4.5t18 -11.5t7 -20.5q0 -25 -18 -43.5t-44 -18.5q-20 0 -29 15.5t-9 35.5zM304 555 q-3 0 -3 -5t3 -5q4 0 4 5t-4 5z" />
<glyph unicode="&#xfb02;" horiz-adv-x="446" d="M295 759q14 -2 24 -7.5t16 -19.5q1 -19 2.5 -52.5t3 -77.5t3.5 -95t3.5 -103t3 -103t3 -95t3 -78t1.5 -52v-7t-0.5 -12t-1.5 -13.5t-1 -9.5v-14.5t-2 -16.5t-7 -14.5t-15 -7.5l-17 21q-1 1 -2.5 37.5t-3.5 95t-4 131.5q-1 29 -3 58q-9 -3 -23 -6q-17 -3 -34.5 -5.5 t-32.5 -4t-21 -2.5q-1 -47 1 -89.5t3 -81t-0.5 -72t-10.5 -64.5h-29q-4 0 -8.5 -1t-8 -1.5t-5.5 1t-2 7.5q9 64 12 106t2.5 72.5t-1.5 54t0 49.5q-13 0 -28 -6t-31 -13.5t-31.5 -13.5t-28.5 -6q-5 0 -6.5 4t-2.5 10t-1.5 12.5t-3.5 13.5l135 58q-19 150 -13.5 250.5t29 162 t62 90t85.5 35.5q37 0 70.5 -14.5t59 -39.5t41 -58t15.5 -70q-16 0 -29.5 10.5t-25.5 26.5t-24 34.5t-26.5 34.5t-31.5 26.5t-40 10.5q-20 -4 -39.5 -16.5t-36 -35.5t-29.5 -58.5t-20 -87.5t-7.5 -122.5t8.5 -161.5l108 1q-1 25 -2 51q-2 75 -4.5 144t-2.5 119v16t1 24.5 t1.5 24t0.5 16.5z" />
</font>
</defs>
</svg>
