<?xml version="1.0" standalone="no"?> <!DOCTYPE svg PUBLIC "-//W3C//DTD SVG 1.0//EN" "http://www.w3.org/TR/2001/REC-SVG-20010904/DTD/svg10.dtd" > <svg xmlns="http://www.w3.org/2000/svg" width="100%" height="100%">
<defs >
<font id="IconPack" horiz-adv-x="818" ><font-face
    font-family="IconPack"
    units-per-em="1000"
    panose-1="0 0 0 0 0 0 0 0 0 0"
    ascent="1023"
    descent="-184"
    alphabetic="0" />
<missing-glyph horiz-adv-x="500" />
<glyph unicode=" " glyph-name="uni00A0" horiz-adv-x="500" />
<glyph unicode="-" glyph-name="hyphen" horiz-adv-x="833" d="M927 983L-47 -184L-95 -143L879 1023L927 983V983Z" />
<glyph unicode="1" glyph-name="one" horiz-adv-x="825" d="M413 649Q485 649 548 622T659 548T734 437T761 301V-46H413Q341 -46 278 -19T168 55T93 166T66 301Q66 373 93 436T167 547T278 622T413 649Z" />
<glyph unicode="2" glyph-name="two" horiz-adv-x="833" d="M65 301Q65 373 92 436T166 547T277 622T413 649H760V301Q760 229 733 166T659 56T548 -19T413 -46Q341 -46 278 -19T167 55T92 166T65 301Z" />
<glyph unicode="3" glyph-name="three" horiz-adv-x="833" d="M760 302Q760 230 733 167T659 56T548 -19T412 -46H65V302Q65 374 92 437T166 547T277 622T412 649Q484 649 547 622T658 548T733 437T760 302Z" />
<glyph unicode="4" glyph-name="four" horiz-adv-x="833" d="M412 -46Q340 -46 277 -19T166 55T91 166T64 302V649H412Q484 649 547 622T657 548T732 437T759 302Q759 230 732 167T658 56T547 -19T412 -46Z" />
<glyph unicode="A" glyph-name="A" horiz-adv-x="1020" d="M507 647Q576 647 638 619T748 543T824 432T853 298Q853 229 825 167T749 57T639 -19T507 -48Q437 -48 374 -20T262 56T186 166T158 298Q158 368 186 431T262 543T373 619T507 647ZM621 254L760 368L575
392L507 555L437 392L274 368L389 254L367 90L507 184L668 90L621 254Z" />
<glyph unicode="B" glyph-name="B" horiz-adv-x="825" d="M407 647Q476 647 539 619T650 544T726 433T754 300Q754 222 726 159T650 50T539 -20T407 -45Q338 -45 276 -20T166 50T90 158T62 300Q62 370 90 433T165 543T275 619T407 647ZM385 116Q376 142 363 166T333
210T295 242T247 254L223 140Q223 122 237 119T269 116H385ZM500 140Q500 192 480 235T428 310T354 363T269 393L247 324Q290 324 324 308T382 266T418 207T431 140H500ZM638 162Q630 231 601 294T524 407T412 490T269 531V462Q330 454 384 425T480 353T545 255T569
140L638 162Z" />
<glyph unicode="C" glyph-name="C" horiz-adv-x="817" d="M396 645Q465 645 527 617T637 542T713 432T741 300Q741 231 713 169T638 59T528 -17T396 -45Q327 -45 265 -17T155 58T79 168T51 300Q51 369 79 431T154 541T264 617T396 645ZM579 461V483H234Q226 483
222 480T215 472Q212 467 212 461V208H234H349V161H257V138V116H534Q540 116 545 119Q550 121 553 125T557 138V161H534H465V208H579V461ZM511 438Q519 438 524 435T531 426Q534 421 534 415V253H511H281H257V415L281 438H511Z" />
<glyph unicode="D" glyph-name="D" horiz-adv-x="846" d="M418 645Q487 645 549 620T659 550T735 442T763 300Q763 231 735 169T660 59T550 -16T418 -44Q349 -44 287 -16T177 59T102 168T74 300Q74 378 102 441T177 550T286 620T418 645ZM556 185Q573 194 593
207T630 237T659 275T671 323Q671 357 651 386T597 438T516 472T418 484Q367 484 321 472T241 438T186 387T166 323Q166 288 186 259T238 209T311 175T396 163L349 70Q396 96 436 119Q453 129 471 139T505 158T534 174T556 185Z" />
<glyph unicode="E" glyph-name="E" horiz-adv-x="838" d="M416 646Q485 646 548 618T658 543T734 432T762 300Q762 231 738 169T670 59T567 -17T438 -45L623 254L416 368Q399 368 385 365T370 346L232 140V116V94H256Q262 94 267 97Q271 99 274 103T278 116L347
254H370Q379 254 384 251T391 243Q394 238 394 232L301 94Q301 76 287 73T256 70H232Q224 70 220 74T213 84T211 99T210 116Q201 116 200 120T201 130T206 145T210 162L347 368L370 393L278 439L94 162Q94 179 91 196T83 231T75 265T71 300Q71 369 99 432T174 542T284
618T416 646Z" />
<glyph unicode="F" glyph-name="F" horiz-adv-x="850" d="M282 438Q299 455 313 455T328 438Q345 421 345 407T328 392Q328 375 314 375T282 392Q265 392 265 406T282 438ZM420 645Q489 645 551 620T661 550T737 442T765 300Q765 231 737 168T662 58T552 -18T420
-46Q351 -46 288 -18T178 57T102 168T74 300Q74 378 102 441T177 550T288 620T420 645ZM673 277L443 507H305L212 415V277L443 46L673 277Z" />
<glyph unicode="G" glyph-name="G" horiz-adv-x="850" d="M416 646Q486 646 549 618T660 542T736 431T764 298Q764 220 736 156T660 47T549 -23T416 -48Q347 -48 285 -23T174 47T98 156T70 298Q70 368 98 431T174 542T284 618T416 646ZM648 298L625 414H555Q538
431 521 445T486 460V530H370L347 460Q330 460 313 446T278 414H209L186 298L232 275Q232 266 235 258T243 241T251 223T255 205L232 137L325 67L370 113H416H463L509 67L602 137L578 205Q596 223 599 240T602 275L648 298Z" />
<glyph unicode="H" glyph-name="H" horiz-adv-x="854" d="M423 645Q492 645 554 617T664 541T740 431T768 299Q768 230 740 168T665 58T555 -18T423 -46Q354 -46 292 -18T181 57T105 167T77 299Q77 368 105 430T181 541T291 617T423 645ZM607 322L654 368L607
460L538 438Q538 446 534 451T524 460T509 469T491 483V530H377L354 483Q345 474 340 469T331 460T321 451T307 438L262 460L192 368L239 322V299V277L192 231L262 139L307 161Q316 153 321 149T330 142T340 140T354 139L377 68H491V139Q509 139 523 141T538 161L607
139L654 231L607 277V299V322Z" />
<glyph unicode="I" glyph-name="I" horiz-adv-x="842" d="M411 646Q480 646 543 618T654 542T730 431T758 299Q758 221 730 158T654 49T543 -21T411 -46Q342 -46 280 -21T170 49T94 157T66 299Q66 368 94 431T169 542T279 618T411 646ZM596 231L665 299L596 346L620
439L528 461L481 530L411 484L343 530L296 461L204 439L227 346L158 299L227 231L204 138H296L343 46L411 92L481 46L528 138H620L596 231ZM389 439Q492 439 528 369Q519 378 507 386T481 398T456 402T434 392Q400 392 371 380T320 346T286 295T273 231V277Q264
303 271 331T296 384T338 423T389 439Z" />
<glyph unicode="J" glyph-name="J" horiz-adv-x="846" d="M413 647Q483 647 546 619T656 544T732 433T760 300Q760 231 732 168T657 58T546 -18T413 -46Q344 -46 281 -18T171 57T95 168T67 300Q67 370 95 433T170 543T281 619T413 647ZM622 347L483 254Q474 254
466 251T449 243T431 235T413 231Q404 231 396 234T379 242T362 250T344 254L205 347V162H622V347ZM622 439H205V416L390 300Q390 291 393 287T401 280Q406 277 413 277Q422 277 427 277T436 280T446 286T460 300L622 416V439Z" />
<glyph unicode="K" glyph-name="K" horiz-adv-x="846" d="M737 415Q754 398 757 367T760 300Q760 231 732 168T657 58T546 -18T414 -46Q345 -46 283 -18T173 57T97 168T69 300Q69 369 97 431T172 541T282 617T414 645Q484 645 538 628T645 577L369 300L484 161L737
415ZM461 139L345 276L299 115L461 139Z" />
<glyph unicode="L" glyph-name="L" horiz-adv-x="850" d="M741 438Q750 430 754 414T761 378T763 338T764 300Q764 231 736 168T660 57T549 -19T417 -47Q348 -47 285 -19T175 57T99 168T71 300Q71 369 99 432T174 542T285 618T417 646Q452 646 486 642T550 626T606
598T649 554L417 300L301 416L209 322L417 115L741 438Z" />
<glyph unicode="M" glyph-name="M" horiz-adv-x="842" d="M410 645Q479 645 541 617T652 541T728 431T756 299Q756 230 728 167T652 57T542 -19T410 -48Q341 -48 278 -20T168 56T92 167T63 299Q63 368 91 430T167 541T278 617T410 645ZM502 506L364 392H270V230H364L502
92V506Z" />
<glyph unicode="N" glyph-name="N" horiz-adv-x="846" d="M414 645Q484 645 547 617T658 541T734 430T762 297Q762 228 734 165T658 55T547 -21T414 -50Q345 -50 282 -22T172 54T96 165T67 297Q67 367 95 430T171 541T282 617T414 645ZM391 344Q408 344 411 358T414
391V529H391V414H369V529H346V414H321V529H299L276 391Q276 382 279 374T287 358Q292 350 299 344Q305 337 310 329Q314 322 317 314T321 297V66Q321 57 324 53T333 46Q338 43 346 43Q363 43 366 46T369 66V297Q369 306 372 314T380 329Q384 337 391 344ZM484 43Q502
43 515 51T536 72T549 101T553 136Q553 161 550 175T542 198T535 213T531 229Q514 229 511 243T508 274V507Q508 515 505 519T496 526Q491 529 484 529Q467 529 464 527T461 507V274Q461 266 458 258T449 243Q444 235 438 229Q438 220 434 214T426 199T418 176T414
136Q414 118 418 102T432 72T454 51T484 43Z" />
<glyph unicode="O" glyph-name="O" horiz-adv-x="866" d="M435 647Q506 647 569 620T679 546T753 436T780 302Q780 231 753 168T679 58T569 -16T435 -43Q364 -43 301 -16T191 58T117 168T90 302Q90 373 117 436T191 546T301 620T435 647ZM331 280Q331 295 318
295H248Q242 295 238 291T233 280V134Q233 127 237 123T248 118H318Q331 118 331 134V280ZM475 385Q475 391 471 394T460 398H390Q376 398 376 385V134Q376 118 390 118H460Q466 118 470 122T475 134V385ZM617 493Q617 509 601 509H531Q526 509 522 505T518 493V134Q518
127 522 123T531 118H601Q617 118 617 134V493Z" />
<glyph unicode="P" glyph-name="P" horiz-adv-x="834" d="M411 646Q481 646 544 618T655 542T731 431T759 298Q759 229 731 167T655 56T544 -20T411 -48Q342 -48 280 -20T169 56T93 166T65 298Q65 368 93 431T169 542T279 618T411 646ZM642 414H527V529H389V414H204V137L250
114H527V276H642V414ZM504 391H597V298H504V206H411V298H319V391H411V484H504V391Z" />
<glyph unicode="Q" glyph-name="Q" horiz-adv-x="842" d="M412 646Q481 646 544 618T655 542T731 431T759 299Q759 230 731 168T655 57T544 -19T412 -47H389L320 462Q320 478 317 480T297 483Q291 483 288 480Q286 478 287 474T297 462L343 -47Q283 -29 232 4T144
83T87 184T66 299Q66 368 94 431T170 541T280 617T412 646ZM389 230Q424 230 458 224T527 216T597 221T668 254Q650 262 637 267T612 279T592 295T573 323Q582 340 587 354T596 383T606 417T621 462Q586 436 552 429T482 424T413 432T343 438L389 230Z" />
<glyph unicode="R" glyph-name="R" horiz-adv-x="850" d="M74 300Q74 372 101 435T175 545T285 620T420 647Q492 647 555 620T665 546T740 435T767 300Q767 230 741 169T670 60T564 -15T434 -46V147Q443 147 449 154T456 170V259L503 282L425 402L197 208L235
151L364 214V170Q364 161 370 154T387 147V-45Q321 -39 264 -10T165 66T99 173T74 300ZM538 297Q552 296 567 299T597 313Q614 324 624 340T638 374T639 411T624 447Q602 481 564 489T491 475Q477 466 468 454T453 427L538 297Z" />
<glyph unicode="S" glyph-name="S" horiz-adv-x="846" d="M414 647Q486 647 549 620T659 546T733 435T761 300Q761 229 734 166T659 56T549 -18T414 -46Q342 -46 279 -19T169 56T95 166T68 300Q68 372 95 435T169 545T279 620T414 647ZM414 65Q463 65 506 83T581
134T631 208T650 300Q650 349 632 392T581 467T506 518T414 537Q365 537 322 519T247 468T197 392T178 300Q178 251 196 209T247 134T322 84T414 65ZM414 471Q415 468 418 453T425 416T435 372T444 329Q463 325 486 321T531 312T567 304T585 299Q599 298 599 286Q599
275 585 271Q582 271 558 266T505 255T449 244T412 236Q393 231 377 240Q362 248 355 263T351 297Q353 307 358 334T370 390T381 443T387 471Q390 485 401 485Q411 485 414 471Z" />
<glyph unicode="T" glyph-name="T" horiz-adv-x="829" d="M419 296L309 318V427H439L419 296ZM461 622Q527 614 582 583T675 503T732 391T743 254Q735 188 704 133T624 39T512 -18T375 -29Q310 -21 255 13T161 99T103 212T92 340Q100 405 134 460T220 554T333
611T461 622ZM614 340L504 362V470L266 513L224 254H353L331 123L591 101L614 340ZM483 296H548L526 167L419 188V232H483V296Z" />
<glyph unicode="a" glyph-name="a" horiz-adv-x="870" d="M429 78L206 -46L257 201L58 399L330 424L429 647L553 424L800 399L603 201L676 -46L429 78V78Z" />
<glyph unicode="b" glyph-name="b" horiz-adv-x="842" d="M117 448Q203 435 276 394T404 291T496 151T545 -15H446Q434 48 404 102T327 200T220 273T84 316L117 448ZM84 184Q133 184 175 167T249 118T297 45T315 -47H117Q105 -47 93 -47T72 -43T57 -34T51 -15L84
184ZM117 645Q207 645 289 622T441 556T570 456T671 328T741 180T776 19L677 -15Q665 96 618 193T496 364T325 485T117 546V645Z" />
<glyph unicode="c" glyph-name="c" horiz-adv-x="862" d="M755 642Q764 642 771 641T779 630V136Q779 127 772 120T755 112H533V50H693Q702 50 709 43T717 25V-24Q717 -33 710 -41T693 -49H150Q147 -45 144 -41Q142 -37 140 -33T138 -24V25Q138 30 140 34T144
42Q147 46 150 50H310V112H88Q79 112 78 119T76 136V630Q76 639 77 640T88 642H755ZM681 531Q681 536 679 540T674 548Q671 552 668 556H187Q177 556 170 549T162 531V223Q166 220 170 217Q174 215 178 213T187 211H668L681 223V531Z" />
<glyph unicode="d" glyph-name="d" horiz-adv-x="890" d="M438 557Q513 557 576 540T686 492T759 420T786 333Q786 305 770 278T731 225T683 176T638 134Q609 124 563 100T472 49Q420 19 363 -16L413 108Q348 108 289 125T186 173T115 245T89 333Q89 379 119 420T198
491T310 539T438 557Z" />
<glyph unicode="e" glyph-name="e" horiz-adv-x="829" d="M88 184L364 645L478 577Q470 577 465 573T456 565T447 557T433 553L272 300V255Q272 246 275 241T283 232T292 222T296 209H342Q350 209 358 212T373 220Q381 224 388 231L478 392Q487 392 488 395T487
403Q484 408 478 415H456L364 255H342H318V277L478 531Q478 547 493 550T525 553L755 415L456 -45L88 184Z" />
<glyph unicode="f" glyph-name="f" horiz-adv-x="854" d="M781 287L448 -46L90 312V517L218 645H422L781 287ZM269 440Q289 460 289 491T269 543Q231 582 192 543Q172 523 172 492T192 440Q231 402 269 440Z" />
<glyph unicode="g" glyph-name="g" horiz-adv-x="858" d="M700 266Q695 234 687 204T664 150L694 57L553 -47L473 15Q459 10 446 10T419 9Q400 9 386 9T358 15L278 -47L137 57L168 150Q154 173 145 203T131 266L51 321L106 481H204Q222 504 248 522T302 554L333
646H504L529 554Q561 540 585 522T627 481H725L780 321L700 266ZM419 162Q444 162 467 172T508 201T536 242T547 291Q547 318 537 342T508 385T467 414T419 425Q391 425 367 415T324 386T295 343T284 291Q284 266 294 243T323 201T366 173T419 162Z" />
<glyph unicode="h" glyph-name="h" horiz-adv-x="813" d="M691 253L747 207Q735 165 713 125T660 54L589 85Q558 54 513 39L502 -37Q482 -41 461 -44T416 -48Q393 -48 373 -45T329 -37L319 39Q274 54 243 85L171 54Q141 85 119 125T85 207L146 253Q142 264 142
275T141 299Q141 310 141 320T146 339L85 390Q96 433 118 470T171 538L243 512Q258 528 277 537T319 554L329 630Q352 638 372 641T416 645Q463 645 502 630L513 554Q536 546 555 537T589 512L660 538Q723 477 747 390L691 339V299V253ZM416 156Q446 156 472 167T517
197T547 242T558 299Q558 328 547 353T517 398T472 429T416 441Q387 441 362 430T316 399T285 354T273 299Q273 268 284 242T316 197T361 167T416 156Z" />
<glyph unicode="i" glyph-name="i" horiz-adv-x="854" d="M687 212L706 86L584 65L523 -47L411 11L300 -47L239 65L117 86L135 212L49 301L135 391L117 513L239 534L300 646L411 588L523 646L584 534L706 513L687 391L774 301L687 212ZM426 460Q469 465 509 456T584
427Q549 473 496 497T383 513Q338 508 302 487T240 432T204 358T200 273Q200 241 218 212Q217 258 232 299T275 374T341 430T426 460Z" />
<glyph unicode="j" glyph-name="j" horiz-adv-x="894" d="M440 182Q507 182 562 219L841 407V31H46V407L325 219Q353 200 380 191T440 182ZM46 564H841V485L507 261Q489 243 440 243Q422 243 405 247T374 261L46 485V564Z" />
<glyph unicode="k" glyph-name="k" horiz-adv-x="878" d="M162 146L302 6L107 -48L162 146ZM189 174L557 545L702 401L330 28L189 174ZM588 573L647 636Q658 643 672 643T693 636L792 537Q815 514 792 491L728 428L588 573Z" />
<glyph unicode="l" glyph-name="l" horiz-adv-x="931" d="M844 489L381 24V24L126 277L242 396L381 256L727 605L844 489V489Z" />
<glyph unicode="m" glyph-name="m" horiz-adv-x="583" d="M494 644V-47L251 153H85V441H251L494 644V644Z" />
<glyph unicode="n" glyph-name="n" horiz-adv-x="647" d="M551 507Q551 475 546 454T533 418T518 396T506 383Q503 378 499 373T492 360T486 340T483 308L488 -9Q488 -24 478 -34T453 -44Q437 -44 426 -34T415 -9L420 308Q420 328 418 340T413 360T405 373T397
383Q393 389 386 397T371 419T358 454T352 507Q352 535 358 560T377 605T409 635T453 646Q477 646 495 635T525 605T544 561T551 507ZM256 638L264 449Q264 423 257 401T229 371Q221 367 216 359Q211 352 208 340T204 308L209 -9Q209 -24 198 -34T171 -44Q156 -44
146 -34T135 -9L141 308Q141 328 137 340T128 359Q122 367 115 371Q94 379 87 401T80 449L87 638H123V482Q123 476 128 472T138 467Q143 467 148 471T153 482V638H191V482Q191 476 195 472T206 467Q212 467 216 471T221 482V638H256Z" />
<glyph unicode="o" glyph-name="o" horiz-adv-x="809" d="M316 427Q316 438 323 445T342 453H464Q475 453 482 446T490 427V-17Q490 -28 483 -35T464 -43H342Q331 -43 324 -36T316 -17V427ZM65 242Q65 253 72 260T91 268H213Q224 268 231 261T238 242V-17Q238
-28 231 -35T213 -43H91Q80 -43 73 -36T65 -17V242ZM716 646Q727 646 734 639T742 620V-17Q742 -28 735 -35T716 -43H594Q583 -43 576 -36T568 -17V620Q568 631 575 638T594 646H716Z" />
<glyph unicode="p" glyph-name="p" horiz-adv-x="793" d="M572 474H740V234H572V-49H49V474H331V644H572V474ZM679 297V417H512V585H392V417H223V297H392V139H512V297H679Z" />
<glyph unicode="q" glyph-name="q" horiz-adv-x="599" d="M427 441Q445 421 458 409T485 387T510 370T540 354Q496 322 454 315T369 312T285 324T201 333L166 595Q208 594 250 585T334 572T419 575T505 615Q494 580 485 558T467 517T449 482T427 441ZM106 646Q115
647 123 641T133 624L223 -44H174L84 618Q83 629 89 636T106 646Z" />
<glyph unicode="r" glyph-name="r" horiz-adv-x="793" d="M498 544Q523 561 552 566T609 566T661 544T703 502Q720 476 725 447T725 389T703 337T661 295Q641 281 617 275T569 271L439 470Q447 492 461 511T498 544ZM397 430L518 247L104 46L46 134L397 430Z" />
<glyph unicode="s" glyph-name="s" horiz-adv-x="842" d="M417 647Q489 647 552 620T662 546T736 435T764 300Q764 229 737 166T662 56T552 -18T417 -46Q345 -46 282 -19T172 56T98 166T71 300Q71 372 98 435T172 545T282 620T417 647ZM417 65Q466 65 509 83T584
134T634 208T653 300Q653 349 635 392T584 467T509 518T417 537Q368 537 325 519T250 468T200 392T181 300Q181 251 199 209T250 134T325 84T417 65ZM417 471Q418 468 421 453T428 416T438 372T447 329Q466 325 489 321T534 312T570 304T588 299Q602 298 602 286Q602
275 588 271Q585 271 561 266T508 255T452 244T415 236Q396 231 380 240Q365 248 358 263T354 297Q356 307 361 334T373 390T384 443T390 471Q393 485 404 485Q414 485 417 471Z" />
<glyph unicode="t" glyph-name="t" horiz-adv-x="797" d="M528 394L738 369L684 -46L250 5L275 205L66 230L120 646L554 594L528 394ZM215 528L189 322L404 296L431 502L215 528ZM588 71L614 277L515 289L500 178L384 192L372 96L588 71Z" />
<glyph unicode="u" glyph-name="u" horiz-adv-x="788" d="M752 346Q752 274 725 210T647 93Q596 42 531 15T394 -12Q322 -12 257 15T141 93Q90 145 63 209T36 346Q36 418 63 483T141 599Q192 650 257 677T394 704Q466 704 531 677T647 599Q698 548 725 483T752
346ZM719 347Q719 413 695 472T624 577Q578 624 519 648T394 672Q328 672 269 648T164 577Q118 531 94 472T69 347Q69 281 93 222T164 117Q210 71 269 47T394 22Q460 22 519 46T624 117Q670 163 694 222T719 347ZM430 118H373V469H278V505Q331 505 358 523T393
583H430V118Z" />
<glyph unicode="v" glyph-name="v" horiz-adv-x="788" d="M752 346Q752 274 725 210T647 93Q596 42 531 15T394 -12Q322 -12 257 15T141 93Q90 145 63 209T36 346Q36 418 63 483T141 599Q192 650 257 677T394 704Q466 704 531 677T647 599Q698 548 725 483T752
346ZM719 347Q719 413 695 472T624 577Q578 624 519 648T394 672Q328 672 269 648T164 577Q118 531 94 472T69 347Q69 281 93 222T164 117Q210 71 269 47T394 22Q460 22 519 46T624 117Q670 163 694 222T719 347ZM244 434Q247 504 285 543T389 583Q456 583 498
542T541 439Q541 346 391 247L377 238Q342 215 328 200T313 170H533V118H247Q247 168 269 205T340 275Q344 278 354 284Q478 367 478 441Q478 482 452 508T385 535Q345 535 323 507T301 428L244 434Z" />
<glyph unicode="w" glyph-name="w" horiz-adv-x="788" d="M752 346Q752 273 725 209T647 93Q596 41 531 15T394 -12Q341 -12 291 3T195 48Q120 99 78 177T36 346Q36 417 63 482T141 599Q192 649 257 676T394 704Q466 704 531 677T647 599Q698 547 725 482T752
346ZM719 347Q719 395 705 440T664 526Q618 595 547 633T394 671Q328 671 269 647T164 577Q118 530 94 471T69 347Q69 281 93 222T164 117Q210 70 269 46T394 21Q460 21 519 45T624 117Q670 163 694 222T719 347ZM460 358Q506 338 527 312T548 246Q548 187 507
149T400 111Q327 111 289 146T250 250L308 258Q309 213 332 190T397 166Q439 166 462 188T485 250Q485 294 455 314T360 334H352V378H361Q420 378 447 397T474 459Q474 494 453 514T394 534Q356 534 336 513T314 453L257 458Q261 515 298 549T394 583Q457 583 496
548T535 459Q535 423 518 400T460 360V358Z" />
<glyph unicode="x" glyph-name="x" horiz-adv-x="788" d="M752 346Q752 274 725 210T647 93Q596 42 531 15T394 -12Q322 -12 257 15T141 93Q90 145 63 209T36 346Q36 418 63 483T141 599Q192 650 257 677T394 704Q466 704 531 677T647 599Q698 548 725 483T752
346ZM719 347Q719 413 695 472T624 577Q578 624 519 648T394 672Q328 672 269 648T164 577Q118 531 94 472T69 347Q69 281 93 222T164 117Q210 71 269 47T394 22Q460 22 519 46T624 117Q670 163 694 222T719 347ZM534 233H462V118H408V233H199V287L408 583H462V285H534V233ZM408
285V502L253 285H408Z" />
<glyph unicode="y" glyph-name="y" horiz-adv-x="788" d="M752 346Q752 274 725 210T647 93Q596 42 531 15T394 -12Q322 -12 257 15T141 93Q90 145 63 209T36 346Q36 418 63 483T141 599Q192 650 257 677T394 704Q466 704 531 677T647 599Q698 548 725 483T752
346ZM719 347Q719 413 695 472T624 577Q578 624 519 648T394 672Q328 672 269 648T164 577Q118 531 94 472T69 347Q69 281 93 222T164 117Q210 71 269 47T394 22Q460 22 519 46T624 117Q670 163 694 222T719 347ZM318 396Q336 417 358 427T409 437Q473 437 512
395T551 285Q551 208 507 160T390 112Q331 112 296 144T256 235L310 244Q314 204 334 184T391 163Q438 163 463 194T489 283Q489 333 466 360T401 388Q369 388 347 369T312 311H267V577H515V525H318V396Z" />
<glyph unicode="z" glyph-name="z" horiz-adv-x="788" d="M752 346Q752 274 725 210T647 93Q596 42 531 15T394 -12Q322 -12 257 15T141 93Q90 145 63 209T36 346Q36 418 63 483T141 599Q192 650 257 677T394 704Q466 704 531 677T647 599Q698 548 725 483T752
346ZM719 347Q719 413 695 472T624 577Q578 624 519 648T394 672Q328 672 269 648T164 577Q118 531 94 472T69 347Q69 281 93 222T164 117Q210 71 269 47T394 22Q460 22 519 46T624 117Q670 163 694 222T719 347ZM293 354Q314 386 340 401T401 417Q461 417 499
377T537 273Q537 201 496 157T389 112Q311 112 272 169T233 342Q233 458 276 520T400 583Q451 583 484 555T527 476L475 465Q468 500 449 518T397 537Q347 537 321 491T293 354ZM479 264Q479 313 457 341T394 369Q351 369 325 342T298 270Q298 219 323 190T393
160Q434 160 456 187T479 264Z" />
<glyph unicode="{" glyph-name="braceleft" horiz-adv-x="788" d="M752 346Q752 274 725 210T647 93Q596 42 531 15T394 -12Q322 -12 257 15T141 93Q90 145 63 209T36 346Q36 418 63 483T141 599Q192 650 257 677T394 704Q466 704 531 677T647 599Q698 548 725
483T752 346ZM719 347Q719 413 695 472T624 577Q578 624 519 648T394 672Q328 672 269 648T164 577Q118 531 94 472T69 347Q69 281 93 222T164 117Q210 71 269 47T394 22Q460 22 519 46T624 117Q670 163 694 222T719 347ZM537 524Q470 432 431 331T377 118H310Q324
231 366 331T479 521H238V577H537V524Z" />
<glyph unicode="|" glyph-name="bar" horiz-adv-x="788" d="M752 346Q752 274 725 210T647 93Q596 42 531 15T394 -12Q322 -12 257 15T141 93Q90 145 63 209T36 346Q36 418 63 483T141 599Q192 650 257 677T394 704Q466 704 531 677T647 599Q698 548 725 483T752
346ZM719 347Q719 413 695 472T624 577Q578 624 519 648T394 672Q328 672 269 648T164 577Q118 531 94 472T69 347Q69 281 93 222T164 117Q210 71 269 47T394 22Q460 22 519 46T624 117Q670 163 694 222T719 347ZM462 362Q504 342 524 314T544 246Q544 185 504
149T394 112Q325 112 285 148T244 246Q244 287 264 315T326 362Q292 377 276 402T260 464Q260 516 297 549T394 583Q454 583 491 549T528 459Q528 425 512 402T462 362ZM472 458Q472 496 451 518T394 541Q358 541 337 519T316 459Q316 422 336 402T394 382Q432
382 452 401T472 458ZM484 244Q484 285 459 311T394 337Q354 337 329 311T304 244Q304 206 328 183T394 160Q435 160 459 183T484 244Z" />
<glyph unicode="}" glyph-name="braceright" horiz-adv-x="788" d="M752 346Q752 274 725 210T647 93Q596 42 531 15T394 -12Q322 -12 257 15T141 93Q90 145 63 209T36 346Q36 418 63 483T141 599Q192 650 257 677T394 704Q466 704 531 677T647 599Q698 548 725
483T752 346ZM719 347Q719 413 695 472T624 577Q578 624 519 648T394 672Q328 672 269 648T164 577Q118 531 94 472T69 347Q69 281 93 222T164 117Q210 71 269 47T394 22Q460 22 519 46T624 117Q670 163 694 222T719 347ZM485 341Q463 309 437 294T377 278Q317
278 279 318T241 422Q241 494 282 538T389 583Q467 583 505 526T544 353Q544 237 501 175T378 112Q326 112 294 139T251 219L303 230Q310 194 329 176T381 158Q431 158 457 204T485 341ZM480 425Q480 476 455 505T385 535Q344 535 322 508T299 431Q299 382 321
354T384 326Q426 326 453 353T480 425Z" />
<glyph unicode="~" glyph-name="asciitilde" horiz-adv-x="788" d="M752 346Q752 274 725 210T647 93Q596 42 531 15T394 -12Q322 -12 257 15T141 93Q90 145 63 209T36 346Q36 418 63 483T141 599Q192 650 257 677T394 704Q466 704 531 677T647 599Q698 548 725
483T752 346ZM719 347Q719 413 695 472T624 577Q578 624 519 648T394 672Q328 672 269 648T164 577Q118 531 94 472T69 347Q69 281 93 222T164 117Q210 71 269 47T394 22Q460 22 519 46T624 117Q670 163 694 222T719 347ZM629 348Q629 231 593 172T486 112Q415
112 379 171T343 348Q343 462 380 522T486 583Q556 583 592 523T629 348ZM284 118H228V469H154V505Q192 507 216 526T250 583H284V118ZM571 348Q571 444 550 492T486 541Q442 541 422 495T401 348Q401 250 422 202T486 154Q529 154 550 202T571 348Z" />
<glyph unicode="&#xa0;" glyph-name="uni00A0" horiz-adv-x="500" />
</font>
</defs>
</svg>
